999
FreeCAD v0.20 29410 (Git)
  0
SECTION
  2
HEADER
  9
$ACADVER
  1
AC1014
  9
$ACADMAINTVER
 70
     9
  9
$DWGCODEPAGE
  3
ANSI_1252
  9
$TEXTSTYLE
  7
STANDARD
  9
$DIMSTYLE
  2
STANDARD
  9
$DIMTXSTY
  7
STANDARD
  9
$CMLSTYLE
  2
STANDARD
  9
$LUNITS
 70
2
  9
$INSUNITS
 70
4
  9
$PEXTMAX
 10
50
 20
50
 30
50
  9
$PEXTMIN
 10
0
 20
0
 30
0
  9
$HANDSEED
  5
FFFF
  0
ENDSEC
  0
SECTION
  2
CLASSES
  0
CLASS
  1
ACDBDICTIONARYWDFLT
  2
AcDbDictionaryWithDefault
  3
ObjectDBX Classes
 90
        0
280
     0
281
     0
  0
CLASS
  1
XRECORD
  2
AcDbXrecord
  3
ObjectDBX Classes
 90
        0
280
     0
281
     0
  0
CLASS
  1
LWPOLYLINE
  2
AcDbPolyline
  3
ObjectDBX Classes
 90
        0
280
     0
281
     1
  0
ENDSEC
  0
SECTION
  2
TABLES
  0
TABLE
  2
VPORT
  5
20
330
0
100
AcDbSymbolTable
 70
     1
  0
VPORT
  5
21
330
20
100
AcDbSymbolTableRecord
100
AcDbViewportTableRecord
  2
*ACTIVE
 70
     0
  0
ENDTAB
  0
TABLE
  2
LTYPE
  5
22
330
0
100
AcDbSymbolTable
 70
     1
  0
LTYPE
  5
23
330
21
100
AcDbSymbolTableRecord
100
AcDbLinetypeTableRecord
  2
BYBLOCK
 70
     0
  3

 72
    65
 73
     0
 40
0.0
  0
LTYPE
  5
24
330
21
100
AcDbSymbolTableRecord
100
AcDbLinetypeTableRecord
  2
BYLAYER
 70
     0
  3

 72
    65
 73
     0
 40
0.0
  0
LTYPE
  5
25
330
21
100
AcDbSymbolTableRecord
100
AcDbLinetypeTableRecord
  2
CONTINUOUS
 70
     0
  3
Solid line
 72
    65
 73
     0
 40
0.0
  0
ENDTAB
  0
TABLE
  2
LAYER
  5
A8F
330
0
100
AcDbSymbolTable
 70
10
  0
LAYER
  5
A90
330
A8F
100
AcDbSymbolTableRecord
100
AcDbLayerTableRecord
  2
0
 70
   0
 62
   7
  6
CONTINUOUS
  0
LAYER
  5
A91
330
A8F
100
AcDbSymbolTableRecord
100
AcDbLayerTableRecord
  2
View001
 70
    0
 62
    7
  6
CONTINUOUS
  0
LAYER
  5
A92
330
A8F
100
AcDbSymbolTableRecord
100
AcDbLayerTableRecord
  2
Dimension006
 70
    0
 62
    7
  6
CONTINUOUS
  0
LAYER
  5
A93
330
A8F
100
AcDbSymbolTableRecord
100
AcDbLayerTableRecord
  2
Dimension007
 70
    0
 62
    7
  6
CONTINUOUS
  0
LAYER
  5
A94
330
A8F
100
AcDbSymbolTableRecord
100
AcDbLayerTableRecord
  2
Dimension008
 70
    0
 62
    7
  6
CONTINUOUS
  0
LAYER
  5
A95
330
A8F
100
AcDbSymbolTableRecord
100
AcDbLayerTableRecord
  2
Dimension009
 70
    0
 62
    7
  6
CONTINUOUS
  0
LAYER
  5
A96
330
A8F
100
AcDbSymbolTableRecord
100
AcDbLayerTableRecord
  2
Dimension010
 70
    0
 62
    7
  6
CONTINUOUS
  0
LAYER
  5
A97
330
A8F
100
AcDbSymbolTableRecord
100
AcDbLayerTableRecord
  2
Dimension011
 70
    0
 62
    7
  6
CONTINUOUS
  0
LAYER
  5
A98
330
A8F
100
AcDbSymbolTableRecord
100
AcDbLayerTableRecord
  2
Dimension012
 70
    0
 62
    7
  6
CONTINUOUS
  0
LAYER
  5
A99
330
A8F
100
AcDbSymbolTableRecord
100
AcDbLayerTableRecord
  2
Dimension013
 70
    0
 62
    7
  6
CONTINUOUS
  0
ENDTAB
  0
TABLE
  2
STYLE
  5
70
330
0
100
AcDbSymbolTable
 70
     2
  0
STYLE
  5
71
330
70
100
AcDbSymbolTableRecord
100
AcDbTextStyleTableRecord
  2
STANDARD
 70
     0
 40
0.0
 41
1.0
 50
0.0
 71
     0
 42
2.5
  3
arial.ttf
  4

  0
STYLE
  5
72
330
70
100
AcDbSymbolTableRecord
100
AcDbTextStyleTableRecord
  2
ANNOTATIVE
 70
     0
 40
0.0
 41
1.0
 50
0.0
 71
     0
 42
2.5
  3
arial.ttf
  4

  0
ENDTAB
  0
TABLE
  2
VIEW
  5
73
330
0
100
AcDbSymbolTable
 70
     0
  0
ENDTAB
  0
TABLE
  2
UCS
  5
74
330
0
100
AcDbSymbolTable
 70
     0
  0
ENDTAB
  0
TABLE
  2
APPID
  5
75
330
0
100
AcDbSymbolTable
 70
     2
  0
APPID
  5
76
330
75
100
AcDbSymbolTableRecord
100
AcDbRegAppTableRecord
  2
ACAD
 70
     0
  0
APPID
  5
77
330
75
100
AcDbSymbolTableRecord
100
AcDbRegAppTableRecord
  2
ACADANNOTATIVE
 70
     0
  0
ENDTAB
  0
TABLE
  2
DIMSTYLE
  5
78
330
0
100
AcDbSymbolTable
 70
     2
  0
DIMSTYLE
105
79
330
78
100
AcDbSymbolTableRecord
100
AcDbDimStyleTableRecord
  2
STANDARD
 70
     0
  3

  4

  5

  6

  7

 40
0.0
 41
2.5
 42
0.625
 43
3.75
 44
1.25
 45
0.0
 46
0.0
 47
0.0
 48
0.0
140
2.5
141
2.5
142
0.0
143
0.03937007874016
144
1.0
145
0.0
146
1.0
147
0.625
 71
     0
 72
     0
 73
     0
 74
     0
 75
     0
 76
     0
 77
     1
 78
     8
170
     0
171
     3
172
     1
173
     0
174
     0
175
     0
176
     0
177
     0
178
     0
270
     2
271
     2
272
     2
273
     2
274
     3
340
71
275
     0
280
     0
281
     0
282
     0
283
     0
284
     8
285
     0
286
     0
287
     3
288
     0
  0
ENDTAB
  0
TABLE
  2
BLOCK_RECORD
  5
A01
330
0
100
AcDbSymbolTable
  70
5
  0
BLOCK_RECORD
  5
A02
330
A01
100
AcDbSymbolTableRecord
100
AcDbBlockTableRecord
  2
*MODEL_SPACE
  0
BLOCK_RECORD
  5
A03
330
A01
100
AcDbSymbolTableRecord
100
AcDbBlockTableRecord
  2
*PAPER_SPACE
  0
BLOCK_RECORD
  5
A40
330
A01
100
AcDbSymbolTableRecord
100
AcDbBlockTableRecord
  2
*Dimension006
  0
BLOCK_RECORD
  5
A4A
330
A01
100
AcDbSymbolTableRecord
100
AcDbBlockTableRecord
  2
*Dimension007
  0
BLOCK_RECORD
  5
A54
330
A01
100
AcDbSymbolTableRecord
100
AcDbBlockTableRecord
  2
*Dimension008
  0
BLOCK_RECORD
  5
A5E
330
A01
100
AcDbSymbolTableRecord
100
AcDbBlockTableRecord
  2
*Dimension009
  0
BLOCK_RECORD
  5
A68
330
A01
100
AcDbSymbolTableRecord
100
AcDbBlockTableRecord
  2
*Dimension010
  0
BLOCK_RECORD
  5
A72
330
A01
100
AcDbSymbolTableRecord
100
AcDbBlockTableRecord
  2
*Dimension011
  0
BLOCK_RECORD
  5
A7C
330
A01
100
AcDbSymbolTableRecord
100
AcDbBlockTableRecord
  2
*Dimension012
  0
BLOCK_RECORD
  5
A86
330
A01
100
AcDbSymbolTableRecord
100
AcDbBlockTableRecord
  2
*Dimension013
  0
ENDTAB
  0
ENDSEC
  0
SECTION
  2
BLOCKS
  0
BLOCK
  5
A04
330
A02
100
AcDbEntity
  8
0
100
AcDbBlockBegin
  2
*MODEL_SPACE
 70
   0
 10
0
 20
0
 30
0
  3
*MODEL_SPACE
  1
 
  0
ENDBLK
  5
A05
330
A02
100
AcDbEntity
  8
0
100
AcDbBlockEnd
  0
BLOCK
  5
A06
330
A03
100
AcDbEntity
 67
1
  8
0
100
AcDbBlockBegin
  2
*PAPER_SPACE
 70
   0
 10
0
 20
0
 30
0
  3
*PAPER_SPACE
  1
 
  0
ENDBLK
  5
A07
330
A03
100
AcDbEntity
 67
    1
  8
0
100
AcDbBlockEnd
  0
BLOCK
  5
A41
330
A40
100
AcDbEntity
  8
Dimension006
100
AcDbBlockBegin
  2
*Dimension006
 70
   1
 10
0
 20
0
 30
0
  3
*Dimension006
  1
 
  0
LINE
  5
A42
330
A40
100
AcDbEntity
  8
Dimension006
100
AcDbLine
 10
194.145
 20
100.412
 30
0
 11
199.145
 21
100.412
 31
0
  0
LINE
  5
A43
330
A40
100
AcDbEntity
  8
Dimension006
100
AcDbLine
 10
194.145
 20
393.412
 30
0
 11
199.145
 21
393.412
 31
0
  0
LINE
  5
A44
330
A40
100
AcDbEntity
  8
Dimension006
100
AcDbLine
 10
199.145
 20
393.412
 30
0
 11
199.145
 21
100.412
 31
0
  0
TEXT
  5
A45
330
A40
100
AcDbEntity
  8
Dimension006
100
AcDbText
 10
194.145
 20
249.412
 30
0
 40
3.5
  1
293
  7
STANDARD
 72
1
 11
199.145
 21
249.412
 31
0
100
AcDbText
  0
SOLID
  5
A46
330
A40
100
AcDbEntity
  8
0
 62
     0
100
AcDbTrace
 10
198.729
 20
388.412
 30
0
 11
199.562
 21
388.412
 31
0
 12
199.145
 22
393.412
 32
0
 13
199.145
 23
393.412
 33
0
  0
SOLID
  5
A47
330
A40
100
AcDbEntity
  8
0
 62
     0
100
AcDbTrace
 10
198.729
 20
105.412
 30
0
 11
199.562
 21
105.412
 31
0
 12
199.145
 22
100.412
 32
0
 13
199.145
 23
100.412
 33
0
  0
ENDBLK
  5
A48
330
A40
100
AcDbEntity
  8
Dimension006
100
AcDbBlockEnd
  0
BLOCK
  5
A4B
330
A4A
100
AcDbEntity
  8
Dimension007
100
AcDbBlockBegin
  2
*Dimension007
 70
   1
 10
0
 20
0
 30
0
  3
*Dimension007
  1
 
  0
LINE
  5
A4C
330
A4A
100
AcDbEntity
  8
Dimension007
100
AcDbLine
 10
88.1454
 20
77.4124
 30
0
 11
88.1454
 21
74.9124
 31
0
  0
LINE
  5
A4D
330
A4A
100
AcDbEntity
  8
Dimension007
100
AcDbLine
 10
58.1454
 20
77.4124
 30
0
 11
58.1454
 21
74.9124
 31
0
  0
LINE
  5
A4E
330
A4A
100
AcDbEntity
  8
Dimension007
100
AcDbLine
 10
58.1454
 20
74.9124
 30
0
 11
88.1454
 21
74.9124
 31
0
  0
TEXT
  5
A4F
330
A4A
100
AcDbEntity
  8
Dimension007
100
AcDbText
 10
73.1454
 20
79.9124
 30
0
 40
3.5
  1
30
  7
STANDARD
 72
1
 11
73.1454
 21
74.9124
 31
0
100
AcDbText
  0
SOLID
  5
A50
330
A4A
100
AcDbEntity
  8
0
 62
     0
100
AcDbTrace
 10
63.1454
 20
75.3291
 30
0
 11
63.1454
 21
74.4957
 31
0
 12
58.1454
 22
74.9124
 32
0
 13
58.1454
 23
74.9124
 33
0
  0
SOLID
  5
A51
330
A4A
100
AcDbEntity
  8
0
 62
     0
100
AcDbTrace
 10
83.1454
 20
75.3291
 30
0
 11
83.1454
 21
74.4957
 31
0
 12
88.1454
 22
74.9124
 32
0
 13
88.1454
 23
74.9124
 33
0
  0
ENDBLK
  5
A52
330
A4A
100
AcDbEntity
  8
Dimension007
100
AcDbBlockEnd
  0
BLOCK
  5
A55
330
A54
100
AcDbEntity
  8
Dimension008
100
AcDbBlockBegin
  2
*Dimension008
 70
   1
 10
0
 20
0
 30
0
  3
*Dimension008
  1
 
  0
LINE
  5
A56
330
A54
100
AcDbEntity
  8
Dimension008
100
AcDbLine
 10
358.145
 20
100.412
 30
0
 11
353.145
 21
100.412
 31
0
  0
LINE
  5
A57
330
A54
100
AcDbEntity
  8
Dimension008
100
AcDbLine
 10
358.145
 20
77.4124
 30
0
 11
353.145
 21
77.4124
 31
0
  0
LINE
  5
A58
330
A54
100
AcDbEntity
  8
Dimension008
100
AcDbLine
 10
353.145
 20
77.4124
 30
0
 11
353.145
 21
100.412
 31
0
  0
TEXT
  5
A59
330
A54
100
AcDbEntity
  8
Dimension008
100
AcDbText
 10
358.145
 20
91.4124
 30
0
 40
3.5
  1
23
  7
STANDARD
 72
1
 11
353.145
 21
91.4124
 31
0
100
AcDbText
  0
SOLID
  5
A5A
330
A54
100
AcDbEntity
  8
0
 62
     0
100
AcDbTrace
 10
353.562
 20
82.4124
 30
0
 11
352.729
 21
82.4124
 31
0
 12
353.145
 22
77.4124
 32
0
 13
353.145
 23
77.4124
 33
0
  0
SOLID
  5
A5B
330
A54
100
AcDbEntity
  8
0
 62
     0
100
AcDbTrace
 10
353.562
 20
95.4124
 30
0
 11
352.729
 21
95.4124
 31
0
 12
353.145
 22
100.412
 32
0
 13
353.145
 23
100.412
 33
0
  0
ENDBLK
  5
A5C
330
A54
100
AcDbEntity
  8
Dimension008
100
AcDbBlockEnd
  0
BLOCK
  5
A5F
330
A5E
100
AcDbEntity
  8
Dimension009
100
AcDbBlockBegin
  2
*Dimension009
 70
   1
 10
0
 20
0
 30
0
  3
*Dimension009
  1
 
  0
LINE
  5
A60
330
A5E
100
AcDbEntity
  8
Dimension009
100
AcDbLine
 10
55.1454
 20
41.4124
 30
0
 11
55.1454
 21
48.9124
 31
0
  0
LINE
  5
A61
330
A5E
100
AcDbEntity
  8
Dimension009
100
AcDbLine
 10
370.145
 20
41.4124
 30
0
 11
370.145
 21
48.9124
 31
0
  0
LINE
  5
A62
330
A5E
100
AcDbEntity
  8
Dimension009
100
AcDbLine
 10
370.145
 20
48.9124
 30
0
 11
55.1454
 21
48.9124
 31
0
  0
TEXT
  5
A63
330
A5E
100
AcDbEntity
  8
Dimension009
100
AcDbText
 10
212.645
 20
43.9124
 30
0
 40
3.5
  1
315
  7
STANDARD
 72
1
 11
212.645
 21
48.9124
 31
0
100
AcDbText
  0
SOLID
  5
A64
330
A5E
100
AcDbEntity
  8
0
 62
     0
100
AcDbTrace
 10
365.145
 20
48.4957
 30
0
 11
365.145
 21
49.3291
 31
0
 12
370.145
 22
48.9124
 32
0
 13
370.145
 23
48.9124
 33
0
  0
SOLID
  5
A65
330
A5E
100
AcDbEntity
  8
0
 62
     0
100
AcDbTrace
 10
60.1454
 20
48.4957
 30
0
 11
60.1454
 21
49.3291
 31
0
 12
55.1454
 22
48.9124
 32
0
 13
55.1454
 23
48.9124
 33
0
  0
ENDBLK
  5
A66
330
A5E
100
AcDbEntity
  8
Dimension009
100
AcDbBlockEnd
  0
BLOCK
  5
A69
330
A68
100
AcDbEntity
  8
Dimension010
100
AcDbBlockBegin
  2
*Dimension010
 70
   1
 10
0
 20
0
 30
0
  3
*Dimension010
  1
 
  0
LINE
  5
A6A
330
A68
100
AcDbEntity
  8
Dimension010
100
AcDbLine
 10
370.145
 20
41.4124
 30
0
 11
375.145
 21
41.4124
 31
0
  0
LINE
  5
A6B
330
A68
100
AcDbEntity
  8
Dimension010
100
AcDbLine
 10
370.145
 20
51.4124
 30
0
 11
375.145
 21
51.4124
 31
0
  0
LINE
  5
A6C
330
A68
100
AcDbEntity
  8
Dimension010
100
AcDbLine
 10
375.145
 20
51.4124
 30
0
 11
375.145
 21
41.4124
 31
0
  0
TEXT
  5
A6D
330
A68
100
AcDbEntity
  8
Dimension010
100
AcDbText
 10
370.145
 20
48.9124
 30
0
 40
3.5
  1
10
  7
STANDARD
 72
1
 11
375.145
 21
48.9124
 31
0
100
AcDbText
  0
SOLID
  5
A6E
330
A68
100
AcDbEntity
  8
0
 62
     0
100
AcDbTrace
 10
374.729
 20
46.4124
 30
0
 11
375.562
 21
46.4124
 31
0
 12
375.145
 22
51.4124
 32
0
 13
375.145
 23
51.4124
 33
0
  0
SOLID
  5
A6F
330
A68
100
AcDbEntity
  8
0
 62
     0
100
AcDbTrace
 10
374.729
 20
46.4124
 30
0
 11
375.562
 21
46.4124
 31
0
 12
375.145
 22
41.4124
 32
0
 13
375.145
 23
41.4124
 33
0
  0
ENDBLK
  5
A70
330
A68
100
AcDbEntity
  8
Dimension010
100
AcDbBlockEnd
  0
BLOCK
  5
A73
330
A72
100
AcDbEntity
  8
Dimension011
100
AcDbBlockBegin
  2
*Dimension011
 70
   1
 10
0
 20
0
 30
0
  3
*Dimension011
  1
 
  0
LINE
  5
A74
330
A72
100
AcDbEntity
  8
Dimension011
100
AcDbLine
 10
282.905
 20
206.023
 30
0
 11
282.399
 21
204.252
 31
0
  0
LINE
  5
A75
330
A72
100
AcDbEntity
  8
Dimension011
100
AcDbLine
 10
224.145
 20
222.803
 30
0
 11
223.64
 21
221.031
 31
0
  0
LINE
  5
A76
330
A72
100
AcDbEntity
  8
Dimension011
100
AcDbLine
 10
223.64
 20
221.031
 30
0
 11
282.399
 21
204.252
 31
0
  0
TEXT
  5
A77
330
A72
100
AcDbEntity
  8
Dimension011
100
AcDbText
 10
253.525
 20
216.913
 30
0
 40
3.5
  1
61.11
  7
STANDARD
 72
1
 11
254.898
 21
212.105
 31
0
100
AcDbText
  0
SOLID
  5
A78
330
A72
100
AcDbEntity
  8
0
 62
     0
100
AcDbTrace
 10
228.562
 20
220.059
 30
0
 11
228.333
 21
219.258
 31
0
 12
223.64
 22
221.031
 32
0
 13
223.64
 23
221.031
 33
0
  0
SOLID
  5
A79
330
A72
100
AcDbEntity
  8
0
 62
     0
100
AcDbTrace
 10
277.705
 20
206.025
 30
0
 11
277.477
 21
205.224
 31
0
 12
282.399
 22
204.252
 32
0
 13
282.399
 23
204.252
 33
0
  0
ENDBLK
  5
A7A
330
A72
100
AcDbEntity
  8
Dimension011
100
AcDbBlockEnd
  0
BLOCK
  5
A7D
330
A7C
100
AcDbEntity
  8
Dimension012
100
AcDbBlockBegin
  2
*Dimension012
 70
   1
 10
0
 20
0
 30
0
  3
*Dimension012
  1
 
  0
LINE
  5
A7E
330
A7C
100
AcDbEntity
  8
Dimension012
100
AcDbLine
 10
358.145
 20
100.412
 30
0
 11
358.145
 21
97.9124
 31
0
  0
LINE
  5
A7F
330
A7C
100
AcDbEntity
  8
Dimension012
100
AcDbLine
 10
58.1454
 20
100.412
 30
0
 11
58.1454
 21
97.9124
 31
0
  0
LINE
  5
A80
330
A7C
100
AcDbEntity
  8
Dimension012
100
AcDbLine
 10
58.1454
 20
97.9124
 30
0
 11
358.145
 21
97.9124
 31
0
  0
TEXT
  5
A81
330
A7C
100
AcDbEntity
  8
Dimension012
100
AcDbText
 10
208.145
 20
102.912
 30
0
 40
3.5
  1
300
  7
STANDARD
 72
1
 11
208.145
 21
97.9124
 31
0
100
AcDbText
  0
SOLID
  5
A82
330
A7C
100
AcDbEntity
  8
0
 62
     0
100
AcDbTrace
 10
63.1454
 20
98.3291
 30
0
 11
63.1454
 21
97.4957
 31
0
 12
58.1454
 22
97.9124
 32
0
 13
58.1454
 23
97.9124
 33
0
  0
SOLID
  5
A83
330
A7C
100
AcDbEntity
  8
0
 62
     0
100
AcDbTrace
 10
353.145
 20
98.3291
 30
0
 11
353.145
 21
97.4957
 31
0
 12
358.145
 22
97.9124
 32
0
 13
358.145
 23
97.9124
 33
0
  0
ENDBLK
  5
A84
330
A7C
100
AcDbEntity
  8
Dimension012
100
AcDbBlockEnd
  0
BLOCK
  5
A87
330
A86
100
AcDbEntity
  8
Dimension013
100
AcDbBlockBegin
  2
*Dimension013
 70
   1
 10
0
 20
0
 30
0
  3
*Dimension013
  1
 
  0
LINE
  5
A88
330
A86
100
AcDbEntity
  8
Dimension013
100
AcDbLine
 10
344.208
 20
100.412
 30
0
 11
344.208
 21
97.9124
 31
0
  0
LINE
  5
A89
330
A86
100
AcDbEntity
  8
Dimension013
100
AcDbLine
 10
301.781
 20
100.412
 30
0
 11
301.781
 21
97.9124
 31
0
  0
LINE
  5
A8A
330
A86
100
AcDbEntity
  8
Dimension013
100
AcDbLine
 10
301.781
 20
97.9124
 30
0
 11
344.208
 21
97.9124
 31
0
  0
TEXT
  5
A8B
330
A86
100
AcDbEntity
  8
Dimension013
100
AcDbText
 10
322.994
 20
102.912
 30
0
 40
3.5
  1
42.43
  7
STANDARD
 72
1
 11
322.994
 21
97.9124
 31
0
100
AcDbText
  0
SOLID
  5
A8C
330
A86
100
AcDbEntity
  8
0
 62
     0
100
AcDbTrace
 10
306.781
 20
98.3291
 30
0
 11
306.781
 21
97.4957
 31
0
 12
301.781
 22
97.9124
 32
0
 13
301.781
 23
97.9124
 33
0
  0
SOLID
  5
A8D
330
A86
100
AcDbEntity
  8
0
 62
     0
100
AcDbTrace
 10
339.208
 20
98.3291
 30
0
 11
339.208
 21
97.4957
 31
0
 12
344.208
 22
97.9124
 32
0
 13
344.208
 23
97.9124
 33
0
  0
ENDBLK
  5
A8E
330
A86
100
AcDbEntity
  8
Dimension013
100
AcDbBlockEnd
  0
ENDSEC
  0
SECTION
  2
ENTITIES
  0
LINE
  5
A08
330
A02
100
AcDbEntity
  8
View001
100
AcDbLine
 10
58.1454
 20
52.4124
 30
0
 11
58.1454
 21
77.4124
 31
0
  0
LINE
  5
A09
330
A02
100
AcDbEntity
  8
View001
100
AcDbLine
 10
58.1454
 20
77.4124
 30
0
 11
88.1454
 21
77.4124
 31
0
  0
LINE
  5
A0A
330
A02
100
AcDbEntity
  8
View001
100
AcDbLine
 10
88.1454
 20
52.4124
 30
0
 11
88.1454
 21
77.4124
 31
0
  0
LINE
  5
A0B
330
A02
100
AcDbEntity
  8
View001
100
AcDbLine
 10
58.1454
 20
52.4124
 30
0
 11
88.1454
 21
52.4124
 31
0
  0
LINE
  5
A0C
330
A02
100
AcDbEntity
  8
View001
100
AcDbLine
 10
55.1454
 20
41.4124
 30
0
 11
55.1454
 21
51.4124
 31
0
  0
LINE
  5
A0D
330
A02
100
AcDbEntity
  8
View001
100
AcDbLine
 10
55.1454
 20
51.4124
 30
0
 11
370.145
 21
51.4124
 31
0
  0
LINE
  5
A0E
330
A02
100
AcDbEntity
  8
View001
100
AcDbLine
 10
370.145
 20
41.4124
 30
0
 11
370.145
 21
51.4124
 31
0
  0
LINE
  5
A0F
330
A02
100
AcDbEntity
  8
View001
100
AcDbLine
 10
55.1454
 20
41.4124
 30
0
 11
370.145
 21
41.4124
 31
0
  0
LINE
  5
A10
330
A02
100
AcDbEntity
  8
View001
100
AcDbLine
 10
330.145
 20
52.4124
 30
0
 11
330.145
 21
77.4124
 31
0
  0
LINE
  5
A11
330
A02
100
AcDbEntity
  8
View001
100
AcDbLine
 10
330.145
 20
77.4124
 30
0
 11
360.145
 21
77.4124
 31
0
  0
LINE
  5
A12
330
A02
100
AcDbEntity
  8
View001
100
AcDbLine
 10
360.145
 20
52.4124
 30
0
 11
360.145
 21
77.4124
 31
0
  0
LINE
  5
A13
330
A02
100
AcDbEntity
  8
View001
100
AcDbLine
 10
330.145
 20
52.4124
 30
0
 11
360.145
 21
52.4124
 31
0
  0
LINE
  5
A14
330
A02
100
AcDbEntity
  8
View001
100
AcDbLine
 10
194.145
 20
100.412
 30
0
 11
194.145
 21
393.412
 31
0
  0
SPLINE
  5
A15
330
A02
100
AcDbEntity
  8
View001
100
AcDbSpline
210
0
220
0
230
1
 70
8
 71
1
 72
17
 73
15
 74
0
 40
3.14159
 40
3.14159
 40
3.25379
 40
3.36599
 40
3.47819
 40
3.59039
 40
3.70259
 40
3.81479
 40
3.92699
 40
4.03919
 40
4.15139
 40
4.26359
 40
4.37579
 40
4.48799
 40
4.60019
 40
4.71239
 40
4.71239
 10
194.145
 20
393.412
 30
0
 10
194.158
 20
393.636
 30
0
 10
194.196
 20
393.857
 30
0
 10
194.258
 20
394.073
 30
0
 10
194.344
 20
394.28
 30
0
 10
194.452
 20
394.476
 30
0
 10
194.582
 20
394.659
 30
0
 10
194.731
 20
394.827
 30
0
 10
194.898
 20
394.976
 30
0
 10
195.081
 20
395.106
 30
0
 10
195.278
 20
395.214
 30
0
 10
195.485
 20
395.3
 30
0
 10
195.7
 20
395.362
 30
0
 10
195.922
 20
395.4
 30
0
 10
196.145
 20
395.412
 30
0
  0
SPLINE
  5
A16
330
A02
100
AcDbEntity
  8
View001
100
AcDbSpline
210
0
220
0
230
1
 70
8
 71
1
 72
17
 73
15
 74
0
 40
0
 40
0
 40
0.1122
 40
0.224399
 40
0.336599
 40
0.448799
 40
0.560999
 40
0.673198
 40
0.785398
 40
0.897598
 40
1.0098
 40
1.122
 40
1.2342
 40
1.3464
 40
1.4586
 40
1.5708
 40
1.5708
 10
224.145
 20
393.412
 30
0
 10
224.133
 20
393.636
 30
0
 10
224.095
 20
393.857
 30
0
 10
224.033
 20
394.073
 30
0
 10
223.947
 20
394.28
 30
0
 10
223.839
 20
394.476
 30
0
 10
223.709
 20
394.659
 30
0
 10
223.56
 20
394.827
 30
0
 10
223.392
 20
394.976
 30
0
 10
223.21
 20
395.106
 30
0
 10
223.013
 20
395.214
 30
0
 10
222.806
 20
395.3
 30
0
 10
222.59
 20
395.362
 30
0
 10
222.369
 20
395.4
 30
0
 10
222.145
 20
395.412
 30
0
  0
LINE
  5
A17
330
A02
100
AcDbEntity
  8
View001
100
AcDbLine
 10
224.145
 20
100.412
 30
0
 11
224.145
 21
178.048
 31
0
  0
LINE
  5
A18
330
A02
100
AcDbEntity
  8
View001
100
AcDbLine
 10
224.145
 20
220.475
 30
0
 11
224.145
 21
393.412
 31
0
  0
SPLINE
  5
A19
330
A02
100
AcDbEntity
  8
View001
100
AcDbSpline
210
0
220
0
230
1
 70
8
 71
1
 72
17
 73
15
 74
0
 40
3.14159
 40
3.14159
 40
3.25379
 40
3.36599
 40
3.47819
 40
3.59039
 40
3.70259
 40
3.81479
 40
3.92699
 40
4.03919
 40
4.15139
 40
4.26359
 40
4.37579
 40
4.48799
 40
4.60019
 40
4.71239
 40
4.71239
 10
194.145
 20
393.412
 30
0
 10
194.158
 20
393.636
 30
0
 10
194.196
 20
393.857
 30
0
 10
194.258
 20
394.073
 30
0
 10
194.344
 20
394.28
 30
0
 10
194.452
 20
394.476
 30
0
 10
194.582
 20
394.659
 30
0
 10
194.731
 20
394.827
 30
0
 10
194.898
 20
394.976
 30
0
 10
195.081
 20
395.106
 30
0
 10
195.278
 20
395.214
 30
0
 10
195.485
 20
395.3
 30
0
 10
195.7
 20
395.362
 30
0
 10
195.922
 20
395.4
 30
0
 10
196.145
 20
395.412
 30
0
  0
LINE
  5
A1A
330
A02
100
AcDbEntity
  8
View001
100
AcDbLine
 10
196.145
 20
395.412
 30
0
 11
222.145
 21
395.412
 31
0
  0
SPLINE
  5
A1B
330
A02
100
AcDbEntity
  8
View001
100
AcDbSpline
210
0
220
0
230
1
 70
8
 71
1
 72
17
 73
15
 74
0
 40
0
 40
0
 40
0.1122
 40
0.224399
 40
0.336599
 40
0.448799
 40
0.560999
 40
0.673198
 40
0.785398
 40
0.897598
 40
1.0098
 40
1.122
 40
1.2342
 40
1.3464
 40
1.4586
 40
1.5708
 40
1.5708
 10
224.145
 20
393.412
 30
0
 10
224.133
 20
393.636
 30
0
 10
224.095
 20
393.857
 30
0
 10
224.033
 20
394.073
 30
0
 10
223.947
 20
394.28
 30
0
 10
223.839
 20
394.476
 30
0
 10
223.709
 20
394.659
 30
0
 10
223.56
 20
394.827
 30
0
 10
223.392
 20
394.976
 30
0
 10
223.21
 20
395.106
 30
0
 10
223.013
 20
395.214
 30
0
 10
222.806
 20
395.3
 30
0
 10
222.59
 20
395.362
 30
0
 10
222.369
 20
395.4
 30
0
 10
222.145
 20
395.412
 30
0
  0
LINE
  5
A1C
330
A02
100
AcDbEntity
  8
View001
100
AcDbLine
 10
344.208
 20
100.412
 30
0
 11
224.023
 21
220.597
 31
0
  0
LINE
  5
A1D
330
A02
100
AcDbEntity
  8
View001
100
AcDbLine
 10
301.781
 20
100.412
 30
0
 11
223.316
 21
178.878
 31
0
  0
LINE
  5
A1E
330
A02
100
AcDbEntity
  8
View001
100
AcDbLine
 10
224.023
 20
220.597
 30
0
 11
223.316
 21
219.89
 31
0
  0
LINE
  5
A1F
330
A02
100
AcDbEntity
  8
View001
100
AcDbLine
 10
223.316
 20
219.89
 30
0
 11
223.316
 21
178.878
 31
0
  0
LINE
  5
A20
330
A02
100
AcDbEntity
  8
View001
100
AcDbLine
 10
58.1454
 20
77.4124
 30
0
 11
58.1454
 21
100.412
 31
0
  0
LINE
  5
A21
330
A02
100
AcDbEntity
  8
View001
100
AcDbLine
 10
58.1454
 20
100.412
 30
0
 11
358.145
 21
100.412
 31
0
  0
LINE
  5
A22
330
A02
100
AcDbEntity
  8
View001
100
AcDbLine
 10
358.145
 20
77.4124
 30
0
 11
358.145
 21
100.412
 31
0
  0
LINE
  5
A23
330
A02
100
AcDbEntity
  8
View001
100
AcDbLine
 10
88.1454
 20
75.4124
 30
0
 11
330.145
 21
75.4124
 31
0
  0
LINE
  5
A24
330
A02
100
AcDbEntity
  8
View001
100
AcDbLine
 10
194.145
 20
393.412
 30
0
 11
194.145
 21
395.412
 31
0
  0
SPLINE
  5
A25
330
A02
100
AcDbEntity
  8
View001
100
AcDbSpline
210
0
220
0
230
1
 70
8
 71
1
 72
17
 73
15
 74
0
 40
3.14159
 40
3.14159
 40
3.25379
 40
3.36599
 40
3.47819
 40
3.59039
 40
3.70259
 40
3.81479
 40
3.92699
 40
4.03919
 40
4.15139
 40
4.26359
 40
4.37579
 40
4.48799
 40
4.60019
 40
4.71239
 40
4.71239
 10
194.145
 20
395.412
 30
0
 10
194.158
 20
395.636
 30
0
 10
194.196
 20
395.857
 30
0
 10
194.258
 20
396.073
 30
0
 10
194.344
 20
396.28
 30
0
 10
194.452
 20
396.476
 30
0
 10
194.582
 20
396.659
 30
0
 10
194.731
 20
396.827
 30
0
 10
194.898
 20
396.976
 30
0
 10
195.081
 20
397.106
 30
0
 10
195.278
 20
397.214
 30
0
 10
195.485
 20
397.3
 30
0
 10
195.7
 20
397.362
 30
0
 10
195.922
 20
397.4
 30
0
 10
196.145
 20
397.412
 30
0
  0
SPLINE
  5
A26
330
A02
100
AcDbEntity
  8
View001
100
AcDbSpline
210
0
220
0
230
1
 70
8
 71
1
 72
17
 73
15
 74
0
 40
0
 40
0
 40
0.1122
 40
0.224399
 40
0.336599
 40
0.448799
 40
0.560999
 40
0.673198
 40
0.785398
 40
0.897598
 40
1.0098
 40
1.122
 40
1.2342
 40
1.3464
 40
1.4586
 40
1.5708
 40
1.5708
 10
224.145
 20
395.412
 30
0
 10
224.133
 20
395.636
 30
0
 10
224.095
 20
395.857
 30
0
 10
224.033
 20
396.073
 30
0
 10
223.947
 20
396.28
 30
0
 10
223.839
 20
396.476
 30
0
 10
223.709
 20
396.659
 30
0
 10
223.56
 20
396.827
 30
0
 10
223.392
 20
396.976
 30
0
 10
223.21
 20
397.106
 30
0
 10
223.013
 20
397.214
 30
0
 10
222.806
 20
397.3
 30
0
 10
222.59
 20
397.362
 30
0
 10
222.369
 20
397.4
 30
0
 10
222.145
 20
397.412
 30
0
  0
LINE
  5
A27
330
A02
100
AcDbEntity
  8
View001
100
AcDbLine
 10
224.145
 20
393.412
 30
0
 11
224.145
 21
395.412
 31
0
  0
SPLINE
  5
A28
330
A02
100
AcDbEntity
  8
View001
100
AcDbSpline
210
0
220
0
230
1
 70
8
 71
1
 72
17
 73
15
 74
0
 40
3.14159
 40
3.14159
 40
3.25379
 40
3.36599
 40
3.47819
 40
3.59039
 40
3.70259
 40
3.81479
 40
3.92699
 40
4.03919
 40
4.15139
 40
4.26359
 40
4.37579
 40
4.48799
 40
4.60019
 40
4.71239
 40
4.71239
 10
194.145
 20
395.412
 30
0
 10
194.158
 20
395.636
 30
0
 10
194.196
 20
395.857
 30
0
 10
194.258
 20
396.073
 30
0
 10
194.344
 20
396.28
 30
0
 10
194.452
 20
396.476
 30
0
 10
194.582
 20
396.659
 30
0
 10
194.731
 20
396.827
 30
0
 10
194.898
 20
396.976
 30
0
 10
195.081
 20
397.106
 30
0
 10
195.278
 20
397.214
 30
0
 10
195.485
 20
397.3
 30
0
 10
195.7
 20
397.362
 30
0
 10
195.922
 20
397.4
 30
0
 10
196.145
 20
397.412
 30
0
  0
LINE
  5
A29
330
A02
100
AcDbEntity
  8
View001
100
AcDbLine
 10
196.145
 20
397.412
 30
0
 11
222.145
 21
397.412
 31
0
  0
SPLINE
  5
A2A
330
A02
100
AcDbEntity
  8
View001
100
AcDbSpline
210
0
220
0
230
1
 70
8
 71
1
 72
17
 73
15
 74
0
 40
0
 40
0
 40
0.1122
 40
0.224399
 40
0.336599
 40
0.448799
 40
0.560999
 40
0.673198
 40
0.785398
 40
0.897598
 40
1.0098
 40
1.122
 40
1.2342
 40
1.3464
 40
1.4586
 40
1.5708
 40
1.5708
 10
224.145
 20
395.412
 30
0
 10
224.133
 20
395.636
 30
0
 10
224.095
 20
395.857
 30
0
 10
224.033
 20
396.073
 30
0
 10
223.947
 20
396.28
 30
0
 10
223.839
 20
396.476
 30
0
 10
223.709
 20
396.659
 30
0
 10
223.56
 20
396.827
 30
0
 10
223.392
 20
396.976
 30
0
 10
223.21
 20
397.106
 30
0
 10
223.013
 20
397.214
 30
0
 10
222.806
 20
397.3
 30
0
 10
222.59
 20
397.362
 30
0
 10
222.369
 20
397.4
 30
0
 10
222.145
 20
397.412
 30
0
  0
LINE
  5
A2B
330
A02
100
AcDbEntity
  8
View001
100
AcDbLine
 10
159.909
 20
73.1279
 30
0
 11
157.625
 21
75.4124
 31
0
  0
LINE
  5
A2C
330
A02
100
AcDbEntity
  8
View001
100
AcDbLine
 10
177.294
 20
100.412
 30
0
 11
194.145
 21
117.264
 31
0
  0
LINE
  5
A2D
330
A02
100
AcDbEntity
  8
View001
100
AcDbLine
 10
224.145
 20
147.264
 30
0
 11
239.538
 21
162.656
 31
0
  0
LINE
  5
A2E
330
A02
100
AcDbEntity
  8
View001
100
AcDbLine
 10
260.751
 20
183.869
 30
0
 11
296.381
 21
219.499
 31
0
  0
LINE
  5
A2F
330
A02
100
AcDbEntity
  8
View001
100
AcDbLine
 10
301.331
 20
214.549
 30
0
 11
296.381
 21
219.499
 31
0
  0
LINE
  5
A30
330
A02
100
AcDbEntity
  8
View001
100
AcDbLine
 10
159.909
 20
73.1279
 30
0
 11
162.194
 21
75.4124
 31
0
  0
LINE
  5
A31
330
A02
100
AcDbEntity
  8
View001
100
AcDbLine
 10
187.194
 20
100.412
 30
0
 11
194.145
 21
107.364
 31
0
  0
LINE
  5
A32
330
A02
100
AcDbEntity
  8
View001
100
AcDbLine
 10
224.145
 20
137.364
 30
0
 11
244.487
 21
157.706
 31
0
  0
LINE
  5
A33
330
A02
100
AcDbEntity
  8
View001
100
AcDbLine
 10
265.701
 20
178.919
 30
0
 11
301.331
 21
214.549
 31
0
  0
SPLINE
  5
A34
330
A02
100
AcDbEntity
  8
View001
100
AcDbSpline
210
0
220
0
230
1
 70
8
 71
3
 72
50
 73
46
 74
0
 40
4.87344
 40
4.87344
 40
4.87344
 40
4.87344
 40
5.04966
 40
5.04966
 40
5.04966
 40
5.22588
 40
5.22588
 40
5.22588
 40
5.4021
 40
5.4021
 40
5.4021
 40
5.57831
 40
5.57831
 40
5.57831
 40
5.93075
 40
5.93075
 40
5.93075
 40
6.10697
 40
6.10697
 40
6.10697
 40
6.28319
 40
6.28319
 40
6.28319
 40
6.47953
 40
6.47953
 40
6.47953
 40
6.67588
 40
6.67588
 40
6.67588
 40
6.87223
 40
6.87223
 40
6.87223
 40
7.06858
 40
7.06858
 40
7.06858
 40
7.26493
 40
7.26493
 40
7.26493
 40
7.46128
 40
7.46128
 40
7.46128
 40
7.65763
 40
7.65763
 40
7.65763
 40
7.85398
 40
7.85398
 40
7.85398
 40
7.85398
 10
296.381
 20
219.499
 30
0
 10
296.909
 20
220.027
 30
0
 10
297.75
 20
220.868
 30
0
 10
298.929
 20
222.047
 30
0
 10
300.108
 20
223.226
 30
0
 10
301.625
 20
224.744
 30
0
 10
303.481
 20
226.599
 30
0
 10
305.334
 20
228.452
 30
0
 10
307.524
 20
230.642
 30
0
 10
310.011
 20
233.13
 30
0
 10
312.498
 20
235.616
 30
0
 10
315.281
 20
238.399
 30
0
 10
318.291
 20
241.409
 30
0
 10
324.307
 20
247.425
 30
0
 10
331.23
 20
254.348
 30
0
 10
338.306
 20
261.424
 30
0
 10
341.843
 20
264.962
 30
0
 10
345.418
 20
268.536
 30
0
 10
348.943
 20
272.062
 30
0
 10
352.47
 20
275.588
 30
0
 10
355.948
 20
279.066
 30
0
 10
359.313
 20
282.431
 30
0
 10
363.063
 20
286.181
 30
0
 10
366.953
 20
290.071
 30
0
 10
370.893
 20
294.012
 30
0
 10
374.833
 20
297.951
 30
0
 10
378.821
 20
301.94
 30
0
 10
382.739
 20
305.857
 30
0
 10
386.656
 20
309.774
 30
0
 10
390.499
 20
313.618
 30
0
 10
394.138
 20
317.256
 30
0
 10
397.776
 20
320.894
 30
0
 10
401.207
 20
324.325
 30
0
 10
404.313
 20
327.431
 30
0
 10
407.421
 20
330.539
 30
0
 10
410.202
 20
333.32
 30
0
 10
412.579
 20
335.698
 30
0
 10
414.959
 20
338.077
 30
0
 10
416.935
 20
340.053
 30
0
 10
418.485
 20
341.603
 30
0
 10
420.036
 20
343.154
 30
0
 10
421.162
 20
344.28
 30
0
 10
421.89
 20
345.009
 30
0
 10
422.62
 20
345.738
 30
0
 10
422.953
 20
346.072
 30
0
 10
422.953
 20
346.071
 30
0
  0
LINE
  5
A35
330
A02
100
AcDbEntity
  8
View001
100
AcDbLine
 10
283.357
 20
206.937
 30
0
 11
283.188
 21
206.306
 31
0
  0
LINE
  5
A36
330
A02
100
AcDbEntity
  8
View001
100
AcDbLine
 10
282.905
 20
206.023
 30
0
 11
224.145
 21
221.767
 31
0
  0
LINE
  5
A37
330
A02
100
AcDbEntity
  8
View001
100
AcDbLine
 10
283.357
 20
206.937
 30
0
 11
224.145
 21
222.803
 31
0
  0
LINE
  5
A38
330
A02
100
AcDbEntity
  8
View001
100
AcDbLine
 10
294.795
 20
217.07
 30
0
 11
299.038
 21
221.313
 31
0
  0
LINE
  5
A39
330
A02
100
AcDbEntity
  8
View001
100
AcDbLine
 10
298.532
 20
221.65
 30
0
 11
290.552
 21
226.97
 31
0
  0
LINE
  5
A3A
330
A02
100
AcDbEntity
  8
View001
100
AcDbLine
 10
288.431
 20
224.849
 30
0
 11
290.552
 21
226.97
 31
0
  0
LINE
  5
A3B
330
A02
100
AcDbEntity
  8
View001
100
AcDbLine
 10
294.416
 20
217.534
 30
0
 11
288.431
 21
224.849
 31
0
  0
SPLINE
  5
A3C
330
A02
100
AcDbEntity
  8
View001
100
AcDbSpline
210
0
220
0
230
1
 70
8
 71
3
 72
56
 73
52
 74
0
 40
0.0434008
 40
0.0434008
 40
0.0434008
 40
0.0434008
 40
0.0931289
 40
0.0931289
 40
0.0931289
 40
0.142857
 40
0.142857
 40
0.142857
 40
0.214286
 40
0.214286
 40
0.214286
 40
0.285714
 40
0.285714
 40
0.285714
 40
0.357143
 40
0.357143
 40
0.357143
 40
0.428571
 40
0.428571
 40
0.428571
 40
0.5
 40
0.5
 40
0.5
 40
0.571429
 40
0.571429
 40
0.571429
 40
0.642857
 40
0.642857
 40
0.642857
 40
0.678571
 40
0.678571
 40
0.678571
 40
0.714286
 40
0.714286
 40
0.714286
 40
0.785714
 40
0.785714
 40
0.785714
 40
0.857143
 40
0.857143
 40
0.857143
 40
0.892857
 40
0.892857
 40
0.892857
 40
0.928571
 40
0.928571
 40
0.928571
 40
0.964286
 40
0.964286
 40
0.964286
 40
1
 40
1
 40
1
 40
1
 10
298.481
 20
217.399
 30
0
 10
299.678
 20
217.17
 30
0
 10
300.929
 20
217.211
 30
0
 10
302.133
 20
217.37
 30
0
 10
303.342
 20
217.532
 30
0
 10
304.504
 20
217.812
 30
0
 10
305.694
 20
218.154
 30
0
 10
307.676
 20
218.739
 30
0
 10
309.601
 20
219.498
 30
0
 10
311.485
 20
220.343
 30
0
 10
313.369
 20
221.189
 30
0
 10
315.213
 20
222.122
 30
0
 10
317.026
 20
223.11
 30
0
 10
321.924
 20
225.79
 30
0
 10
326.614
 20
228.83
 30
0
 10
331.18
 20
232.039
 30
0
 10
335.744
 20
235.254
 30
0
 10
340.184
 20
238.638
 30
0
 10
344.527
 20
242.146
 30
0
 10
349.518
 20
246.176
 30
0
 10
354.383
 20
250.361
 30
0
 10
359.14
 20
254.664
 30
0
 10
363.897
 20
258.97
 30
0
 10
368.546
 20
263.39
 30
0
 10
373.087
 20
267.922
 30
0
 10
381.147
 20
275.97
 30
0
 10
388.882
 20
284.33
 30
0
 10
396.188
 20
293.068
 30
0
 10
399.839
 20
297.438
 30
0
 10
403.382
 20
301.899
 30
0
 10
406.763
 20
306.479
 30
0
 10
410.141
 20
311.06
 30
0
 10
413.36
 20
315.758
 30
0
 10
416.297
 20
320.64
 30
0
 10
417.607
 20
322.824
 30
0
 10
418.853
 20
325.047
 30
0
 10
420
 20
327.321
 30
0
 10
421.145
 20
329.596
 30
0
 10
422.193
 20
331.923
 30
0
 10
423.036
 20
334.327
 30
0
 10
423.381
 20
335.323
 30
0
 10
423.677
 20
336.285
 30
0
 10
423.922
 20
337.272
 30
0
 10
424.165
 20
338.258
 30
0
 10
424.358
 20
339.269
 30
0
 10
424.45
 20
340.3
 30
0
 10
424.541
 20
341.329
 30
0
 10
424.532
 20
342.378
 30
0
 10
424.325
 20
343.376
 30
0
 10
424.115
 20
344.372
 30
0
 10
423.707
 20
345.316
 30
0
 10
422.953
 20
346.071
 30
0
  0
LINE
  5
A3D
330
A02
100
AcDbEntity
  8
View001
100
AcDbLine
 10
194.145
 20
393.412
 30
0
 11
224.145
 21
393.412
 31
0
  0
LINE
  5
A3E
330
A02
100
AcDbEntity
  8
View001
100
AcDbLine
 10
194.145
 20
395.412
 30
0
 11
224.145
 21
395.412
 31
0
  0
DIMENSION
  5
A3F
330
A02
100
AcDbEntity
  8
Dimension006
100
AcDbDimension
  2
*Dimension006
 10
199.145
 20
249.412
 30
0
 11
194.145
 21
249.412
 31
0
 70
1
  1
293
  3
STANDARD
100
AcDbAlignedDimension
 13
194.145
 23
393.412
 33
0
 14
194.145
 24
100.412
 34
0
  0
DIMENSION
  5
A49
330
A02
100
AcDbEntity
  8
Dimension007
100
AcDbDimension
  2
*Dimension007
 10
73.1454
 20
74.9124
 30
0
 11
73.1454
 21
79.9124
 31
0
 70
1
  1
30
  3
STANDARD
100
AcDbAlignedDimension
 13
58.1454
 23
77.4124
 33
0
 14
88.1454
 24
77.4124
 34
0
  0
DIMENSION
  5
A53
330
A02
100
AcDbEntity
  8
Dimension008
100
AcDbDimension
  2
*Dimension008
 10
353.145
 20
91.4124
 30
0
 11
358.145
 21
91.4124
 31
0
 70
1
  1
23
  3
STANDARD
100
AcDbAlignedDimension
 13
358.145
 23
77.4124
 33
0
 14
358.145
 24
100.412
 34
0
  0
DIMENSION
  5
A5D
330
A02
100
AcDbEntity
  8
Dimension009
100
AcDbDimension
  2
*Dimension009
 10
212.645
 20
48.9124
 30
0
 11
212.645
 21
43.9124
 31
0
 70
1
  1
315
  3
STANDARD
100
AcDbAlignedDimension
 13
370.145
 23
41.4124
 33
0
 14
55.1454
 24
41.4124
 34
0
  0
DIMENSION
  5
A67
330
A02
100
AcDbEntity
  8
Dimension010
100
AcDbDimension
  2
*Dimension010
 10
375.145
 20
48.9124
 30
0
 11
370.145
 21
48.9124
 31
0
 70
1
  1
10
  3
STANDARD
100
AcDbAlignedDimension
 13
370.145
 23
51.4124
 33
0
 14
370.145
 24
41.4124
 34
0
  0
DIMENSION
  5
A71
330
A02
100
AcDbEntity
  8
Dimension011
100
AcDbDimension
  2
*Dimension011
 10
254.898
 20
212.105
 30
0
 11
253.525
 21
216.913
 31
0
 70
1
  1
61.11
  3
STANDARD
100
AcDbAlignedDimension
 13
224.145
 23
222.803
 33
0
 14
282.905
 24
206.023
 34
0
  0
DIMENSION
  5
A7B
330
A02
100
AcDbEntity
  8
Dimension012
100
AcDbDimension
  2
*Dimension012
 10
208.145
 20
97.9124
 30
0
 11
208.145
 21
102.912
 31
0
 70
1
  1
300
  3
STANDARD
100
AcDbAlignedDimension
 13
58.1454
 23
100.412
 33
0
 14
358.145
 24
100.412
 34
0
  0
DIMENSION
  5
A85
330
A02
100
AcDbEntity
  8
Dimension013
100
AcDbDimension
  2
*Dimension013
 10
322.994
 20
97.9124
 30
0
 11
322.994
 21
102.912
 31
0
 70
1
  1
42.43
  3
STANDARD
100
AcDbAlignedDimension
 13
301.781
 23
100.412
 33
0
 14
344.208
 24
100.412
 34
0
  0
ENDSEC
  0
SECTION
  2
OBJECTS
  0
DICTIONARY
  5
F000
330
0
100
AcDbDictionary
  3
ACAD_GROUP
350
F001
  0
DICTIONARY
  5
F001
330
F000
100
AcDbDictionary
  0
ENDSEC
  0
EOF