999
FreeCAD v0.20 29410 (Git)
  0
SECTION
  2
HEADER
  9
$ACADVER
  1
AC1014
  9
$ACADMAINTVER
 70
     9
  9
$DWGCODEPAGE
  3
ANSI_1252
  9
$TEXTSTYLE
  7
STANDARD
  9
$DIMSTYLE
  2
STANDARD
  9
$DIMTXSTY
  7
STANDARD
  9
$CMLSTYLE
  2
STANDARD
  9
$LUNITS
 70
2
  9
$INSUNITS
 70
4
  9
$PEXTMAX
 10
50
 20
50
 30
50
  9
$PEXTMIN
 10
0
 20
0
 30
0
  9
$HANDSEED
  5
FFFF
  0
ENDSEC
  0
SECTION
  2
CLASSES
  0
CLASS
  1
ACDBDICTIONARYWDFLT
  2
AcDbDictionaryWithDefault
  3
ObjectDBX Classes
 90
        0
280
     0
281
     0
  0
CLASS
  1
XRECORD
  2
AcDbXrecord
  3
ObjectDBX Classes
 90
        0
280
     0
281
     0
  0
CLASS
  1
LWPOLYLINE
  2
AcDbPolyline
  3
ObjectDBX Classes
 90
        0
280
     0
281
     1
  0
ENDSEC
  0
SECTION
  2
TABLES
  0
TABLE
  2
VPORT
  5
20
330
0
100
AcDbSymbolTable
 70
     1
  0
VPORT
  5
21
330
20
100
AcDbSymbolTableRecord
100
AcDbViewportTableRecord
  2
*ACTIVE
 70
     0
  0
ENDTAB
  0
TABLE
  2
LTYPE
  5
22
330
0
100
AcDbSymbolTable
 70
     1
  0
LTYPE
  5
23
330
21
100
AcDbSymbolTableRecord
100
AcDbLinetypeTableRecord
  2
BYBLOCK
 70
     0
  3

 72
    65
 73
     0
 40
0.0
  0
LTYPE
  5
24
330
21
100
AcDbSymbolTableRecord
100
AcDbLinetypeTableRecord
  2
BYLAYER
 70
     0
  3

 72
    65
 73
     0
 40
0.0
  0
LTYPE
  5
25
330
21
100
AcDbSymbolTableRecord
100
AcDbLinetypeTableRecord
  2
CONTINUOUS
 70
     0
  3
Solid line
 72
    65
 73
     0
 40
0.0
  0
ENDTAB
  0
TABLE
  2
LAYER
  5
AA0
330
0
100
AcDbSymbolTable
 70
8
  0
LAYER
  5
AA1
330
AA0
100
AcDbSymbolTableRecord
100
AcDbLayerTableRecord
  2
0
 70
   0
 62
   7
  6
CONTINUOUS
  0
LAYER
  5
AA2
330
AA0
100
AcDbSymbolTableRecord
100
AcDbLayerTableRecord
  2
View
 70
    0
 62
    7
  6
CONTINUOUS
  0
LAYER
  5
AA3
330
AA0
100
AcDbSymbolTableRecord
100
AcDbLayerTableRecord
  2
Dimension
 70
    0
 62
    7
  6
CONTINUOUS
  0
LAYER
  5
AA4
330
AA0
100
AcDbSymbolTableRecord
100
AcDbLayerTableRecord
  2
Dimension001
 70
    0
 62
    7
  6
CONTINUOUS
  0
LAYER
  5
AA5
330
AA0
100
AcDbSymbolTableRecord
100
AcDbLayerTableRecord
  2
Dimension002
 70
    0
 62
    7
  6
CONTINUOUS
  0
LAYER
  5
AA6
330
AA0
100
AcDbSymbolTableRecord
100
AcDbLayerTableRecord
  2
Dimension003
 70
    0
 62
    7
  6
CONTINUOUS
  0
LAYER
  5
AA7
330
AA0
100
AcDbSymbolTableRecord
100
AcDbLayerTableRecord
  2
Dimension004
 70
    0
 62
    7
  6
CONTINUOUS
  0
LAYER
  5
AA8
330
AA0
100
AcDbSymbolTableRecord
100
AcDbLayerTableRecord
  2
Dimension005
 70
    0
 62
    7
  6
CONTINUOUS
  0
ENDTAB
  0
TABLE
  2
STYLE
  5
70
330
0
100
AcDbSymbolTable
 70
     2
  0
STYLE
  5
71
330
70
100
AcDbSymbolTableRecord
100
AcDbTextStyleTableRecord
  2
STANDARD
 70
     0
 40
0.0
 41
1.0
 50
0.0
 71
     0
 42
2.5
  3
arial.ttf
  4

  0
STYLE
  5
72
330
70
100
AcDbSymbolTableRecord
100
AcDbTextStyleTableRecord
  2
ANNOTATIVE
 70
     0
 40
0.0
 41
1.0
 50
0.0
 71
     0
 42
2.5
  3
arial.ttf
  4

  0
ENDTAB
  0
TABLE
  2
VIEW
  5
73
330
0
100
AcDbSymbolTable
 70
     0
  0
ENDTAB
  0
TABLE
  2
UCS
  5
74
330
0
100
AcDbSymbolTable
 70
     0
  0
ENDTAB
  0
TABLE
  2
APPID
  5
75
330
0
100
AcDbSymbolTable
 70
     2
  0
APPID
  5
76
330
75
100
AcDbSymbolTableRecord
100
AcDbRegAppTableRecord
  2
ACAD
 70
     0
  0
APPID
  5
77
330
75
100
AcDbSymbolTableRecord
100
AcDbRegAppTableRecord
  2
ACADANNOTATIVE
 70
     0
  0
ENDTAB
  0
TABLE
  2
DIMSTYLE
  5
78
330
0
100
AcDbSymbolTable
 70
     2
  0
DIMSTYLE
105
79
330
78
100
AcDbSymbolTableRecord
100
AcDbDimStyleTableRecord
  2
STANDARD
 70
     0
  3

  4

  5

  6

  7

 40
0.0
 41
2.5
 42
0.625
 43
3.75
 44
1.25
 45
0.0
 46
0.0
 47
0.0
 48
0.0
140
2.5
141
2.5
142
0.0
143
0.03937007874016
144
1.0
145
0.0
146
1.0
147
0.625
 71
     0
 72
     0
 73
     0
 74
     0
 75
     0
 76
     0
 77
     1
 78
     8
170
     0
171
     3
172
     1
173
     0
174
     0
175
     0
176
     0
177
     0
178
     0
270
     2
271
     2
272
     2
273
     2
274
     3
340
71
275
     0
280
     0
281
     0
282
     0
283
     0
284
     8
285
     0
286
     0
287
     3
288
     0
  0
ENDTAB
  0
TABLE
  2
BLOCK_RECORD
  5
A01
330
0
100
AcDbSymbolTable
  70
5
  0
BLOCK_RECORD
  5
A02
330
A01
100
AcDbSymbolTableRecord
100
AcDbBlockTableRecord
  2
*MODEL_SPACE
  0
BLOCK_RECORD
  5
A03
330
A01
100
AcDbSymbolTableRecord
100
AcDbBlockTableRecord
  2
*PAPER_SPACE
  0
BLOCK_RECORD
  5
A65
330
A01
100
AcDbSymbolTableRecord
100
AcDbBlockTableRecord
  2
*Dimension
  0
BLOCK_RECORD
  5
A6F
330
A01
100
AcDbSymbolTableRecord
100
AcDbBlockTableRecord
  2
*Dimension001
  0
BLOCK_RECORD
  5
A79
330
A01
100
AcDbSymbolTableRecord
100
AcDbBlockTableRecord
  2
*Dimension002
  0
BLOCK_RECORD
  5
A83
330
A01
100
AcDbSymbolTableRecord
100
AcDbBlockTableRecord
  2
*Dimension003
  0
BLOCK_RECORD
  5
A8D
330
A01
100
AcDbSymbolTableRecord
100
AcDbBlockTableRecord
  2
*Dimension004
  0
BLOCK_RECORD
  5
A97
330
A01
100
AcDbSymbolTableRecord
100
AcDbBlockTableRecord
  2
*Dimension005
  0
ENDTAB
  0
ENDSEC
  0
SECTION
  2
BLOCKS
  0
BLOCK
  5
A04
330
A02
100
AcDbEntity
  8
0
100
AcDbBlockBegin
  2
*MODEL_SPACE
 70
   0
 10
0
 20
0
 30
0
  3
*MODEL_SPACE
  1
 
  0
ENDBLK
  5
A05
330
A02
100
AcDbEntity
  8
0
100
AcDbBlockEnd
  0
BLOCK
  5
A06
330
A03
100
AcDbEntity
 67
1
  8
0
100
AcDbBlockBegin
  2
*PAPER_SPACE
 70
   0
 10
0
 20
0
 30
0
  3
*PAPER_SPACE
  1
 
  0
ENDBLK
  5
A07
330
A03
100
AcDbEntity
 67
    1
  8
0
100
AcDbBlockEnd
  0
BLOCK
  5
A66
330
A65
100
AcDbEntity
  8
Dimension
100
AcDbBlockBegin
  2
*Dimension
 70
   1
 10
0
 20
0
 30
0
  3
*Dimension
  1
 
  0
LINE
  5
A67
330
A65
100
AcDbEntity
  8
Dimension
100
AcDbLine
 10
161.69
 20
59.9792
 30
0
 11
166.69
 21
59.9792
 31
0
  0
LINE
  5
A68
330
A65
100
AcDbEntity
  8
Dimension
100
AcDbLine
 10
161.69
 20
359.979
 30
0
 11
166.69
 21
359.979
 31
0
  0
LINE
  5
A69
330
A65
100
AcDbEntity
  8
Dimension
100
AcDbLine
 10
166.69
 20
359.979
 30
0
 11
166.69
 21
59.9792
 31
0
  0
TEXT
  5
A6A
330
A65
100
AcDbEntity
  8
Dimension
100
AcDbText
 10
161.69
 20
212.479
 30
0
 40
3.5
  1
300
  7
STANDARD
 72
1
 11
166.69
 21
212.479
 31
0
100
AcDbText
  0
SOLID
  5
A6B
330
A65
100
AcDbEntity
  8
0
 62
     0
100
AcDbTrace
 10
166.273
 20
354.979
 30
0
 11
167.107
 21
354.979
 31
0
 12
166.69
 22
359.979
 32
0
 13
166.69
 23
359.979
 33
0
  0
SOLID
  5
A6C
330
A65
100
AcDbEntity
  8
0
 62
     0
100
AcDbTrace
 10
166.273
 20
64.9792
 30
0
 11
167.107
 21
64.9792
 31
0
 12
166.69
 22
59.9792
 32
0
 13
166.69
 23
59.9792
 33
0
  0
ENDBLK
  5
A6D
330
A65
100
AcDbEntity
  8
Dimension
100
AcDbBlockEnd
  0
BLOCK
  5
A70
330
A6F
100
AcDbEntity
  8
Dimension001
100
AcDbBlockBegin
  2
*Dimension001
 70
   1
 10
0
 20
0
 30
0
  3
*Dimension001
  1
 
  0
LINE
  5
A71
330
A6F
100
AcDbEntity
  8
Dimension001
100
AcDbLine
 10
565.69
 20
59.9792
 30
0
 11
565.69
 21
57.4792
 31
0
  0
LINE
  5
A72
330
A6F
100
AcDbEntity
  8
Dimension001
100
AcDbLine
 10
60.69
 20
59.9792
 30
0
 11
60.69
 21
57.4792
 31
0
  0
LINE
  5
A73
330
A6F
100
AcDbEntity
  8
Dimension001
100
AcDbLine
 10
60.69
 20
57.4792
 30
0
 11
565.69
 21
57.4792
 31
0
  0
TEXT
  5
A74
330
A6F
100
AcDbEntity
  8
Dimension001
100
AcDbText
 10
313.19
 20
62.4792
 30
0
 40
3.5
  1
505
  7
STANDARD
 72
1
 11
313.19
 21
57.4792
 31
0
100
AcDbText
  0
SOLID
  5
A75
330
A6F
100
AcDbEntity
  8
0
 62
     0
100
AcDbTrace
 10
65.69
 20
57.8959
 30
0
 11
65.69
 21
57.0625
 31
0
 12
60.69
 22
57.4792
 32
0
 13
60.69
 23
57.4792
 33
0
  0
SOLID
  5
A76
330
A6F
100
AcDbEntity
  8
0
 62
     0
100
AcDbTrace
 10
560.69
 20
57.8959
 30
0
 11
560.69
 21
57.0625
 31
0
 12
565.69
 22
57.4792
 32
0
 13
565.69
 23
57.4792
 33
0
  0
ENDBLK
  5
A77
330
A6F
100
AcDbEntity
  8
Dimension001
100
AcDbBlockEnd
  0
BLOCK
  5
A7A
330
A79
100
AcDbEntity
  8
Dimension002
100
AcDbBlockBegin
  2
*Dimension002
 70
   1
 10
0
 20
0
 30
0
  3
*Dimension002
  1
 
  0
LINE
  5
A7B
330
A79
100
AcDbEntity
  8
Dimension002
100
AcDbLine
 10
385.69
 20
195.979
 30
0
 11
385.69
 21
193.479
 31
0
  0
LINE
  5
A7C
330
A79
100
AcDbEntity
  8
Dimension002
100
AcDbLine
 10
191.69
 20
195.979
 30
0
 11
191.69
 21
193.479
 31
0
  0
LINE
  5
A7D
330
A79
100
AcDbEntity
  8
Dimension002
100
AcDbLine
 10
191.69
 20
193.479
 30
0
 11
385.69
 21
193.479
 31
0
  0
TEXT
  5
A7E
330
A79
100
AcDbEntity
  8
Dimension002
100
AcDbText
 10
288.69
 20
198.479
 30
0
 40
3.5
  1
194
  7
STANDARD
 72
1
 11
288.69
 21
193.479
 31
0
100
AcDbText
  0
SOLID
  5
A7F
330
A79
100
AcDbEntity
  8
0
 62
     0
100
AcDbTrace
 10
196.69
 20
193.896
 30
0
 11
196.69
 21
193.063
 31
0
 12
191.69
 22
193.479
 32
0
 13
191.69
 23
193.479
 33
0
  0
SOLID
  5
A80
330
A79
100
AcDbEntity
  8
0
 62
     0
100
AcDbTrace
 10
380.69
 20
193.896
 30
0
 11
380.69
 21
193.063
 31
0
 12
385.69
 22
193.479
 32
0
 13
385.69
 23
193.479
 33
0
  0
ENDBLK
  5
A81
330
A79
100
AcDbEntity
  8
Dimension002
100
AcDbBlockEnd
  0
BLOCK
  5
A84
330
A83
100
AcDbEntity
  8
Dimension003
100
AcDbBlockBegin
  2
*Dimension003
 70
   1
 10
0
 20
0
 30
0
  3
*Dimension003
  1
 
  0
LINE
  5
A85
330
A83
100
AcDbEntity
  8
Dimension003
100
AcDbLine
 10
385.69
 20
165.979
 30
0
 11
385.69
 21
163.479
 31
0
  0
LINE
  5
A86
330
A83
100
AcDbEntity
  8
Dimension003
100
AcDbLine
 10
191.69
 20
165.979
 30
0
 11
191.69
 21
163.479
 31
0
  0
LINE
  5
A87
330
A83
100
AcDbEntity
  8
Dimension003
100
AcDbLine
 10
191.69
 20
163.479
 30
0
 11
385.69
 21
163.479
 31
0
  0
TEXT
  5
A88
330
A83
100
AcDbEntity
  8
Dimension003
100
AcDbText
 10
288.69
 20
168.479
 30
0
 40
3.5
  1
194
  7
STANDARD
 72
1
 11
288.69
 21
163.479
 31
0
100
AcDbText
  0
SOLID
  5
A89
330
A83
100
AcDbEntity
  8
0
 62
     0
100
AcDbTrace
 10
196.69
 20
163.896
 30
0
 11
196.69
 21
163.063
 31
0
 12
191.69
 22
163.479
 32
0
 13
191.69
 23
163.479
 33
0
  0
SOLID
  5
A8A
330
A83
100
AcDbEntity
  8
0
 62
     0
100
AcDbTrace
 10
380.69
 20
163.896
 30
0
 11
380.69
 21
163.063
 31
0
 12
385.69
 22
163.479
 32
0
 13
385.69
 23
163.479
 33
0
  0
ENDBLK
  5
A8B
330
A83
100
AcDbEntity
  8
Dimension003
100
AcDbBlockEnd
  0
BLOCK
  5
A8E
330
A8D
100
AcDbEntity
  8
Dimension004
100
AcDbBlockBegin
  2
*Dimension004
 70
   1
 10
0
 20
0
 30
0
  3
*Dimension004
  1
 
  0
LINE
  5
A8F
330
A8D
100
AcDbEntity
  8
Dimension004
100
AcDbLine
 10
411.69
 20
225.15
 30
0
 11
416.69
 21
225.15
 31
0
  0
LINE
  5
A90
330
A8D
100
AcDbEntity
  8
Dimension004
100
AcDbLine
 10
411.69
 20
346.065
 30
0
 11
416.69
 21
346.065
 31
0
  0
LINE
  5
A91
330
A8D
100
AcDbEntity
  8
Dimension004
100
AcDbLine
 10
416.69
 20
346.065
 30
0
 11
416.69
 21
225.15
 31
0
  0
TEXT
  5
A92
330
A8D
100
AcDbEntity
  8
Dimension004
100
AcDbText
 10
411.69
 20
288.107
 30
0
 40
3.5
  1
120.92
  7
STANDARD
 72
1
 11
416.69
 21
288.107
 31
0
100
AcDbText
  0
SOLID
  5
A93
330
A8D
100
AcDbEntity
  8
0
 62
     0
100
AcDbTrace
 10
416.273
 20
341.065
 30
0
 11
417.107
 21
341.065
 31
0
 12
416.69
 22
346.065
 32
0
 13
416.69
 23
346.065
 33
0
  0
SOLID
  5
A94
330
A8D
100
AcDbEntity
  8
0
 62
     0
100
AcDbTrace
 10
416.273
 20
230.15
 30
0
 11
417.107
 21
230.15
 31
0
 12
416.69
 22
225.15
 32
0
 13
416.69
 23
225.15
 33
0
  0
ENDBLK
  5
A95
330
A8D
100
AcDbEntity
  8
Dimension004
100
AcDbBlockEnd
  0
BLOCK
  5
A98
330
A97
100
AcDbEntity
  8
Dimension005
100
AcDbBlockBegin
  2
*Dimension005
 70
   1
 10
0
 20
0
 30
0
  3
*Dimension005
  1
 
  0
LINE
  5
A99
330
A97
100
AcDbEntity
  8
Dimension005
100
AcDbLine
 10
299.69
 20
225.979
 30
0
 11
304.69
 21
225.979
 31
0
  0
LINE
  5
A9A
330
A97
100
AcDbEntity
  8
Dimension005
100
AcDbLine
 10
299.69
 20
285.191
 30
0
 11
304.69
 21
285.191
 31
0
  0
LINE
  5
A9B
330
A97
100
AcDbEntity
  8
Dimension005
100
AcDbLine
 10
304.69
 20
285.191
 30
0
 11
304.69
 21
225.979
 31
0
  0
TEXT
  5
A9C
330
A97
100
AcDbEntity
  8
Dimension005
100
AcDbText
 10
299.69
 20
258.085
 30
0
 40
3.5
  1
59.21
  7
STANDARD
 72
1
 11
304.69
 21
258.085
 31
0
100
AcDbText
  0
SOLID
  5
A9D
330
A97
100
AcDbEntity
  8
0
 62
     0
100
AcDbTrace
 10
304.274
 20
280.191
 30
0
 11
305.107
 21
280.191
 31
0
 12
304.69
 22
285.191
 32
0
 13
304.69
 23
285.191
 33
0
  0
SOLID
  5
A9E
330
A97
100
AcDbEntity
  8
0
 62
     0
100
AcDbTrace
 10
304.274
 20
230.979
 30
0
 11
305.107
 21
230.979
 31
0
 12
304.69
 22
225.979
 32
0
 13
304.69
 23
225.979
 33
0
  0
ENDBLK
  5
A9F
330
A97
100
AcDbEntity
  8
Dimension005
100
AcDbBlockEnd
  0
ENDSEC
  0
SECTION
  2
ENTITIES
  0
LINE
  5
A08
330
A02
100
AcDbEntity
  8
View
100
AcDbLine
 10
282.69
 20
156.793
 30
0
 11
282.69
 21
195.979
 31
0
  0
LINE
  5
A09
330
A02
100
AcDbEntity
  8
View
100
AcDbLine
 10
282.69
 20
225.979
 30
0
 11
282.69
 21
298.215
 31
0
  0
LINE
  5
A0A
330
A02
100
AcDbEntity
  8
View
100
AcDbLine
 10
307.69
 20
156.793
 30
0
 11
307.69
 21
195.979
 31
0
  0
LINE
  5
A0B
330
A02
100
AcDbEntity
  8
View
100
AcDbLine
 10
307.69
 20
225.979
 30
0
 11
307.69
 21
298.215
 31
0
  0
LINE
  5
A0C
330
A02
100
AcDbEntity
  8
View
100
AcDbLine
 10
282.69
 20
156.793
 30
0
 11
307.69
 21
156.793
 31
0
  0
SPLINE
  5
A0D
330
A02
100
AcDbEntity
  8
View
100
AcDbSpline
210
0
220
0
230
1
 70
8
 71
3
 72
29
 73
25
 74
0
 40
4.83792
 40
4.83792
 40
4.83792
 40
4.83792
 40
5.01857
 40
5.01857
 40
5.01857
 40
5.19923
 40
5.19923
 40
5.19923
 40
5.37989
 40
5.37989
 40
5.37989
 40
5.56055
 40
5.56055
 40
5.56055
 40
5.74121
 40
5.74121
 40
5.74121
 40
5.92187
 40
5.92187
 40
5.92187
 40
6.10253
 40
6.10253
 40
6.10253
 40
6.28319
 40
6.28319
 40
6.28319
 40
6.28319
 10
287.193
 20
297.932
 30
0
 10
283.536
 20
298.348
 30
0
 10
279.803
 20
299.082
 30
0
 10
276.085
 20
300.17
 30
0
 10
272.366
 20
301.257
 30
0
 10
268.662
 20
302.698
 30
0
 10
265.076
 20
304.496
 30
0
 10
261.489
 20
306.293
 30
0
 10
258.022
 20
308.446
 30
0
 10
254.776
 20
310.919
 30
0
 10
251.529
 20
313.391
 30
0
 10
248.506
 20
316.183
 30
0
 10
245.789
 20
319.221
 30
0
 10
243.072
 20
322.259
 30
0
 10
240.662
 20
325.542
 30
0
 10
238.609
 20
328.973
 30
0
 10
236.555
 20
332.404
 30
0
 10
234.858
 20
335.982
 30
0
 10
233.527
 20
339.605
 30
0
 10
232.196
 20
343.228
 30
0
 10
231.23
 20
346.893
 30
0
 10
230.604
 20
350.511
 30
0
 10
229.978
 20
354.128
 30
0
 10
229.69
 20
357.697
 30
0
 10
229.69
 20
361.147
 30
0
  0
SPLINE
  5
A0E
330
A02
100
AcDbEntity
  8
View
100
AcDbSpline
210
0
220
0
230
1
 70
8
 71
3
 72
29
 73
25
 74
0
 40
6.28319
 40
6.28319
 40
6.28319
 40
6.28319
 40
6.47953
 40
6.47953
 40
6.47953
 40
6.67588
 40
6.67588
 40
6.67588
 40
6.87223
 40
6.87223
 40
6.87223
 40
7.06858
 40
7.06858
 40
7.06858
 40
7.26493
 40
7.26493
 40
7.26493
 40
7.46128
 40
7.46128
 40
7.46128
 40
7.65763
 40
7.65763
 40
7.65763
 40
7.85398
 40
7.85398
 40
7.85398
 40
7.85398
 10
229.69
 20
361.147
 30
0
 10
229.69
 20
364.896
 30
0
 10
230.03
 20
368.787
 30
0
 10
230.775
 20
372.727
 30
0
 10
231.519
 20
376.666
 30
0
 10
232.669
 20
380.655
 30
0
 10
234.254
 20
384.572
 30
0
 10
235.837
 20
388.489
 30
0
 10
237.855
 20
392.333
 30
0
 10
240.285
 20
395.971
 30
0
 10
242.714
 20
399.61
 30
0
 10
245.554
 20
403.041
 30
0
 10
248.728
 20
406.147
 30
0
 10
251.901
 20
409.255
 30
0
 10
255.405
 20
412.035
 30
0
 10
259.122
 20
414.413
 30
0
 10
262.838
 20
416.793
 30
0
 10
266.763
 20
418.769
 30
0
 10
270.764
 20
420.318
 30
0
 10
274.765
 20
421.87
 30
0
 10
278.839
 20
422.996
 30
0
 10
282.863
 20
423.724
 30
0
 10
286.887
 20
424.454
 30
0
 10
290.861
 20
424.787
 30
0
 10
294.69
 20
424.787
 30
0
  0
SPLINE
  5
A0F
330
A02
100
AcDbEntity
  8
View
100
AcDbSpline
210
0
220
0
230
1
 70
8
 71
3
 72
29
 73
25
 74
0
 40
4.86483
 40
4.86483
 40
4.86483
 40
4.86483
 40
5.04212
 40
5.04212
 40
5.04212
 40
5.21942
 40
5.21942
 40
5.21942
 40
5.39671
 40
5.39671
 40
5.39671
 40
5.57401
 40
5.57401
 40
5.57401
 40
5.7513
 40
5.7513
 40
5.7513
 40
5.9286
 40
5.9286
 40
5.9286
 40
6.10589
 40
6.10589
 40
6.10589
 40
6.28319
 40
6.28319
 40
6.28319
 40
6.28319
 10
303.826
 20
298.139
 30
0
 10
307.435
 20
298.64
 30
0
 10
311.105
 20
299.456
 30
0
 10
314.749
 20
300.613
 30
0
 10
318.392
 20
301.77
 30
0
 10
322.009
 20
303.27
 30
0
 10
325.502
 20
305.112
 30
0
 10
328.995
 20
306.952
 30
0
 10
332.361
 20
309.133
 30
0
 10
335.505
 20
311.618
 30
0
 10
338.65
 20
314.101
 30
0
 10
341.572
 20
316.887
 30
0
 10
344.193
 20
319.904
 30
0
 10
346.815
 20
322.92
 30
0
 10
349.136
 20
326.166
 30
0
 10
351.112
 20
329.549
 30
0
 10
353.089
 20
332.932
 30
0
 10
354.721
 20
336.452
 30
0
 10
356
 20
340.01
 30
0
 10
357.28
 20
343.568
 30
0
 10
358.209
 20
347.165
 30
0
 10
358.811
 20
350.713
 30
0
 10
359.413
 20
354.261
 30
0
 10
359.69
 20
357.761
 30
0
 10
359.69
 20
361.147
 30
0
  0
SPLINE
  5
A10
330
A02
100
AcDbEntity
  8
View
100
AcDbSpline
210
0
220
0
230
1
 70
8
 71
3
 72
29
 73
25
 74
0
 40
6.28319
 40
6.28319
 40
6.28319
 40
6.28319
 40
6.47953
 40
6.47953
 40
6.47953
 40
6.67588
 40
6.67588
 40
6.67588
 40
6.87223
 40
6.87223
 40
6.87223
 40
7.06858
 40
7.06858
 40
7.06858
 40
7.26493
 40
7.26493
 40
7.26493
 40
7.46128
 40
7.46128
 40
7.46128
 40
7.65763
 40
7.65763
 40
7.65763
 40
7.85398
 40
7.85398
 40
7.85398
 40
7.85398
 10
359.69
 20
361.147
 30
0
 10
359.691
 20
364.896
 30
0
 10
359.35
 20
368.787
 30
0
 10
358.605
 20
372.727
 30
0
 10
357.861
 20
376.666
 30
0
 10
356.711
 20
380.655
 30
0
 10
355.126
 20
384.572
 30
0
 10
353.544
 20
388.489
 30
0
 10
351.525
 20
392.333
 30
0
 10
349.095
 20
395.971
 30
0
 10
346.666
 20
399.61
 30
0
 10
343.826
 20
403.041
 30
0
 10
340.652
 20
406.147
 30
0
 10
337.48
 20
409.255
 30
0
 10
333.975
 20
412.035
 30
0
 10
330.259
 20
414.413
 30
0
 10
326.543
 20
416.793
 30
0
 10
322.617
 20
418.769
 30
0
 10
318.616
 20
420.318
 30
0
 10
314.615
 20
421.87
 30
0
 10
310.541
 20
422.996
 30
0
 10
306.518
 20
423.724
 30
0
 10
302.493
 20
424.454
 30
0
 10
298.52
 20
424.787
 30
0
 10
294.69
 20
424.787
 30
0
  0
SPLINE
  5
A11
330
A02
100
AcDbEntity
  8
View
100
AcDbSpline
210
0
220
0
230
1
 70
8
 71
1
 72
4
 73
2
 74
0
 40
-65
 40
-65
 40
65
 40
65
 10
294.69
 20
297.507
 30
0
 10
294.69
 20
424.787
 30
0
  0
LINE
  5
A12
330
A02
100
AcDbEntity
  8
View
100
AcDbLine
 10
289.69
 20
285.191
 30
0
 11
289.69
 21
225.979
 31
0
  0
LINE
  5
A13
330
A02
100
AcDbEntity
  8
View
100
AcDbLine
 10
299.69
 20
285.191
 30
0
 11
299.69
 21
225.979
 31
0
  0
LINE
  5
A14
330
A02
100
AcDbEntity
  8
View
100
AcDbLine
 10
289.69
 20
285.191
 30
0
 11
299.69
 21
285.191
 31
0
  0
LINE
  5
A15
330
A02
100
AcDbEntity
  8
View
100
AcDbLine
 10
307.69
 20
298.215
 30
0
 11
307.69
 21
298.793
 31
0
  0
LINE
  5
A16
330
A02
100
AcDbEntity
  8
View
100
AcDbLine
 10
307.69
 20
300.871
 30
0
 11
295.69
 21
292.386
 31
0
  0
LINE
  5
A17
330
A02
100
AcDbEntity
  8
View
100
AcDbLine
 10
295.69
 20
290.265
 30
0
 11
295.69
 21
292.386
 31
0
  0
LINE
  5
A18
330
A02
100
AcDbEntity
  8
View
100
AcDbLine
 10
307.69
 20
296.629
 30
0
 11
295.69
 21
290.265
 31
0
  0
LINE
  5
A19
330
A02
100
AcDbEntity
  8
View
100
AcDbLine
 10
282.69
 20
298.215
 30
0
 11
282.69
 21
298.601
 31
0
  0
LINE
  5
A1A
330
A02
100
AcDbEntity
  8
View
100
AcDbLine
 10
282.69
 20
300.871
 30
0
 11
295.69
 21
292.386
 31
0
  0
LINE
  5
A1B
330
A02
100
AcDbEntity
  8
View
100
AcDbLine
 10
282.69
 20
296.629
 30
0
 11
295.69
 21
290.265
 31
0
  0
LINE
  5
A1C
330
A02
100
AcDbEntity
  8
View
100
AcDbLine
 10
168.69
 20
195.979
 30
0
 11
168.69
 21
225.979
 31
0
  0
LINE
  5
A1D
330
A02
100
AcDbEntity
  8
View
100
AcDbLine
 10
168.69
 20
195.979
 30
0
 11
188.69
 21
195.979
 31
0
  0
SPLINE
  5
A1E
330
A02
100
AcDbEntity
  8
View
100
AcDbSpline
210
0
220
0
230
1
 70
8
 71
2
 72
30
 73
27
 74
0
 40
3.14159
 40
3.14159
 40
3.14159
 40
3.25379
 40
3.25379
 40
3.36599
 40
3.36599
 40
3.47819
 40
3.47819
 40
3.59039
 40
3.59039
 40
3.70259
 40
3.70259
 40
3.81479
 40
3.81479
 40
3.92699
 40
3.92699
 40
4.03919
 40
4.03919
 40
4.15139
 40
4.15139
 40
4.26359
 40
4.26359
 40
4.37579
 40
4.37579
 40
4.48799
 40
4.48799
 40
4.71239
 40
4.71239
 40
4.71239
 10
168.69
 20
195.979
 30
0
 10
168.696
 20
195.985
 30
0
 10
168.703
 20
195.992
 30
0
 10
168.721
 20
196.011
 30
0
 10
168.74
 20
196.029
 30
0
 10
168.771
 20
196.06
 30
0
 10
168.802
 20
196.091
 30
0
 10
168.845
 20
196.134
 30
0
 10
168.888
 20
196.177
 30
0
 10
168.942
 20
196.232
 30
0
 10
168.997
 20
196.286
 30
0
 10
169.061
 20
196.351
 30
0
 10
169.126
 20
196.416
 30
0
 10
169.201
 20
196.49
 30
0
 10
169.276
 20
196.565
 30
0
 10
169.359
 20
196.649
 30
0
 10
169.443
 20
196.732
 30
0
 10
169.534
 20
196.824
 30
0
 10
169.626
 20
196.915
 30
0
 10
169.724
 20
197.013
 30
0
 10
169.822
 20
197.111
 30
0
 10
169.926
 20
197.215
 30
0
 10
170.029
 20
197.319
 30
0
 10
170.137
 20
197.426
 30
0
 10
170.245
 20
197.534
 30
0
 10
170.465
 20
197.754
 30
0
 10
170.69
 20
197.979
 30
0
  0
SPLINE
  5
A1F
330
A02
100
AcDbEntity
  8
View
100
AcDbSpline
210
0
220
0
230
1
 70
8
 71
2
 72
30
 73
27
 74
0
 40
0
 40
0
 40
0
 40
0.1122
 40
0.1122
 40
0.224399
 40
0.224399
 40
0.336599
 40
0.336599
 40
0.448799
 40
0.448799
 40
0.560999
 40
0.560999
 40
0.673198
 40
0.673198
 40
0.785398
 40
0.785398
 40
0.897598
 40
0.897598
 40
1.0098
 40
1.0098
 40
1.122
 40
1.122
 40
1.2342
 40
1.2342
 40
1.3464
 40
1.3464
 40
1.5708
 40
1.5708
 40
1.5708
 10
168.69
 20
225.979
 30
0
 10
168.696
 20
225.973
 30
0
 10
168.703
 20
225.967
 30
0
 10
168.721
 20
225.948
 30
0
 10
168.74
 20
225.929
 30
0
 10
168.771
 20
225.898
 30
0
 10
168.802
 20
225.867
 30
0
 10
168.845
 20
225.824
 30
0
 10
168.888
 20
225.781
 30
0
 10
168.942
 20
225.727
 30
0
 10
168.997
 20
225.673
 30
0
 10
169.061
 20
225.608
 30
0
 10
169.126
 20
225.543
 30
0
 10
169.201
 20
225.468
 30
0
 10
169.276
 20
225.393
 30
0
 10
169.359
 20
225.31
 30
0
 10
169.443
 20
225.226
 30
0
 10
169.534
 20
225.135
 30
0
 10
169.626
 20
225.043
 30
0
 10
169.724
 20
224.945
 30
0
 10
169.822
 20
224.847
 30
0
 10
169.926
 20
224.743
 30
0
 10
170.029
 20
224.64
 30
0
 10
170.137
 20
224.532
 30
0
 10
170.245
 20
224.424
 30
0
 10
170.465
 20
224.204
 30
0
 10
170.69
 20
223.979
 30
0
  0
LINE
  5
A20
330
A02
100
AcDbEntity
  8
View
100
AcDbLine
 10
168.69
 20
225.979
 30
0
 11
188.69
 21
225.979
 31
0
  0
LINE
  5
A21
330
A02
100
AcDbEntity
  8
View
100
AcDbLine
 10
188.69
 20
195.979
 30
0
 11
188.69
 21
225.979
 31
0
  0
SPLINE
  5
A22
330
A02
100
AcDbEntity
  8
View
100
AcDbSpline
210
0
220
0
230
1
 70
8
 71
2
 72
30
 73
27
 74
0
 40
3.14159
 40
3.14159
 40
3.14159
 40
3.25379
 40
3.25379
 40
3.36599
 40
3.36599
 40
3.47819
 40
3.47819
 40
3.59039
 40
3.59039
 40
3.70259
 40
3.70259
 40
3.81479
 40
3.81479
 40
3.92699
 40
3.92699
 40
4.03919
 40
4.03919
 40
4.15139
 40
4.15139
 40
4.26359
 40
4.26359
 40
4.37579
 40
4.37579
 40
4.48799
 40
4.48799
 40
4.71239
 40
4.71239
 40
4.71239
 10
188.69
 20
195.979
 30
0
 10
188.684
 20
195.985
 30
0
 10
188.677
 20
195.992
 30
0
 10
188.659
 20
196.011
 30
0
 10
188.64
 20
196.029
 30
0
 10
188.609
 20
196.06
 30
0
 10
188.578
 20
196.091
 30
0
 10
188.535
 20
196.134
 30
0
 10
188.492
 20
196.177
 30
0
 10
188.438
 20
196.232
 30
0
 10
188.383
 20
196.286
 30
0
 10
188.319
 20
196.351
 30
0
 10
188.254
 20
196.416
 30
0
 10
188.179
 20
196.49
 30
0
 10
188.104
 20
196.565
 30
0
 10
188.021
 20
196.649
 30
0
 10
187.937
 20
196.732
 30
0
 10
187.846
 20
196.824
 30
0
 10
187.754
 20
196.915
 30
0
 10
187.656
 20
197.013
 30
0
 10
187.558
 20
197.111
 30
0
 10
187.454
 20
197.215
 30
0
 10
187.351
 20
197.319
 30
0
 10
187.243
 20
197.426
 30
0
 10
187.135
 20
197.534
 30
0
 10
186.915
 20
197.754
 30
0
 10
186.69
 20
197.979
 30
0
  0
SPLINE
  5
A23
330
A02
100
AcDbEntity
  8
View
100
AcDbSpline
210
0
220
0
230
1
 70
8
 71
2
 72
30
 73
27
 74
0
 40
0
 40
0
 40
0
 40
0.1122
 40
0.1122
 40
0.224399
 40
0.224399
 40
0.336599
 40
0.336599
 40
0.448799
 40
0.448799
 40
0.560999
 40
0.560999
 40
0.673198
 40
0.673198
 40
0.785398
 40
0.785398
 40
0.897598
 40
0.897598
 40
1.0098
 40
1.0098
 40
1.122
 40
1.122
 40
1.2342
 40
1.2342
 40
1.3464
 40
1.3464
 40
1.5708
 40
1.5708
 40
1.5708
 10
188.69
 20
225.979
 30
0
 10
188.684
 20
225.973
 30
0
 10
188.677
 20
225.967
 30
0
 10
188.659
 20
225.948
 30
0
 10
188.64
 20
225.929
 30
0
 10
188.609
 20
225.898
 30
0
 10
188.578
 20
225.867
 30
0
 10
188.535
 20
225.824
 30
0
 10
188.492
 20
225.781
 30
0
 10
188.438
 20
225.727
 30
0
 10
188.383
 20
225.673
 30
0
 10
188.319
 20
225.608
 30
0
 10
188.254
 20
225.543
 30
0
 10
188.179
 20
225.468
 30
0
 10
188.104
 20
225.393
 30
0
 10
188.021
 20
225.31
 30
0
 10
187.937
 20
225.226
 30
0
 10
187.846
 20
225.135
 30
0
 10
187.754
 20
225.043
 30
0
 10
187.656
 20
224.945
 30
0
 10
187.558
 20
224.847
 30
0
 10
187.454
 20
224.743
 30
0
 10
187.351
 20
224.64
 30
0
 10
187.243
 20
224.532
 30
0
 10
187.135
 20
224.424
 30
0
 10
186.915
 20
224.204
 30
0
 10
186.69
 20
223.979
 30
0
  0
LINE
  5
A24
330
A02
100
AcDbEntity
  8
View
100
AcDbLine
 10
161.69
 20
59.9792
 30
0
 11
161.69
 21
359.979
 31
0
  0
LINE
  5
A25
330
A02
100
AcDbEntity
  8
View
100
AcDbLine
 10
191.69
 20
59.9792
 30
0
 11
191.69
 21
195.979
 31
0
  0
LINE
  5
A26
330
A02
100
AcDbEntity
  8
View
100
AcDbLine
 10
191.69
 20
225.979
 30
0
 11
191.69
 21
359.979
 31
0
  0
LINE
  5
A27
330
A02
100
AcDbEntity
  8
View
100
AcDbLine
 10
161.69
 20
59.9792
 30
0
 11
191.69
 21
59.9792
 31
0
  0
LINE
  5
A28
330
A02
100
AcDbEntity
  8
View
100
AcDbLine
 10
161.69
 20
359.979
 30
0
 11
191.69
 21
359.979
 31
0
  0
LINE
  5
A29
330
A02
100
AcDbEntity
  8
View
100
AcDbLine
 10
164.69
 20
346.065
 30
0
 11
164.69
 21
225.857
 31
0
  0
LINE
  5
A2A
330
A02
100
AcDbEntity
  8
View
100
AcDbLine
 10
164.69
 20
225.857
 30
0
 11
164.69
 21
225.15
 31
0
  0
LINE
  5
A2B
330
A02
100
AcDbEntity
  8
View
100
AcDbLine
 10
164.69
 20
225.857
 30
0
 11
168.69
 21
225.857
 31
0
  0
LINE
  5
A2C
330
A02
100
AcDbEntity
  8
View
100
AcDbLine
 10
189.69
 20
346.065
 30
0
 11
189.69
 21
225.979
 31
0
  0
LINE
  5
A2D
330
A02
100
AcDbEntity
  8
View
100
AcDbLine
 10
164.69
 20
225.15
 30
0
 11
168.69
 21
225.15
 31
0
  0
LINE
  5
A2E
330
A02
100
AcDbEntity
  8
View
100
AcDbLine
 10
388.69
 20
195.979
 30
0
 11
388.69
 21
225.979
 31
0
  0
LINE
  5
A2F
330
A02
100
AcDbEntity
  8
View
100
AcDbLine
 10
388.69
 20
195.979
 30
0
 11
408.69
 21
195.979
 31
0
  0
SPLINE
  5
A30
330
A02
100
AcDbEntity
  8
View
100
AcDbSpline
210
0
220
0
230
1
 70
8
 71
2
 72
30
 73
27
 74
0
 40
3.14159
 40
3.14159
 40
3.14159
 40
3.25379
 40
3.25379
 40
3.36599
 40
3.36599
 40
3.47819
 40
3.47819
 40
3.59039
 40
3.59039
 40
3.70259
 40
3.70259
 40
3.81479
 40
3.81479
 40
3.92699
 40
3.92699
 40
4.03919
 40
4.03919
 40
4.15139
 40
4.15139
 40
4.26359
 40
4.26359
 40
4.37579
 40
4.37579
 40
4.48799
 40
4.48799
 40
4.71239
 40
4.71239
 40
4.71239
 10
388.69
 20
195.979
 30
0
 10
388.696
 20
195.985
 30
0
 10
388.703
 20
195.992
 30
0
 10
388.721
 20
196.011
 30
0
 10
388.74
 20
196.029
 30
0
 10
388.771
 20
196.06
 30
0
 10
388.802
 20
196.091
 30
0
 10
388.845
 20
196.134
 30
0
 10
388.888
 20
196.177
 30
0
 10
388.942
 20
196.232
 30
0
 10
388.997
 20
196.286
 30
0
 10
389.061
 20
196.351
 30
0
 10
389.126
 20
196.416
 30
0
 10
389.201
 20
196.49
 30
0
 10
389.276
 20
196.565
 30
0
 10
389.359
 20
196.649
 30
0
 10
389.443
 20
196.732
 30
0
 10
389.534
 20
196.824
 30
0
 10
389.626
 20
196.915
 30
0
 10
389.724
 20
197.013
 30
0
 10
389.822
 20
197.111
 30
0
 10
389.926
 20
197.215
 30
0
 10
390.029
 20
197.319
 30
0
 10
390.137
 20
197.426
 30
0
 10
390.245
 20
197.534
 30
0
 10
390.465
 20
197.754
 30
0
 10
390.69
 20
197.979
 30
0
  0
SPLINE
  5
A31
330
A02
100
AcDbEntity
  8
View
100
AcDbSpline
210
0
220
0
230
1
 70
8
 71
2
 72
30
 73
27
 74
0
 40
0
 40
0
 40
0
 40
0.1122
 40
0.1122
 40
0.224399
 40
0.224399
 40
0.336599
 40
0.336599
 40
0.448799
 40
0.448799
 40
0.560999
 40
0.560999
 40
0.673198
 40
0.673198
 40
0.785398
 40
0.785398
 40
0.897598
 40
0.897598
 40
1.0098
 40
1.0098
 40
1.122
 40
1.122
 40
1.2342
 40
1.2342
 40
1.3464
 40
1.3464
 40
1.5708
 40
1.5708
 40
1.5708
 10
388.69
 20
225.979
 30
0
 10
388.696
 20
225.973
 30
0
 10
388.703
 20
225.967
 30
0
 10
388.721
 20
225.948
 30
0
 10
388.74
 20
225.929
 30
0
 10
388.771
 20
225.898
 30
0
 10
388.802
 20
225.867
 30
0
 10
388.845
 20
225.824
 30
0
 10
388.888
 20
225.781
 30
0
 10
388.942
 20
225.727
 30
0
 10
388.997
 20
225.673
 30
0
 10
389.061
 20
225.608
 30
0
 10
389.126
 20
225.543
 30
0
 10
389.201
 20
225.468
 30
0
 10
389.276
 20
225.393
 30
0
 10
389.359
 20
225.31
 30
0
 10
389.443
 20
225.226
 30
0
 10
389.534
 20
225.135
 30
0
 10
389.626
 20
225.043
 30
0
 10
389.724
 20
224.945
 30
0
 10
389.822
 20
224.847
 30
0
 10
389.926
 20
224.743
 30
0
 10
390.029
 20
224.64
 30
0
 10
390.137
 20
224.532
 30
0
 10
390.245
 20
224.424
 30
0
 10
390.465
 20
224.204
 30
0
 10
390.69
 20
223.979
 30
0
  0
LINE
  5
A32
330
A02
100
AcDbEntity
  8
View
100
AcDbLine
 10
388.69
 20
225.979
 30
0
 11
408.69
 21
225.979
 31
0
  0
LINE
  5
A33
330
A02
100
AcDbEntity
  8
View
100
AcDbLine
 10
408.69
 20
195.979
 30
0
 11
408.69
 21
225.979
 31
0
  0
SPLINE
  5
A34
330
A02
100
AcDbEntity
  8
View
100
AcDbSpline
210
0
220
0
230
1
 70
8
 71
2
 72
30
 73
27
 74
0
 40
3.14159
 40
3.14159
 40
3.14159
 40
3.25379
 40
3.25379
 40
3.36599
 40
3.36599
 40
3.47819
 40
3.47819
 40
3.59039
 40
3.59039
 40
3.70259
 40
3.70259
 40
3.81479
 40
3.81479
 40
3.92699
 40
3.92699
 40
4.03919
 40
4.03919
 40
4.15139
 40
4.15139
 40
4.26359
 40
4.26359
 40
4.37579
 40
4.37579
 40
4.48799
 40
4.48799
 40
4.71239
 40
4.71239
 40
4.71239
 10
408.69
 20
195.979
 30
0
 10
408.684
 20
195.985
 30
0
 10
408.677
 20
195.992
 30
0
 10
408.659
 20
196.011
 30
0
 10
408.64
 20
196.029
 30
0
 10
408.609
 20
196.06
 30
0
 10
408.578
 20
196.091
 30
0
 10
408.535
 20
196.134
 30
0
 10
408.492
 20
196.177
 30
0
 10
408.438
 20
196.232
 30
0
 10
408.383
 20
196.286
 30
0
 10
408.319
 20
196.351
 30
0
 10
408.254
 20
196.416
 30
0
 10
408.179
 20
196.49
 30
0
 10
408.104
 20
196.565
 30
0
 10
408.021
 20
196.649
 30
0
 10
407.937
 20
196.732
 30
0
 10
407.846
 20
196.824
 30
0
 10
407.754
 20
196.915
 30
0
 10
407.656
 20
197.013
 30
0
 10
407.558
 20
197.111
 30
0
 10
407.454
 20
197.215
 30
0
 10
407.351
 20
197.319
 30
0
 10
407.243
 20
197.426
 30
0
 10
407.135
 20
197.534
 30
0
 10
406.915
 20
197.754
 30
0
 10
406.69
 20
197.979
 30
0
  0
SPLINE
  5
A35
330
A02
100
AcDbEntity
  8
View
100
AcDbSpline
210
0
220
0
230
1
 70
8
 71
2
 72
30
 73
27
 74
0
 40
0
 40
0
 40
0
 40
0.1122
 40
0.1122
 40
0.224399
 40
0.224399
 40
0.336599
 40
0.336599
 40
0.448799
 40
0.448799
 40
0.560999
 40
0.560999
 40
0.673198
 40
0.673198
 40
0.785398
 40
0.785398
 40
0.897598
 40
0.897598
 40
1.0098
 40
1.0098
 40
1.122
 40
1.122
 40
1.2342
 40
1.2342
 40
1.3464
 40
1.3464
 40
1.5708
 40
1.5708
 40
1.5708
 10
408.69
 20
225.979
 30
0
 10
408.684
 20
225.973
 30
0
 10
408.677
 20
225.967
 30
0
 10
408.659
 20
225.948
 30
0
 10
408.64
 20
225.929
 30
0
 10
408.609
 20
225.898
 30
0
 10
408.578
 20
225.867
 30
0
 10
408.535
 20
225.824
 30
0
 10
408.492
 20
225.781
 30
0
 10
408.438
 20
225.727
 30
0
 10
408.383
 20
225.673
 30
0
 10
408.319
 20
225.608
 30
0
 10
408.254
 20
225.543
 30
0
 10
408.179
 20
225.468
 30
0
 10
408.104
 20
225.393
 30
0
 10
408.021
 20
225.31
 30
0
 10
407.937
 20
225.226
 30
0
 10
407.846
 20
225.135
 30
0
 10
407.754
 20
225.043
 30
0
 10
407.656
 20
224.945
 30
0
 10
407.558
 20
224.847
 30
0
 10
407.454
 20
224.743
 30
0
 10
407.351
 20
224.64
 30
0
 10
407.243
 20
224.532
 30
0
 10
407.135
 20
224.424
 30
0
 10
406.915
 20
224.204
 30
0
 10
406.69
 20
223.979
 30
0
  0
LINE
  5
A36
330
A02
100
AcDbEntity
  8
View
100
AcDbLine
 10
386.69
 20
346.065
 30
0
 11
386.69
 21
225.979
 31
0
  0
LINE
  5
A37
330
A02
100
AcDbEntity
  8
View
100
AcDbLine
 10
408.69
 20
225.857
 30
0
 11
411.69
 21
225.857
 31
0
  0
LINE
  5
A38
330
A02
100
AcDbEntity
  8
View
100
AcDbLine
 10
411.69
 20
346.065
 30
0
 11
411.69
 21
225.857
 31
0
  0
LINE
  5
A39
330
A02
100
AcDbEntity
  8
View
100
AcDbLine
 10
411.69
 20
225.857
 30
0
 11
411.69
 21
225.15
 31
0
  0
LINE
  5
A3A
330
A02
100
AcDbEntity
  8
View
100
AcDbLine
 10
408.69
 20
225.15
 30
0
 11
411.69
 21
225.15
 31
0
  0
LINE
  5
A3B
330
A02
100
AcDbEntity
  8
View
100
AcDbLine
 10
385.69
 20
59.9792
 30
0
 11
385.69
 21
195.979
 31
0
  0
LINE
  5
A3C
330
A02
100
AcDbEntity
  8
View
100
AcDbLine
 10
385.69
 20
225.979
 30
0
 11
385.69
 21
359.979
 31
0
  0
LINE
  5
A3D
330
A02
100
AcDbEntity
  8
View
100
AcDbLine
 10
415.69
 20
59.9792
 30
0
 11
415.69
 21
359.979
 31
0
  0
LINE
  5
A3E
330
A02
100
AcDbEntity
  8
View
100
AcDbLine
 10
385.69
 20
59.9792
 30
0
 11
415.69
 21
59.9792
 31
0
  0
LINE
  5
A3F
330
A02
100
AcDbEntity
  8
View
100
AcDbLine
 10
385.69
 20
359.979
 30
0
 11
415.69
 21
359.979
 31
0
  0
LINE
  5
A40
330
A02
100
AcDbEntity
  8
View
100
AcDbLine
 10
60.69
 20
59.9792
 30
0
 11
60.69
 21
89.9792
 31
0
  0
LINE
  5
A41
330
A02
100
AcDbEntity
  8
View
100
AcDbLine
 10
565.69
 20
59.9792
 30
0
 11
565.69
 21
89.9792
 31
0
  0
LINE
  5
A42
330
A02
100
AcDbEntity
  8
View
100
AcDbLine
 10
60.69
 20
59.9792
 30
0
 11
161.69
 21
59.9792
 31
0
  0
LINE
  5
A43
330
A02
100
AcDbEntity
  8
View
100
AcDbLine
 10
191.69
 20
59.9792
 30
0
 11
385.69
 21
59.9792
 31
0
  0
LINE
  5
A44
330
A02
100
AcDbEntity
  8
View
100
AcDbLine
 10
415.69
 20
59.9792
 30
0
 11
565.69
 21
59.9792
 31
0
  0
LINE
  5
A45
330
A02
100
AcDbEntity
  8
View
100
AcDbLine
 10
60.69
 20
89.9792
 30
0
 11
161.69
 21
89.9792
 31
0
  0
LINE
  5
A46
330
A02
100
AcDbEntity
  8
View
100
AcDbLine
 10
191.69
 20
89.9792
 30
0
 11
385.69
 21
89.9792
 31
0
  0
LINE
  5
A47
330
A02
100
AcDbEntity
  8
View
100
AcDbLine
 10
415.69
 20
89.9792
 30
0
 11
565.69
 21
89.9792
 31
0
  0
LINE
  5
A48
330
A02
100
AcDbEntity
  8
View
100
AcDbLine
 10
26.69
 20
56.9792
 30
0
 11
26.69
 21
371.979
 31
0
  0
LINE
  5
A49
330
A02
100
AcDbEntity
  8
View
100
AcDbLine
 10
576.69
 20
56.9792
 30
0
 11
576.69
 21
371.979
 31
0
  0
LINE
  5
A4A
330
A02
100
AcDbEntity
  8
View
100
AcDbLine
 10
26.69
 20
56.9792
 30
0
 11
576.69
 21
56.9792
 31
0
  0
LINE
  5
A4B
330
A02
100
AcDbEntity
  8
View
100
AcDbLine
 10
26.69
 20
371.979
 30
0
 11
230.594
 21
371.979
 31
0
  0
LINE
  5
A4C
330
A02
100
AcDbEntity
  8
View
100
AcDbLine
 10
358.787
 20
371.979
 30
0
 11
576.69
 21
371.979
 31
0
  0
LINE
  5
A4D
330
A02
100
AcDbEntity
  8
View
100
AcDbLine
 10
59.69
 20
331.979
 30
0
 11
59.69
 21
361.979
 31
0
  0
LINE
  5
A4E
330
A02
100
AcDbEntity
  8
View
100
AcDbLine
 10
564.69
 20
331.979
 30
0
 11
564.69
 21
361.979
 31
0
  0
LINE
  5
A4F
330
A02
100
AcDbEntity
  8
View
100
AcDbLine
 10
59.69
 20
331.979
 30
0
 11
161.69
 21
331.979
 31
0
  0
LINE
  5
A50
330
A02
100
AcDbEntity
  8
View
100
AcDbLine
 10
191.69
 20
331.979
 30
0
 11
236.919
 21
331.979
 31
0
  0
LINE
  5
A51
330
A02
100
AcDbEntity
  8
View
100
AcDbLine
 10
352.461
 20
331.979
 30
0
 11
385.69
 21
331.979
 31
0
  0
LINE
  5
A52
330
A02
100
AcDbEntity
  8
View
100
AcDbLine
 10
415.69
 20
331.979
 30
0
 11
564.69
 21
331.979
 31
0
  0
LINE
  5
A53
330
A02
100
AcDbEntity
  8
View
100
AcDbLine
 10
59.69
 20
361.979
 30
0
 11
229.696
 21
361.979
 31
0
  0
LINE
  5
A54
330
A02
100
AcDbEntity
  8
View
100
AcDbLine
 10
359.685
 20
361.979
 30
0
 11
564.69
 21
361.979
 31
0
  0
LINE
  5
A55
330
A02
100
AcDbEntity
  8
View
100
AcDbLine
 10
188.69
 20
195.979
 30
0
 11
388.69
 21
195.979
 31
0
  0
LINE
  5
A56
330
A02
100
AcDbEntity
  8
View
100
AcDbLine
 10
188.69
 20
225.979
 30
0
 11
388.69
 21
225.979
 31
0
  0
SPLINE
  5
A57
330
A02
100
AcDbEntity
  8
View
100
AcDbSpline
210
0
220
0
230
1
 70
8
 71
3
 72
47
 73
43
 74
0
 40
0
 40
0
 40
0
 40
0
 40
0.0932931
 40
0.0932931
 40
0.0932931
 40
0.186586
 40
0.186586
 40
0.186586
 40
0.279879
 40
0.279879
 40
0.279879
 40
0.373172
 40
0.373172
 40
0.373172
 40
0.427768
 40
0.427768
 40
0.427768
 40
0.482364
 40
0.482364
 40
0.482364
 40
0.499797
 40
0.499797
 40
0.499797
 40
0.51601
 40
0.51601
 40
0.51601
 40
0.571419
 40
0.571419
 40
0.571419
 40
0.626828
 40
0.626828
 40
0.626828
 40
0.720121
 40
0.720121
 40
0.720121
 40
0.813414
 40
0.813414
 40
0.813414
 40
0.906707
 40
0.906707
 40
0.906707
 40
1
 40
1
 40
1
 40
1
 10
229.69
 20
361.147
 30
0
 10
229.693
 20
368.547
 30
0
 10
230.938
 20
375.944
 30
0
 10
233.487
 20
383.101
 30
0
 10
236.039
 20
390.252
 30
0
 10
239.897
 20
397.162
 30
0
 10
245.217
 20
403.43
 30
0
 10
248.443
 20
407.227
 30
0
 10
252.209
 20
410.779
 30
0
 10
256.533
 20
413.924
 30
0
 10
260.853
 20
417.067
 30
0
 10
265.735
 20
419.798
 30
0
 10
271.095
 20
421.892
 30
0
 10
274.229
 20
423.117
 30
0
 10
277.524
 20
424.122
 30
0
 10
280.924
 20
424.86
 30
0
 10
284.323
 20
425.6
 30
0
 10
287.828
 20
426.072
 30
0
 10
291.356
 20
426.253
 30
0
 10
292.483
 20
426.311
 30
0
 10
293.611
 20
426.34
 30
0
 10
294.74
 20
426.339
 30
0
 10
295.79
 20
426.338
 30
0
 10
296.839
 20
426.312
 30
0
 10
297.887
 20
426.26
 30
0
 10
301.468
 20
426.084
 30
0
 10
305.027
 20
425.607
 30
0
 10
308.476
 20
424.856
 30
0
 10
311.926
 20
424.105
 30
0
 10
315.267
 20
423.081
 30
0
 10
318.443
 20
421.83
 30
0
 10
323.631
 20
419.789
 30
0
 10
328.367
 20
417.148
 30
0
 10
332.578
 20
414.119
 30
0
 10
336.792
 20
411.087
 30
0
 10
340.481
 20
407.668
 30
0
 10
343.663
 20
404.013
 30
0
 10
349.158
 20
397.69
 30
0
 10
353.139
 20
390.688
 30
0
 10
355.774
 20
383.434
 30
0
 10
358.404
 20
376.174
 30
0
 10
359.688
 20
368.662
 30
0
 10
359.69
 20
361.147
 30
0
  0
LINE
  5
A58
330
A02
100
AcDbEntity
  8
View
100
AcDbLine
 10
385.69
 20
169.979
 30
0
 11
307.69
 21
169.979
 31
0
  0
LINE
  5
A59
330
A02
100
AcDbEntity
  8
View
100
AcDbLine
 10
282.69
 20
169.979
 30
0
 11
191.69
 21
169.979
 31
0
  0
LINE
  5
A5A
330
A02
100
AcDbEntity
  8
View
100
AcDbLine
 10
385.69
 20
165.979
 30
0
 11
307.69
 21
165.979
 31
0
  0
LINE
  5
A5B
330
A02
100
AcDbEntity
  8
View
100
AcDbLine
 10
282.69
 20
165.979
 30
0
 11
191.69
 21
165.979
 31
0
  0
LINE
  5
A5C
330
A02
100
AcDbEntity
  8
View
100
AcDbLine
 10
170.69
 20
197.979
 30
0
 11
170.69
 21
223.979
 31
0
  0
LINE
  5
A5D
330
A02
100
AcDbEntity
  8
View
100
AcDbLine
 10
170.69
 20
197.979
 30
0
 11
186.69
 21
197.979
 31
0
  0
LINE
  5
A5E
330
A02
100
AcDbEntity
  8
View
100
AcDbLine
 10
186.69
 20
197.979
 30
0
 11
186.69
 21
223.979
 31
0
  0
LINE
  5
A5F
330
A02
100
AcDbEntity
  8
View
100
AcDbLine
 10
170.69
 20
223.979
 30
0
 11
186.69
 21
223.979
 31
0
  0
LINE
  5
A60
330
A02
100
AcDbEntity
  8
View
100
AcDbLine
 10
390.69
 20
197.979
 30
0
 11
390.69
 21
223.979
 31
0
  0
LINE
  5
A61
330
A02
100
AcDbEntity
  8
View
100
AcDbLine
 10
390.69
 20
197.979
 30
0
 11
406.69
 21
197.979
 31
0
  0
LINE
  5
A62
330
A02
100
AcDbEntity
  8
View
100
AcDbLine
 10
406.69
 20
197.979
 30
0
 11
406.69
 21
223.979
 31
0
  0
LINE
  5
A63
330
A02
100
AcDbEntity
  8
View
100
AcDbLine
 10
390.69
 20
223.979
 30
0
 11
406.69
 21
223.979
 31
0
  0
DIMENSION
  5
A64
330
A02
100
AcDbEntity
  8
Dimension
100
AcDbDimension
  2
*Dimension
 10
166.69
 20
212.479
 30
0
 11
161.69
 21
212.479
 31
0
 70
1
  1
300
  3
STANDARD
100
AcDbAlignedDimension
 13
161.69
 23
359.979
 33
0
 14
161.69
 24
59.9792
 34
0
  0
DIMENSION
  5
A6E
330
A02
100
AcDbEntity
  8
Dimension001
100
AcDbDimension
  2
*Dimension001
 10
313.19
 20
57.4792
 30
0
 11
313.19
 21
62.4792
 31
0
 70
1
  1
505
  3
STANDARD
100
AcDbAlignedDimension
 13
60.69
 23
59.9792
 33
0
 14
565.69
 24
59.9792
 34
0
  0
DIMENSION
  5
A78
330
A02
100
AcDbEntity
  8
Dimension002
100
AcDbDimension
  2
*Dimension002
 10
288.69
 20
193.479
 30
0
 11
288.69
 21
198.479
 31
0
 70
1
  1
194
  3
STANDARD
100
AcDbAlignedDimension
 13
191.69
 23
195.979
 33
0
 14
385.69
 24
195.979
 34
0
  0
DIMENSION
  5
A82
330
A02
100
AcDbEntity
  8
Dimension003
100
AcDbDimension
  2
*Dimension003
 10
288.69
 20
163.479
 30
0
 11
288.69
 21
168.479
 31
0
 70
1
  1
194
  3
STANDARD
100
AcDbAlignedDimension
 13
191.69
 23
165.979
 33
0
 14
385.69
 24
165.979
 34
0
  0
DIMENSION
  5
A8C
330
A02
100
AcDbEntity
  8
Dimension004
100
AcDbDimension
  2
*Dimension004
 10
416.69
 20
288.107
 30
0
 11
411.69
 21
288.107
 31
0
 70
1
  1
120.92
  3
STANDARD
100
AcDbAlignedDimension
 13
411.69
 23
346.065
 33
0
 14
411.69
 24
225.15
 34
0
  0
DIMENSION
  5
A96
330
A02
100
AcDbEntity
  8
Dimension005
100
AcDbDimension
  2
*Dimension005
 10
304.69
 20
258.085
 30
0
 11
299.69
 21
258.085
 31
0
 70
1
  1
59.21
  3
STANDARD
100
AcDbAlignedDimension
 13
299.69
 23
285.191
 33
0
 14
299.69
 24
225.979
 34
0
  0
ENDSEC
  0
SECTION
  2
OBJECTS
  0
DICTIONARY
  5
F000
330
0
100
AcDbDictionary
  3
ACAD_GROUP
350
F001
  0
DICTIONARY
  5
F001
330
F000
100
AcDbDictionary
  0
ENDSEC
  0
EOF