999
FreeCAD v0.20 29410 (Git)
  0
SECTION
  2
HEADER
  9
$ACADVER
  1
AC1014
  9
$ACADMAINTVER
 70
     9
  9
$DWGCODEPAGE
  3
ANSI_1252
  9
$TEXTSTYLE
  7
STANDARD
  9
$DIMSTYLE
  2
STANDARD
  9
$DIMTXSTY
  7
STANDARD
  9
$CMLSTYLE
  2
STANDARD
  9
$LUNITS
 70
2
  9
$INSUNITS
 70
4
  9
$PEXTMAX
 10
50
 20
50
 30
50
  9
$PEXTMIN
 10
0
 20
0
 30
0
  9
$HANDSEED
  5
FFFF
  0
ENDSEC
  0
SECTION
  2
CLASSES
  0
CLASS
  1
ACDBDICTIONARYWDFLT
  2
AcDbDictionaryWithDefault
  3
ObjectDBX Classes
 90
        0
280
     0
281
     0
  0
CLASS
  1
XRECORD
  2
AcDbXrecord
  3
ObjectDBX Classes
 90
        0
280
     0
281
     0
  0
CLASS
  1
LWPOLYLINE
  2
AcDbPolyline
  3
ObjectDBX Classes
 90
        0
280
     0
281
     1
  0
ENDSEC
  0
SECTION
  2
TABLES
  0
TABLE
  2
VPORT
  5
20
330
0
100
AcDbSymbolTable
 70
     1
  0
VPORT
  5
21
330
20
100
AcDbSymbolTableRecord
100
AcDbViewportTableRecord
  2
*ACTIVE
 70
     0
  0
ENDTAB
  0
TABLE
  2
LTYPE
  5
22
330
0
100
AcDbSymbolTable
 70
     1
  0
LTYPE
  5
23
330
21
100
AcDbSymbolTableRecord
100
AcDbLinetypeTableRecord
  2
BYBLOCK
 70
     0
  3

 72
    65
 73
     0
 40
0.0
  0
LTYPE
  5
24
330
21
100
AcDbSymbolTableRecord
100
AcDbLinetypeTableRecord
  2
BYLAYER
 70
     0
  3

 72
    65
 73
     0
 40
0.0
  0
LTYPE
  5
25
330
21
100
AcDbSymbolTableRecord
100
AcDbLinetypeTableRecord
  2
CONTINUOUS
 70
     0
  3
Solid line
 72
    65
 73
     0
 40
0.0
  0
ENDTAB
  0
TABLE
  2
LAYER
  5
AFC
330
0
100
AcDbSymbolTable
 70
12
  0
LAYER
  5
AFD
330
AFC
100
AcDbSymbolTableRecord
100
AcDbLayerTableRecord
  2
0
 70
   0
 62
   7
  6
CONTINUOUS
  0
LAYER
  5
AFE
330
AFC
100
AcDbSymbolTableRecord
100
AcDbLayerTableRecord
  2
View002
 70
    0
 62
    7
  6
CONTINUOUS
  0
LAYER
  5
AFF
330
AFC
100
AcDbSymbolTableRecord
100
AcDbLayerTableRecord
  2
Dimension014
 70
    0
 62
    7
  6
CONTINUOUS
  0
LAYER
  5
B00
330
AFC
100
AcDbSymbolTableRecord
100
AcDbLayerTableRecord
  2
Dimension015
 70
    0
 62
    7
  6
CONTINUOUS
  0
LAYER
  5
B01
330
AFC
100
AcDbSymbolTableRecord
100
AcDbLayerTableRecord
  2
Dimension016
 70
    0
 62
    7
  6
CONTINUOUS
  0
LAYER
  5
B02
330
AFC
100
AcDbSymbolTableRecord
100
AcDbLayerTableRecord
  2
Dimension017
 70
    0
 62
    7
  6
CONTINUOUS
  0
LAYER
  5
B03
330
AFC
100
AcDbSymbolTableRecord
100
AcDbLayerTableRecord
  2
Dimension018
 70
    0
 62
    7
  6
CONTINUOUS
  0
LAYER
  5
B04
330
AFC
100
AcDbSymbolTableRecord
100
AcDbLayerTableRecord
  2
Dimension019
 70
    0
 62
    7
  6
CONTINUOUS
  0
LAYER
  5
B05
330
AFC
100
AcDbSymbolTableRecord
100
AcDbLayerTableRecord
  2
Dimension020
 70
    0
 62
    7
  6
CONTINUOUS
  0
LAYER
  5
B06
330
AFC
100
AcDbSymbolTableRecord
100
AcDbLayerTableRecord
  2
Dimension021
 70
    0
 62
    7
  6
CONTINUOUS
  0
LAYER
  5
B07
330
AFC
100
AcDbSymbolTableRecord
100
AcDbLayerTableRecord
  2
Dimension022
 70
    0
 62
    7
  6
CONTINUOUS
  0
LAYER
  5
B08
330
AFC
100
AcDbSymbolTableRecord
100
AcDbLayerTableRecord
  2
Dimension023
 70
    0
 62
    7
  6
CONTINUOUS
  0
ENDTAB
  0
TABLE
  2
STYLE
  5
70
330
0
100
AcDbSymbolTable
 70
     2
  0
STYLE
  5
71
330
70
100
AcDbSymbolTableRecord
100
AcDbTextStyleTableRecord
  2
STANDARD
 70
     0
 40
0.0
 41
1.0
 50
0.0
 71
     0
 42
2.5
  3
arial.ttf
  4

  0
STYLE
  5
72
330
70
100
AcDbSymbolTableRecord
100
AcDbTextStyleTableRecord
  2
ANNOTATIVE
 70
     0
 40
0.0
 41
1.0
 50
0.0
 71
     0
 42
2.5
  3
arial.ttf
  4

  0
ENDTAB
  0
TABLE
  2
VIEW
  5
73
330
0
100
AcDbSymbolTable
 70
     0
  0
ENDTAB
  0
TABLE
  2
UCS
  5
74
330
0
100
AcDbSymbolTable
 70
     0
  0
ENDTAB
  0
TABLE
  2
APPID
  5
75
330
0
100
AcDbSymbolTable
 70
     2
  0
APPID
  5
76
330
75
100
AcDbSymbolTableRecord
100
AcDbRegAppTableRecord
  2
ACAD
 70
     0
  0
APPID
  5
77
330
75
100
AcDbSymbolTableRecord
100
AcDbRegAppTableRecord
  2
ACADANNOTATIVE
 70
     0
  0
ENDTAB
  0
TABLE
  2
DIMSTYLE
  5
78
330
0
100
AcDbSymbolTable
 70
     2
  0
DIMSTYLE
105
79
330
78
100
AcDbSymbolTableRecord
100
AcDbDimStyleTableRecord
  2
STANDARD
 70
     0
  3

  4

  5

  6

  7

 40
0.0
 41
2.5
 42
0.625
 43
3.75
 44
1.25
 45
0.0
 46
0.0
 47
0.0
 48
0.0
140
2.5
141
2.5
142
0.0
143
0.03937007874016
144
1.0
145
0.0
146
1.0
147
0.625
 71
     0
 72
     0
 73
     0
 74
     0
 75
     0
 76
     0
 77
     1
 78
     8
170
     0
171
     3
172
     1
173
     0
174
     0
175
     0
176
     0
177
     0
178
     0
270
     2
271
     2
272
     2
273
     2
274
     3
340
71
275
     0
280
     0
281
     0
282
     0
283
     0
284
     8
285
     0
286
     0
287
     3
288
     0
  0
ENDTAB
  0
TABLE
  2
BLOCK_RECORD
  5
A01
330
0
100
AcDbSymbolTable
  70
5
  0
BLOCK_RECORD
  5
A02
330
A01
100
AcDbSymbolTableRecord
100
AcDbBlockTableRecord
  2
*MODEL_SPACE
  0
BLOCK_RECORD
  5
A03
330
A01
100
AcDbSymbolTableRecord
100
AcDbBlockTableRecord
  2
*PAPER_SPACE
  0
BLOCK_RECORD
  5
A99
330
A01
100
AcDbSymbolTableRecord
100
AcDbBlockTableRecord
  2
*Dimension014
  0
BLOCK_RECORD
  5
AA3
330
A01
100
AcDbSymbolTableRecord
100
AcDbBlockTableRecord
  2
*Dimension015
  0
BLOCK_RECORD
  5
AAD
330
A01
100
AcDbSymbolTableRecord
100
AcDbBlockTableRecord
  2
*Dimension016
  0
BLOCK_RECORD
  5
AB7
330
A01
100
AcDbSymbolTableRecord
100
AcDbBlockTableRecord
  2
*Dimension017
  0
BLOCK_RECORD
  5
AC1
330
A01
100
AcDbSymbolTableRecord
100
AcDbBlockTableRecord
  2
*Dimension018
  0
BLOCK_RECORD
  5
ACB
330
A01
100
AcDbSymbolTableRecord
100
AcDbBlockTableRecord
  2
*Dimension019
  0
BLOCK_RECORD
  5
AD5
330
A01
100
AcDbSymbolTableRecord
100
AcDbBlockTableRecord
  2
*Dimension020
  0
BLOCK_RECORD
  5
ADF
330
A01
100
AcDbSymbolTableRecord
100
AcDbBlockTableRecord
  2
*Dimension021
  0
BLOCK_RECORD
  5
AE9
330
A01
100
AcDbSymbolTableRecord
100
AcDbBlockTableRecord
  2
*Dimension022
  0
BLOCK_RECORD
  5
AF3
330
A01
100
AcDbSymbolTableRecord
100
AcDbBlockTableRecord
  2
*Dimension023
  0
ENDTAB
  0
ENDSEC
  0
SECTION
  2
BLOCKS
  0
BLOCK
  5
A04
330
A02
100
AcDbEntity
  8
0
100
AcDbBlockBegin
  2
*MODEL_SPACE
 70
   0
 10
0
 20
0
 30
0
  3
*MODEL_SPACE
  1
 
  0
ENDBLK
  5
A05
330
A02
100
AcDbEntity
  8
0
100
AcDbBlockEnd
  0
BLOCK
  5
A06
330
A03
100
AcDbEntity
 67
1
  8
0
100
AcDbBlockBegin
  2
*PAPER_SPACE
 70
   0
 10
0
 20
0
 30
0
  3
*PAPER_SPACE
  1
 
  0
ENDBLK
  5
A07
330
A03
100
AcDbEntity
 67
    1
  8
0
100
AcDbBlockEnd
  0
BLOCK
  5
A9A
330
A99
100
AcDbEntity
  8
Dimension014
100
AcDbBlockBegin
  2
*Dimension014
 70
   1
 10
0
 20
0
 30
0
  3
*Dimension014
  1
 
  0
LINE
  5
A9B
330
A99
100
AcDbEntity
  8
Dimension014
100
AcDbLine
 10
431.742
 20
61.7214
 30
0
 11
431.574
 21
61.4314
 31
0
  0
LINE
  5
A9C
330
A99
100
AcDbEntity
  8
Dimension014
100
AcDbLine
 10
42.8331
 20
286.258
 30
0
 11
42.6656
 21
285.968
 31
0
  0
LINE
  5
A9D
330
A99
100
AcDbEntity
  8
Dimension014
100
AcDbLine
 10
42.6656
 20
285.968
 30
0
 11
431.574
 21
61.4314
 31
0
  0
TEXT
  5
A9E
330
A99
100
AcDbEntity
  8
Dimension014
100
AcDbText
 10
237.287
 20
176.49
 30
0
 40
3.5
  1
449.07
  7
STANDARD
 72
1
 11
239.787
 21
172.16
 31
0
100
AcDbText
  0
SOLID
  5
A9F
330
A99
100
AcDbEntity
  8
0
 62
     0
100
AcDbTrace
 10
47.2041
 20
283.829
 30
0
 11
46.7874
 21
283.107
 31
0
 12
42.6656
 22
285.968
 32
0
 13
42.6656
 23
285.968
 33
0
  0
SOLID
  5
AA0
330
A99
100
AcDbEntity
  8
0
 62
     0
100
AcDbTrace
 10
427.453
 20
64.2922
 30
0
 11
427.036
 21
63.5705
 31
0
 12
431.574
 22
61.4314
 32
0
 13
431.574
 23
61.4314
 33
0
  0
ENDBLK
  5
AA1
330
A99
100
AcDbEntity
  8
Dimension014
100
AcDbBlockEnd
  0
BLOCK
  5
AA4
330
AA3
100
AcDbEntity
  8
Dimension015
100
AcDbBlockBegin
  2
*Dimension015
 70
   1
 10
0
 20
0
 30
0
  3
*Dimension015
  1
 
  0
LINE
  5
AA5
330
AA3
100
AcDbEntity
  8
Dimension015
100
AcDbLine
 10
426.085
 20
96.8308
 30
0
 11
425.918
 21
96.5407
 31
0
  0
LINE
  5
AA6
330
AA3
100
AcDbEntity
  8
Dimension015
100
AcDbLine
 10
68.9961
 20
302.996
 30
0
 11
68.8286
 21
302.706
 31
0
  0
LINE
  5
AA7
330
AA3
100
AcDbEntity
  8
Dimension015
100
AcDbLine
 10
68.8286
 20
302.706
 30
0
 11
425.918
 21
96.5407
 31
0
  0
TEXT
  5
AA8
330
AA3
100
AcDbEntity
  8
Dimension015
100
AcDbText
 10
247.541
 20
202.413
 30
0
 40
3.5
  1
412.33
  7
STANDARD
 72
1
 11
250.041
 21
198.083
 31
0
100
AcDbText
  0
SOLID
  5
AA9
330
AA3
100
AcDbEntity
  8
0
 62
     0
100
AcDbTrace
 10
73.367
 20
300.567
 30
0
 11
72.9504
 21
299.845
 31
0
 12
68.8286
 22
302.706
 32
0
 13
68.8286
 23
302.706
 33
0
  0
SOLID
  5
AAA
330
AA3
100
AcDbEntity
  8
0
 62
     0
100
AcDbTrace
 10
421.796
 20
99.4016
 30
0
 11
421.379
 21
98.6799
 31
0
 12
425.918
 22
96.5407
 32
0
 13
425.918
 23
96.5407
 33
0
  0
ENDBLK
  5
AAB
330
AA3
100
AcDbEntity
  8
Dimension015
100
AcDbBlockEnd
  0
BLOCK
  5
AAE
330
AAD
100
AcDbEntity
  8
Dimension016
100
AcDbBlockBegin
  2
*Dimension016
 70
   1
 10
0
 20
0
 30
0
  3
*Dimension016
  1
 
  0
LINE
  5
AAF
330
AAD
100
AcDbEntity
  8
Dimension016
100
AcDbLine
 10
447.298
 20
88.6658
 30
0
 11
452.298
 21
88.6658
 31
0
  0
LINE
  5
AB0
330
AAD
100
AcDbEntity
  8
Dimension016
100
AcDbLine
 10
447.298
 20
109.078
 30
0
 11
452.298
 21
109.078
 31
0
  0
LINE
  5
AB1
330
AAD
100
AcDbEntity
  8
Dimension016
100
AcDbLine
 10
452.298
 20
109.078
 30
0
 11
452.298
 21
88.6658
 31
0
  0
TEXT
  5
AB2
330
AAD
100
AcDbEntity
  8
Dimension016
100
AcDbText
 10
447.298
 20
101.372
 30
0
 40
3.5
  1
20.41
  7
STANDARD
 72
1
 11
452.298
 21
101.372
 31
0
100
AcDbText
  0
SOLID
  5
AB3
330
AAD
100
AcDbEntity
  8
0
 62
     0
100
AcDbTrace
 10
451.882
 20
104.078
 30
0
 11
452.715
 21
104.078
 31
0
 12
452.298
 22
109.078
 32
0
 13
452.298
 23
109.078
 33
0
  0
SOLID
  5
AB4
330
AAD
100
AcDbEntity
  8
0
 62
     0
100
AcDbTrace
 10
451.882
 20
93.6658
 30
0
 11
452.715
 21
93.6658
 31
0
 12
452.298
 22
88.6658
 32
0
 13
452.298
 23
88.6658
 33
0
  0
ENDBLK
  5
AB5
330
AAD
100
AcDbEntity
  8
Dimension016
100
AcDbBlockEnd
  0
BLOCK
  5
AB8
330
AB7
100
AcDbEntity
  8
Dimension017
100
AcDbBlockBegin
  2
*Dimension017
 70
   1
 10
0
 20
0
 30
0
  3
*Dimension017
  1
 
  0
LINE
  5
AB9
330
AB7
100
AcDbEntity
  8
Dimension017
100
AcDbLine
 10
654.48
 20
198.485
 30
0
 11
654.648
 21
198.195
 31
0
  0
LINE
  5
ABA
330
AB7
100
AcDbEntity
  8
Dimension017
100
AcDbLine
 10
431.742
 20
69.8864
 30
0
 11
431.909
 21
69.5963
 31
0
  0
LINE
  5
ABB
330
AB7
100
AcDbEntity
  8
Dimension017
100
AcDbLine
 10
431.909
 20
69.5963
 30
0
 11
654.648
 21
198.195
 31
0
  0
TEXT
  5
ABC
330
AB7
100
AcDbEntity
  8
Dimension017
100
AcDbText
 10
543.111
 20
136.686
 30
0
 40
3.5
  1
257.2
  7
STANDARD
 72
1
 11
540.611
 21
132.355
 31
0
100
AcDbText
  0
SOLID
  5
ABD
330
AB7
100
AcDbEntity
  8
0
 62
     0
100
AcDbTrace
 10
436.031
 20
72.4572
 30
0
 11
436.448
 21
71.7355
 31
0
 12
431.909
 22
69.5963
 32
0
 13
431.909
 23
69.5963
 33
0
  0
SOLID
  5
ABE
330
AB7
100
AcDbEntity
  8
0
 62
     0
100
AcDbTrace
 10
650.109
 20
196.055
 30
0
 11
650.526
 21
195.334
 31
0
 12
654.648
 22
198.195
 32
0
 13
654.648
 23
198.195
 33
0
  0
ENDBLK
  5
ABF
330
AB7
100
AcDbEntity
  8
Dimension017
100
AcDbBlockEnd
  0
BLOCK
  5
AC2
330
AC1
100
AcDbEntity
  8
Dimension018
100
AcDbBlockBegin
  2
*Dimension018
 70
   1
 10
0
 20
0
 30
0
  3
*Dimension018
  1
 
  0
LINE
  5
AC3
330
AC1
100
AcDbEntity
  8
Dimension018
100
AcDbLine
 10
320.019
 20
176.847
 30
0
 11
317.686
 21
180.888
 31
0
  0
LINE
  5
AC4
330
AC1
100
AcDbEntity
  8
Dimension018
100
AcDbLine
 10
532.151
 20
299.322
 30
0
 11
529.818
 21
303.362
 31
0
  0
LINE
  5
AC5
330
AC1
100
AcDbEntity
  8
Dimension018
100
AcDbLine
 10
529.818
 20
303.362
 30
0
 11
317.686
 21
180.888
 31
0
  0
TEXT
  5
AC6
330
AC1
100
AcDbEntity
  8
Dimension018
100
AcDbText
 10
426.085
 20
240.585
 30
0
 40
3.5
  1
244.95
  7
STANDARD
 72
1
 11
428.585
 21
244.915
 31
0
100
AcDbText
  0
SOLID
  5
AC7
330
AC1
100
AcDbEntity
  8
0
 62
     0
100
AcDbTrace
 10
525.697
 20
300.501
 30
0
 11
525.28
 21
301.223
 31
0
 12
529.818
 22
303.362
 32
0
 13
529.818
 23
303.362
 33
0
  0
SOLID
  5
AC8
330
AC1
100
AcDbEntity
  8
0
 62
     0
100
AcDbTrace
 10
322.225
 20
183.027
 30
0
 11
321.808
 21
183.748
 31
0
 12
317.686
 22
180.888
 32
0
 13
317.686
 23
180.888
 33
0
  0
ENDBLK
  5
AC9
330
AC1
100
AcDbEntity
  8
Dimension018
100
AcDbBlockEnd
  0
BLOCK
  5
ACC
330
ACB
100
AcDbEntity
  8
Dimension019
100
AcDbBlockBegin
  2
*Dimension019
 70
   1
 10
0
 20
0
 30
0
  3
*Dimension019
  1
 
  0
LINE
  5
ACD
330
ACB
100
AcDbEntity
  8
Dimension019
100
AcDbLine
 10
397.094
 20
349.536
 30
0
 11
396.926
 21
349.246
 31
0
  0
LINE
  5
ACE
330
ACB
100
AcDbEntity
  8
Dimension019
100
AcDbLine
 10
255.672
 20
431.186
 30
0
 11
255.505
 21
430.896
 31
0
  0
LINE
  5
ACF
330
ACB
100
AcDbEntity
  8
Dimension019
100
AcDbLine
 10
255.505
 20
430.896
 30
0
 11
396.926
 21
349.246
 31
0
  0
TEXT
  5
AD0
330
ACB
100
AcDbEntity
  8
Dimension019
100
AcDbText
 10
326.383
 20
392.861
 30
0
 40
3.5
  1
163.3
  7
STANDARD
 72
1
 11
328.883
 21
388.531
 31
0
100
AcDbText
  0
SOLID
  5
AD1
330
ACB
100
AcDbEntity
  8
0
 62
     0
100
AcDbTrace
 10
260.043
 20
428.757
 30
0
 11
259.627
 21
428.035
 31
0
 12
255.505
 22
430.896
 32
0
 13
255.505
 23
430.896
 33
0
  0
SOLID
  5
AD2
330
ACB
100
AcDbEntity
  8
0
 62
     0
100
AcDbTrace
 10
392.804
 20
352.107
 30
0
 11
392.388
 21
351.386
 31
0
 12
396.926
 22
349.246
 32
0
 13
396.926
 23
349.246
 33
0
  0
ENDBLK
  5
AD3
330
ACB
100
AcDbEntity
  8
Dimension019
100
AcDbBlockEnd
  0
BLOCK
  5
AD6
330
AD5
100
AcDbEntity
  8
Dimension020
100
AcDbBlockBegin
  2
*Dimension020
 70
   1
 10
0
 20
0
 30
0
  3
*Dimension020
  1
 
  0
LINE
  5
AD7
330
AD5
100
AcDbEntity
  8
Dimension020
100
AcDbLine
 10
362.567
 20
225.907
 30
0
 11
362.399
 21
225.617
 31
0
  0
LINE
  5
AD8
330
AD5
100
AcDbEntity
  8
Dimension020
100
AcDbLine
 10
232.752
 20
300.856
 30
0
 11
232.584
 21
300.566
 31
0
  0
LINE
  5
AD9
330
AD5
100
AcDbEntity
  8
Dimension020
100
AcDbLine
 10
232.584
 20
300.566
 30
0
 11
362.399
 21
225.617
 31
0
  0
TEXT
  5
ADA
330
AD5
100
AcDbEntity
  8
Dimension020
100
AcDbText
 10
297.659
 20
265.882
 30
0
 40
3.5
  1
149.9
  7
STANDARD
 72
1
 11
300.159
 21
261.551
 31
0
100
AcDbText
  0
SOLID
  5
ADB
330
AD5
100
AcDbEntity
  8
0
 62
     0
100
AcDbTrace
 10
237.123
 20
298.427
 30
0
 11
236.706
 21
297.705
 31
0
 12
232.584
 22
300.566
 32
0
 13
232.584
 23
300.566
 33
0
  0
SOLID
  5
ADC
330
AD5
100
AcDbEntity
  8
0
 62
     0
100
AcDbTrace
 10
358.277
 20
228.478
 30
0
 11
357.861
 21
227.756
 31
0
 12
362.399
 22
225.617
 32
0
 13
362.399
 23
225.617
 33
0
  0
ENDBLK
  5
ADD
330
AD5
100
AcDbEntity
  8
Dimension020
100
AcDbBlockEnd
  0
BLOCK
  5
AE0
330
ADF
100
AcDbEntity
  8
Dimension021
100
AcDbBlockBegin
  2
*Dimension021
 70
   1
 10
0
 20
0
 30
0
  3
*Dimension021
  1
 
  0
LINE
  5
AE1
330
ADF
100
AcDbEntity
  8
Dimension021
100
AcDbLine
 10
394.972
 20
244.617
 30
0
 11
394.805
 21
244.327
 31
0
  0
LINE
  5
AE2
330
ADF
100
AcDbEntity
  8
Dimension021
100
AcDbLine
 10
253.551
 20
326.266
 30
0
 11
253.383
 21
325.976
 31
0
  0
LINE
  5
AE3
330
ADF
100
AcDbEntity
  8
Dimension021
100
AcDbLine
 10
253.383
 20
325.976
 30
0
 11
394.805
 21
244.327
 31
0
  0
TEXT
  5
AE4
330
ADF
100
AcDbEntity
  8
Dimension021
100
AcDbText
 10
324.262
 20
287.942
 30
0
 40
3.5
  1
163.3
  7
STANDARD
 72
1
 11
326.762
 21
283.611
 31
0
100
AcDbText
  0
SOLID
  5
AE5
330
ADF
100
AcDbEntity
  8
0
 62
     0
100
AcDbTrace
 10
257.922
 20
323.837
 30
0
 11
257.505
 21
323.115
 31
0
 12
253.383
 22
325.976
 32
0
 13
253.383
 23
325.976
 33
0
  0
SOLID
  5
AE6
330
ADF
100
AcDbEntity
  8
0
 62
     0
100
AcDbTrace
 10
390.683
 20
247.187
 30
0
 11
390.266
 21
246.466
 31
0
 12
394.805
 22
244.327
 32
0
 13
394.805
 23
244.327
 33
0
  0
ENDBLK
  5
AE7
330
ADF
100
AcDbEntity
  8
Dimension021
100
AcDbBlockEnd
  0
BLOCK
  5
AEA
330
AE9
100
AcDbEntity
  8
Dimension022
100
AcDbBlockBegin
  2
*Dimension022
 70
   1
 10
0
 20
0
 30
0
  3
*Dimension022
  1
 
  0
LINE
  5
AEB
330
AE9
100
AcDbEntity
  8
Dimension022
100
AcDbLine
 10
492.417
 20
575.757
 30
0
 11
489.169
 21
577.632
 31
0
  0
LINE
  5
AEC
330
AE9
100
AcDbEntity
  8
Dimension022
100
AcDbLine
 10
302.917
 20
247.533
 30
0
 11
299.669
 21
249.408
 31
0
  0
LINE
  5
AED
330
AE9
100
AcDbEntity
  8
Dimension022
100
AcDbLine
 10
299.669
 20
249.408
 30
0
 11
489.169
 21
577.632
 31
0
  0
TEXT
  5
AEE
330
AE9
100
AcDbEntity
  8
Dimension022
100
AcDbText
 10
397.667
 20
414.145
 30
0
 40
3.5
  1
379
  7
STANDARD
 72
1
 11
393.337
 21
411.645
 31
0
100
AcDbText
  0
SOLID
  5
AEF
330
AE9
100
AcDbEntity
  8
0
 62
     0
100
AcDbTrace
 10
302.53
 20
253.53
 30
0
 11
301.809
 21
253.947
 31
0
 12
299.669
 22
249.408
 32
0
 13
299.669
 23
249.408
 33
0
  0
SOLID
  5
AF0
330
AE9
100
AcDbEntity
  8
0
 62
     0
100
AcDbTrace
 10
487.03
 20
573.093
 30
0
 11
486.309
 21
573.51
 31
0
 12
489.169
 22
577.632
 32
0
 13
489.169
 23
577.632
 33
0
  0
ENDBLK
  5
AF1
330
AE9
100
AcDbEntity
  8
Dimension022
100
AcDbBlockEnd
  0
BLOCK
  5
AF4
330
AF3
100
AcDbEntity
  8
Dimension023
100
AcDbBlockBegin
  2
*Dimension023
 70
   1
 10
0
 20
0
 30
0
  3
*Dimension023
  1
 
  0
LINE
  5
AF5
330
AF3
100
AcDbEntity
  8
Dimension023
100
AcDbLine
 10
241.53
 20
330.757
 30
0
 11
246.53
 21
330.757
 31
0
  0
LINE
  5
AF6
330
AF3
100
AcDbEntity
  8
Dimension023
100
AcDbLine
 10
241.53
 20
574.073
 30
0
 11
246.53
 21
574.073
 31
0
  0
LINE
  5
AF7
330
AF3
100
AcDbEntity
  8
Dimension023
100
AcDbLine
 10
246.53
 20
574.073
 30
0
 11
246.53
 21
330.757
 31
0
  0
TEXT
  5
AF8
330
AF3
100
AcDbEntity
  8
Dimension023
100
AcDbText
 10
241.53
 20
454.915
 30
0
 40
3.5
  1
243.32
  7
STANDARD
 72
1
 11
246.53
 21
454.915
 31
0
100
AcDbText
  0
SOLID
  5
AF9
330
AF3
100
AcDbEntity
  8
0
 62
     0
100
AcDbTrace
 10
246.113
 20
569.073
 30
0
 11
246.947
 21
569.073
 31
0
 12
246.53
 22
574.073
 32
0
 13
246.53
 23
574.073
 33
0
  0
SOLID
  5
AFA
330
AF3
100
AcDbEntity
  8
0
 62
     0
100
AcDbTrace
 10
246.113
 20
335.757
 30
0
 11
246.947
 21
335.757
 31
0
 12
246.53
 22
330.757
 32
0
 13
246.53
 23
330.757
 33
0
  0
ENDBLK
  5
AFB
330
AF3
100
AcDbEntity
  8
Dimension023
100
AcDbBlockEnd
  0
ENDSEC
  0
SECTION
  2
ENTITIES
  0
LINE
  5
A08
330
A02
100
AcDbEntity
  8
View002
100
AcDbLine
 10
294.432
 20
252.432
 30
0
 11
355.073
 21
357.467
 31
0
  0
LINE
  5
A09
330
A02
100
AcDbEntity
  8
View002
100
AcDbLine
 10
372.751
 20
388.086
 30
0
 11
377.962
 21
397.112
 31
0
  0
LINE
  5
A0A
330
A02
100
AcDbEntity
  8
View002
100
AcDbLine
 10
382.622
 20
405.183
 30
0
 11
394.432
 21
425.637
 31
0
  0
LINE
  5
A0B
330
A02
100
AcDbEntity
  8
View002
100
AcDbLine
 10
315.609
 20
240.205
 30
0
 11
312.109
 21
242.226
 31
0
  0
LINE
  5
A0C
330
A02
100
AcDbEntity
  8
View002
100
AcDbLine
 10
312.109
 20
242.226
 30
0
 11
372.751
 21
347.261
 31
0
  0
LINE
  5
A0D
330
A02
100
AcDbEntity
  8
View002
100
AcDbLine
 10
390.429
 20
377.879
 30
0
 11
397.094
 21
389.423
 31
0
  0
LINE
  5
A0E
330
A02
100
AcDbEntity
  8
View002
100
AcDbLine
 10
315.609
 20
240.205
 30
0
 11
321.157
 21
249.815
 31
0
  0
LINE
  5
A0F
330
A02
100
AcDbEntity
  8
View002
100
AcDbLine
 10
323.157
 20
253.279
 30
0
 11
376.251
 21
345.24
 31
0
  0
LINE
  5
A10
330
A02
100
AcDbEntity
  8
View002
100
AcDbLine
 10
393.929
 20
375.859
 30
0
 11
397.094
 21
381.34
 31
0
  0
LINE
  5
A11
330
A02
100
AcDbEntity
  8
View002
100
AcDbLine
 10
294.432
 20
252.432
 30
0
 11
312.109
 21
242.226
 31
0
  0
SPLINE
  5
A12
330
A02
100
AcDbEntity
  8
View002
100
AcDbSpline
210
0
220
0
230
1
 70
8
 71
3
 72
53
 73
49
 74
0
 40
4.84642
 40
4.84642
 40
4.84642
 40
4.84642
 40
5.02602
 40
5.02602
 40
5.02602
 40
5.20561
 40
5.20561
 40
5.20561
 40
5.38521
 40
5.38521
 40
5.38521
 40
5.5648
 40
5.5648
 40
5.5648
 40
5.7444
 40
5.7444
 40
5.7444
 40
5.92399
 40
5.92399
 40
5.92399
 40
6.10359
 40
6.10359
 40
6.10359
 40
6.28319
 40
6.28319
 40
6.28319
 40
6.47953
 40
6.47953
 40
6.47953
 40
6.67588
 40
6.67588
 40
6.67588
 40
6.87223
 40
6.87223
 40
6.87223
 40
7.06858
 40
7.06858
 40
7.06858
 40
7.26493
 40
7.26493
 40
7.26493
 40
7.46128
 40
7.46128
 40
7.46128
 40
7.65763
 40
7.65763
 40
7.65763
 40
7.85398
 40
7.85398
 40
7.85398
 40
7.85398
 10
397.094
 20
423.739
 30
0
 10
394.831
 20
425.768
 30
0
 10
392.743
 20
428.215
 30
0
 10
390.915
 20
431.084
 30
0
 10
389.087
 20
433.951
 30
0
 10
387.519
 20
437.24
 30
0
 10
386.286
 20
440.911
 30
0
 10
385.051
 20
444.581
 30
0
 10
384.15
 20
448.632
 30
0
 10
383.63
 20
452.978
 30
0
 10
383.107
 20
457.323
 30
0
 10
382.965
 20
461.962
 30
0
 10
383.21
 20
466.771
 30
0
 10
383.453
 20
471.581
 30
0
 10
384.082
 20
476.56
 30
0
 10
385.063
 20
481.572
 30
0
 10
386.043
 20
486.584
 30
0
 10
387.375
 20
491.628
 30
0
 10
388.993
 20
496.576
 30
0
 10
390.61
 20
501.525
 30
0
 10
392.513
 20
506.378
 30
0
 10
394.618
 20
511.033
 30
0
 10
396.723
 20
515.69
 30
0
 10
399.03
 20
520.151
 30
0
 10
401.455
 20
524.351
 30
0
 10
404.106
 20
528.943
 30
0
 10
407.098
 20
533.569
 30
0
 10
410.411
 20
538.09
 30
0
 10
413.722
 20
542.611
 30
0
 10
417.356
 20
547.027
 30
0
 10
421.246
 20
551.178
 30
0
 10
425.135
 20
555.329
 30
0
 10
429.28
 20
559.212
 30
0
 10
433.572
 20
562.676
 30
0
 10
437.862
 20
566.141
 30
0
 10
442.296
 20
569.184
 30
0
 10
446.737
 20
571.692
 30
0
 10
451.177
 20
574.203
 30
0
 10
455.622
 20
576.178
 30
0
 10
459.931
 20
577.573
 30
0
 10
464.241
 20
578.97
 30
0
 10
468.414
 20
579.788
 30
0
 10
472.339
 20
580.052
 30
0
 10
476.265
 20
580.319
 30
0
 10
479.942
 20
580.035
 30
0
 10
483.302
 20
579.284
 30
0
 10
486.664
 20
578.535
 30
0
 10
489.709
 20
577.321
 30
0
 10
492.417
 20
575.757
 30
0
  0
SPLINE
  5
A13
330
A02
100
AcDbEntity
  8
View002
100
AcDbSpline
210
0
220
0
230
1
 70
8
 71
3
 72
41
 73
37
 74
0
 40
5.26393
 40
5.26393
 40
5.26393
 40
5.26393
 40
5.51875
 40
5.51875
 40
5.51875
 40
5.77356
 40
5.77356
 40
5.77356
 40
6.02837
 40
6.02837
 40
6.02837
 40
6.28319
 40
6.28319
 40
6.28319
 40
6.47953
 40
6.47953
 40
6.47953
 40
6.67588
 40
6.67588
 40
6.67588
 40
6.87223
 40
6.87223
 40
6.87223
 40
7.06858
 40
7.06858
 40
7.06858
 40
7.26493
 40
7.26493
 40
7.26493
 40
7.46128
 40
7.46128
 40
7.46128
 40
7.65763
 40
7.65763
 40
7.65763
 40
7.85398
 40
7.85398
 40
7.85398
 40
7.85398
 10
432.449
 20
417.319
 30
0
 10
437.969
 20
418.843
 30
0
 10
443.759
 20
421.353
 30
0
 10
449.519
 20
424.759
 30
0
 10
455.279
 20
428.158
 30
0
 10
461
 20
432.447
 30
0
 10
466.391
 20
437.352
 30
0
 10
471.785
 20
442.255
 30
0
 10
476.845
 20
447.765
 30
0
 10
481.381
 20
453.533
 30
0
 10
485.922
 20
459.301
 30
0
 10
489.94
 20
465.32
 30
0
 10
493.379
 20
471.278
 30
0
 10
496.03
 20
475.87
 30
0
 10
498.541
 20
480.774
 30
0
 10
500.8
 20
485.904
 30
0
 10
503.06
 20
491.033
 30
0
 10
505.067
 20
496.387
 30
0
 10
506.716
 20
501.832
 30
0
 10
508.367
 20
507.275
 30
0
 10
509.657
 20
512.807
 30
0
 10
510.511
 20
518.255
 30
0
 10
511.367
 20
523.703
 30
0
 10
511.785
 20
529.064
 30
0
 10
511.737
 20
534.164
 30
0
 10
511.691
 20
539.265
 30
0
 10
511.179
 20
544.102
 30
0
 10
510.233
 20
548.531
 30
0
 10
509.288
 20
552.963
 30
0
 10
507.909
 20
556.985
 30
0
 10
506.176
 20
560.517
 30
0
 10
504.444
 20
564.05
 30
0
 10
502.359
 20
567.092
 30
0
 10
500.029
 20
569.627
 30
0
 10
497.699
 20
572.164
 30
0
 10
495.125
 20
574.194
 30
0
 10
492.417
 20
575.757
 30
0
  0
SPLINE
  5
A14
330
A02
100
AcDbEntity
  8
View002
100
AcDbSpline
210
0
220
0
230
1
 70
8
 71
1
 72
4
 73
2
 74
0
 40
-21.6205
 40
-21.6205
 40
65
 40
65
 10
432.449
 20
471.889
 30
0
 10
492.417
 20
575.757
 30
0
  0
LINE
  5
A15
330
A02
100
AcDbEntity
  8
View002
100
AcDbLine
 10
390.172
 20
407.206
 30
0
 11
355.654
 21
397.957
 31
0
  0
LINE
  5
A16
330
A02
100
AcDbEntity
  8
View002
100
AcDbLine
 10
397.094
 20
402.392
 30
0
 11
397.06
 21
402.229
 31
0
  0
LINE
  5
A17
330
A02
100
AcDbEntity
  8
View002
100
AcDbLine
 10
397.06
 20
402.229
 30
0
 11
363.725
 21
393.297
 31
0
  0
LINE
  5
A18
330
A02
100
AcDbEntity
  8
View002
100
AcDbLine
 10
397.094
 20
403.083
 30
0
 11
362.725
 21
393.874
 31
0
  0
LINE
  5
A19
330
A02
100
AcDbEntity
  8
View002
100
AcDbLine
 10
390.172
 20
407.206
 30
0
 11
397.094
 21
403.21
 31
0
  0
LINE
  5
A1A
330
A02
100
AcDbEntity
  8
View002
100
AcDbLine
 10
394.73
 20
425.465
 30
0
 11
394.949
 21
425.846
 31
0
  0
LINE
  5
A1B
330
A02
100
AcDbEntity
  8
View002
100
AcDbLine
 10
396.31
 20
428.203
 30
0
 11
397.094
 21
427.184
 31
0
  0
LINE
  5
A1C
330
A02
100
AcDbEntity
  8
View002
100
AcDbLine
 10
393.31
 20
423.007
 30
0
 11
397.094
 21
421.754
 31
0
  0
LINE
  5
A1D
330
A02
100
AcDbEntity
  8
View002
100
AcDbLine
 10
241.53
 20
330.757
 30
0
 11
241.53
 21
574.073
 31
0
  0
LINE
  5
A1E
330
A02
100
AcDbEntity
  8
View002
100
AcDbLine
 10
255.672
 20
322.592
 30
0
 11
255.672
 21
565.908
 31
0
  0
SPLINE
  5
A1F
330
A02
100
AcDbEntity
  8
View002
100
AcDbSpline
210
0
220
0
230
1
 70
8
 71
2
 72
28
 73
25
 74
0
 40
3.14159
 40
3.14159
 40
3.14159
 40
3.19769
 40
3.19769
 40
3.25379
 40
3.25379
 40
3.30989
 40
3.30989
 40
3.36599
 40
3.36599
 40
3.42209
 40
3.42209
 40
3.47819
 40
3.47819
 40
3.53429
 40
3.53429
 40
3.59039
 40
3.59039
 40
3.64649
 40
3.64649
 40
3.70259
 40
3.70259
 40
3.81479
 40
3.81479
 40
3.92699
 40
3.92699
 40
3.92699
 10
241.53
 20
574.073
 30
0
 10
241.532
 20
574.119
 30
0
 10
241.535
 20
574.165
 30
0
 10
241.541
 20
574.21
 30
0
 10
241.548
 20
574.256
 30
0
 10
241.559
 20
574.301
 30
0
 10
241.57
 20
574.347
 30
0
 10
241.586
 20
574.391
 30
0
 10
241.601
 20
574.436
 30
0
 10
241.621
 20
574.481
 30
0
 10
241.641
 20
574.525
 30
0
 10
241.665
 20
574.569
 30
0
 10
241.689
 20
574.612
 30
0
 10
241.717
 20
574.655
 30
0
 10
241.745
 20
574.698
 30
0
 10
241.778
 20
574.74
 30
0
 10
241.81
 20
574.782
 30
0
 10
241.847
 20
574.822
 30
0
 10
241.883
 20
574.863
 30
0
 10
241.923
 20
574.902
 30
0
 10
241.964
 20
574.942
 30
0
 10
242.05
 20
575.019
 30
0
 10
242.147
 20
575.091
 30
0
 10
242.248
 20
575.162
 30
0
 10
242.359
 20
575.228
 30
0
  0
SPLINE
  5
A20
330
A02
100
AcDbEntity
  8
View002
100
AcDbSpline
210
0
220
0
230
1
 70
8
 71
3
 72
20
 73
16
 74
0
 40
3.92699
 40
3.92699
 40
3.92699
 40
3.92699
 40
3.98309
 40
3.98309
 40
3.98309
 40
4.09529
 40
4.09529
 40
4.09529
 40
4.20749
 40
4.20749
 40
4.20749
 40
4.31969
 40
4.31969
 40
4.31969
 40
4.71239
 40
4.71239
 40
4.71239
 40
4.71239
 10
242.359
 20
575.228
 30
0
 10
242.397
 20
575.249
 30
0
 10
242.435
 20
575.27
 30
0
 10
242.474
 20
575.291
 30
0
 10
242.554
 20
575.331
 30
0
 10
242.636
 20
575.369
 30
0
 10
242.722
 20
575.405
 30
0
 10
242.809
 20
575.44
 30
0
 10
242.898
 20
575.472
 30
0
 10
242.99
 20
575.502
 30
0
 10
243.084
 20
575.531
 30
0
 10
243.179
 20
575.558
 30
0
 10
243.276
 20
575.582
 30
0
 10
243.619
 20
575.663
 30
0
 10
243.988
 20
575.705
 30
0
 10
244.359
 20
575.706
 30
0
  0
SPLINE
  5
A21
330
A02
100
AcDbEntity
  8
View002
100
AcDbSpline
210
0
220
0
230
1
 70
8
 71
3
 72
11
 73
7
 74
0
 40
0.785398
 40
0.785398
 40
0.785398
 40
0.785398
 40
1.1781
 40
1.1781
 40
1.1781
 40
1.5708
 40
1.5708
 40
1.5708
 40
1.5708
 10
262.743
 20
586.997
 30
0
 10
262.743
 20
586.996
 30
0
 10
262.743
 20
586.936
 30
0
 10
262.743
 20
586.821
 30
0
 10
262.743
 20
586.705
 30
0
 10
262.743
 20
586.534
 30
0
 10
262.743
 20
586.32
 30
0
  0
LINE
  5
A22
330
A02
100
AcDbEntity
  8
View002
100
AcDbLine
 10
276.885
 20
337.289
 30
0
 11
276.885
 21
400.678
 31
0
  0
LINE
  5
A23
330
A02
100
AcDbEntity
  8
View002
100
AcDbLine
 10
276.885
 20
443.434
 30
0
 11
276.885
 21
578.156
 31
0
  0
SPLINE
  5
A24
330
A02
100
AcDbEntity
  8
View002
100
AcDbSpline
210
0
220
0
230
1
 70
8
 71
2
 72
28
 73
25
 74
0
 40
3.14159
 40
3.14159
 40
3.14159
 40
3.25379
 40
3.25379
 40
3.36599
 40
3.36599
 40
3.47819
 40
3.47819
 40
3.59039
 40
3.59039
 40
3.70259
 40
3.70259
 40
3.92699
 40
3.92699
 40
4.03919
 40
4.03919
 40
4.26359
 40
4.26359
 40
4.37579
 40
4.37579
 40
4.48799
 40
4.48799
 40
4.60019
 40
4.60019
 40
4.71239
 40
4.71239
 40
4.71239
 10
255.672
 20
565.908
 30
0
 10
255.672
 20
566.005
 30
0
 10
255.672
 20
566.101
 30
0
 10
255.672
 20
566.207
 30
0
 10
255.672
 20
566.312
 30
0
 10
255.672
 20
566.426
 30
0
 10
255.672
 20
566.539
 30
0
 10
255.672
 20
566.659
 30
0
 10
255.672
 20
566.778
 30
0
 10
255.672
 20
566.903
 30
0
 10
255.672
 20
567.027
 30
0
 10
255.672
 20
567.282
 30
0
 10
255.672
 20
567.541
 30
0
 10
255.672
 20
567.67
 30
0
 10
255.672
 20
567.8
 30
0
 10
255.672
 20
568.057
 30
0
 10
255.672
 20
568.304
 30
0
 10
255.672
 20
568.423
 30
0
 10
255.672
 20
568.543
 30
0
 10
255.672
 20
568.656
 30
0
 10
255.672
 20
568.77
 30
0
 10
255.672
 20
568.875
 30
0
 10
255.672
 20
568.981
 30
0
 10
255.672
 20
569.078
 30
0
 10
255.672
 20
569.174
 30
0
  0
SPLINE
  5
A25
330
A02
100
AcDbEntity
  8
View002
100
AcDbSpline
210
0
220
0
230
1
 70
8
 71
2
 72
28
 73
25
 74
0
 40
0
 40
0
 40
0
 40
0.0560999
 40
0.0560999
 40
0.1122
 40
0.1122
 40
0.1683
 40
0.1683
 40
0.224399
 40
0.224399
 40
0.280499
 40
0.280499
 40
0.336599
 40
0.336599
 40
0.392699
 40
0.392699
 40
0.448799
 40
0.448799
 40
0.504899
 40
0.504899
 40
0.560999
 40
0.560999
 40
0.673198
 40
0.673198
 40
0.785398
 40
0.785398
 40
0.785398
 10
276.885
 20
578.156
 30
0
 10
276.883
 20
578.201
 30
0
 10
276.881
 20
578.247
 30
0
 10
276.874
 20
578.293
 30
0
 10
276.868
 20
578.338
 30
0
 10
276.857
 20
578.384
 30
0
 10
276.845
 20
578.429
 30
0
 10
276.83
 20
578.474
 30
0
 10
276.815
 20
578.519
 30
0
 10
276.795
 20
578.563
 30
0
 10
276.775
 20
578.608
 30
0
 10
276.751
 20
578.651
 30
0
 10
276.727
 20
578.695
 30
0
 10
276.698
 20
578.738
 30
0
 10
276.67
 20
578.78
 30
0
 10
276.638
 20
578.822
 30
0
 10
276.605
 20
578.864
 30
0
 10
276.569
 20
578.905
 30
0
 10
276.533
 20
578.945
 30
0
 10
276.492
 20
578.985
 30
0
 10
276.452
 20
579.024
 30
0
 10
276.366
 20
579.101
 30
0
 10
276.268
 20
579.174
 30
0
 10
276.168
 20
579.245
 30
0
 10
276.057
 20
579.31
 30
0
  0
SPLINE
  5
A26
330
A02
100
AcDbEntity
  8
View002
100
AcDbSpline
210
0
220
0
230
1
 70
8
 71
3
 72
20
 73
16
 74
0
 40
0.785398
 40
0.785398
 40
0.785398
 40
0.785398
 40
0.841498
 40
0.841498
 40
0.841498
 40
0.953698
 40
0.953698
 40
0.953698
 40
1.0659
 40
1.0659
 40
1.0659
 40
1.1781
 40
1.1781
 40
1.1781
 40
1.5708
 40
1.5708
 40
1.5708
 40
1.5708
 10
276.057
 20
579.31
 30
0
 10
276.019
 20
579.331
 30
0
 10
275.98
 20
579.352
 30
0
 10
275.942
 20
579.373
 30
0
 10
275.862
 20
579.413
 30
0
 10
275.779
 20
579.451
 30
0
 10
275.694
 20
579.487
 30
0
 10
275.607
 20
579.522
 30
0
 10
275.517
 20
579.555
 30
0
 10
275.425
 20
579.585
 30
0
 10
275.332
 20
579.614
 30
0
 10
275.237
 20
579.64
 30
0
 10
275.139
 20
579.664
 30
0
 10
274.797
 20
579.745
 30
0
 10
274.427
 20
579.788
 30
0
 10
274.057
 20
579.789
 30
0
  0
LINE
  5
A27
330
A02
100
AcDbEntity
  8
View002
100
AcDbLine
 10
140.414
 20
260.13
 30
0
 11
140.414
 21
280.543
 31
0
  0
LINE
  5
A28
330
A02
100
AcDbEntity
  8
View002
100
AcDbLine
 10
140.414
 20
280.543
 30
0
 11
241.53
 21
338.922
 31
0
  0
LINE
  5
A29
330
A02
100
AcDbEntity
  8
View002
100
AcDbLine
 10
276.885
 20
359.334
 30
0
 11
312.69
 21
380.006
 31
0
  0
LINE
  5
A2A
330
A02
100
AcDbEntity
  8
View002
100
AcDbLine
 10
349.717
 20
401.384
 30
0
 11
352.546
 21
403.017
 31
0
  0
LINE
  5
A2B
330
A02
100
AcDbEntity
  8
View002
100
AcDbLine
 10
161.627
 20
247.883
 30
0
 11
161.627
 21
268.295
 31
0
  0
LINE
  5
A2C
330
A02
100
AcDbEntity
  8
View002
100
AcDbLine
 10
161.627
 20
268.295
 30
0
 11
335.575
 21
368.724
 31
0
  0
LINE
  5
A2D
330
A02
100
AcDbEntity
  8
View002
100
AcDbLine
 10
370.931
 20
389.137
 30
0
 11
373.759
 21
390.77
 31
0
  0
LINE
  5
A2E
330
A02
100
AcDbEntity
  8
View002
100
AcDbLine
 10
373.759
 20
389.831
 30
0
 11
373.759
 21
390.77
 31
0
  0
LINE
  5
A2F
330
A02
100
AcDbEntity
  8
View002
100
AcDbLine
 10
184.254
 20
260.947
 30
0
 11
243.066
 21
294.901
 31
0
  0
LINE
  5
A30
330
A02
100
AcDbEntity
  8
View002
100
AcDbLine
 10
247.066
 20
297.211
 30
0
 11
261.329
 21
305.446
 31
0
  0
LINE
  5
A31
330
A02
100
AcDbEntity
  8
View002
100
AcDbLine
 10
296.684
 20
325.858
 30
0
 11
353.253
 21
358.518
 31
0
  0
LINE
  5
A32
330
A02
100
AcDbEntity
  8
View002
100
AcDbLine
 10
140.414
 20
260.13
 30
0
 11
161.627
 21
247.883
 31
0
  0
LINE
  5
A33
330
A02
100
AcDbEntity
  8
View002
100
AcDbLine
 10
140.414
 20
280.543
 30
0
 11
161.627
 21
268.295
 31
0
  0
LINE
  5
A34
330
A02
100
AcDbEntity
  8
View002
100
AcDbLine
 10
352.546
 20
403.017
 30
0
 11
359.518
 21
398.992
 31
0
  0
LINE
  5
A35
330
A02
100
AcDbEntity
  8
View002
100
AcDbLine
 10
367.589
 20
394.332
 30
0
 11
373.759
 21
390.77
 31
0
  0
LINE
  5
A36
330
A02
100
AcDbEntity
  8
View002
100
AcDbLine
 10
259.828
 20
445.167
 30
0
 11
269.858
 21
439.376
 31
0
  0
LINE
  5
A37
330
A02
100
AcDbEntity
  8
View002
100
AcDbLine
 10
333.006
 20
368.277
 30
0
 11
277.006
 21
400.609
 31
0
  0
LINE
  5
A38
330
A02
100
AcDbEntity
  8
View002
100
AcDbLine
 10
259.328
 20
410.815
 30
0
 11
277.006
 21
400.609
 31
0
  0
LINE
  5
A39
330
A02
100
AcDbEntity
  8
View002
100
AcDbLine
 10
259.328
 20
444.301
 30
0
 11
268.858
 21
438.799
 31
0
  0
LINE
  5
A3A
330
A02
100
AcDbEntity
  8
View002
100
AcDbLine
 10
277.006
 20
402.539
 30
0
 11
277.006
 21
400.609
 31
0
  0
LINE
  5
A3B
330
A02
100
AcDbEntity
  8
View002
100
AcDbLine
 10
397.094
 20
239.309
 30
0
 11
397.094
 21
482.625
 31
0
  0
LINE
  5
A3C
330
A02
100
AcDbEntity
  8
View002
100
AcDbLine
 10
411.236
 20
231.144
 30
0
 11
411.236
 21
474.46
 31
0
  0
SPLINE
  5
A3D
330
A02
100
AcDbEntity
  8
View002
100
AcDbSpline
210
0
220
0
230
1
 70
8
 71
2
 72
28
 73
25
 74
0
 40
3.14159
 40
3.14159
 40
3.14159
 40
3.19769
 40
3.19769
 40
3.25379
 40
3.25379
 40
3.30989
 40
3.30989
 40
3.36599
 40
3.36599
 40
3.42209
 40
3.42209
 40
3.47819
 40
3.47819
 40
3.53429
 40
3.53429
 40
3.59039
 40
3.59039
 40
3.64649
 40
3.64649
 40
3.70259
 40
3.70259
 40
3.81479
 40
3.81479
 40
3.92699
 40
3.92699
 40
3.92699
 10
397.094
 20
482.625
 30
0
 10
397.096
 20
482.671
 30
0
 10
397.098
 20
482.717
 30
0
 10
397.105
 20
482.763
 30
0
 10
397.111
 20
482.808
 30
0
 10
397.122
 20
482.854
 30
0
 10
397.134
 20
482.899
 30
0
 10
397.149
 20
482.944
 30
0
 10
397.165
 20
482.989
 30
0
 10
397.184
 20
483.033
 30
0
 10
397.204
 20
483.077
 30
0
 10
397.228
 20
483.121
 30
0
 10
397.252
 20
483.165
 30
0
 10
397.281
 20
483.208
 30
0
 10
397.309
 20
483.25
 30
0
 10
397.341
 20
483.292
 30
0
 10
397.374
 20
483.334
 30
0
 10
397.41
 20
483.375
 30
0
 10
397.447
 20
483.415
 30
0
 10
397.487
 20
483.455
 30
0
 10
397.527
 20
483.494
 30
0
 10
397.613
 20
483.571
 30
0
 10
397.711
 20
483.644
 30
0
 10
397.811
 20
483.715
 30
0
 10
397.922
 20
483.78
 30
0
  0
SPLINE
  5
A3E
330
A02
100
AcDbEntity
  8
View002
100
AcDbSpline
210
0
220
0
230
1
 70
8
 71
3
 72
20
 73
16
 74
0
 40
3.92699
 40
3.92699
 40
3.92699
 40
3.92699
 40
3.98309
 40
3.98309
 40
3.98309
 40
4.09529
 40
4.09529
 40
4.09529
 40
4.20749
 40
4.20749
 40
4.20749
 40
4.31969
 40
4.31969
 40
4.31969
 40
4.71239
 40
4.71239
 40
4.71239
 40
4.71239
 10
397.922
 20
483.78
 30
0
 10
397.96
 20
483.801
 30
0
 10
397.999
 20
483.822
 30
0
 10
398.037
 20
483.843
 30
0
 10
398.117
 20
483.883
 30
0
 10
398.2
 20
483.921
 30
0
 10
398.285
 20
483.957
 30
0
 10
398.372
 20
483.992
 30
0
 10
398.462
 20
484.024
 30
0
 10
398.554
 20
484.055
 30
0
 10
398.647
 20
484.084
 30
0
 10
398.742
 20
484.11
 30
0
 10
398.84
 20
484.134
 30
0
 10
399.182
 20
484.215
 30
0
 10
399.552
 20
484.258
 30
0
 10
399.922
 20
484.258
 30
0
  0
SPLINE
  5
A3F
330
A02
100
AcDbEntity
  8
View002
100
AcDbSpline
210
0
220
0
230
1
 70
8
 71
3
 72
11
 73
7
 74
0
 40
0.785398
 40
0.785398
 40
0.785398
 40
0.785398
 40
1.1781
 40
1.1781
 40
1.1781
 40
1.5708
 40
1.5708
 40
1.5708
 40
1.5708
 10
418.307
 20
495.549
 30
0
 10
418.307
 20
495.548
 30
0
 10
418.307
 20
495.488
 30
0
 10
418.307
 20
495.373
 30
0
 10
418.307
 20
495.257
 30
0
 10
418.307
 20
495.086
 30
0
 10
418.307
 20
494.873
 30
0
  0
LINE
  5
A40
330
A02
100
AcDbEntity
  8
View002
100
AcDbLine
 10
432.449
 20
243.392
 30
0
 11
432.449
 21
310.864
 31
0
  0
LINE
  5
A41
330
A02
100
AcDbEntity
  8
View002
100
AcDbLine
 10
432.449
 20
345.505
 30
0
 11
432.449
 21
486.708
 31
0
  0
SPLINE
  5
A42
330
A02
100
AcDbEntity
  8
View002
100
AcDbSpline
210
0
220
0
230
1
 70
8
 71
2
 72
28
 73
25
 74
0
 40
3.14159
 40
3.14159
 40
3.14159
 40
3.25379
 40
3.25379
 40
3.36599
 40
3.36599
 40
3.47819
 40
3.47819
 40
3.59039
 40
3.59039
 40
3.70259
 40
3.70259
 40
3.92699
 40
3.92699
 40
4.03919
 40
4.03919
 40
4.26359
 40
4.26359
 40
4.37579
 40
4.37579
 40
4.48799
 40
4.48799
 40
4.60019
 40
4.60019
 40
4.71239
 40
4.71239
 40
4.71239
 10
411.236
 20
474.46
 30
0
 10
411.236
 20
474.557
 30
0
 10
411.236
 20
474.654
 30
0
 10
411.236
 20
474.759
 30
0
 10
411.236
 20
474.865
 30
0
 10
411.236
 20
474.978
 30
0
 10
411.236
 20
475.091
 30
0
 10
411.236
 20
475.211
 30
0
 10
411.236
 20
475.331
 30
0
 10
411.236
 20
475.455
 30
0
 10
411.236
 20
475.58
 30
0
 10
411.236
 20
475.834
 30
0
 10
411.236
 20
476.093
 30
0
 10
411.236
 20
476.223
 30
0
 10
411.236
 20
476.352
 30
0
 10
411.236
 20
476.609
 30
0
 10
411.236
 20
476.856
 30
0
 10
411.236
 20
476.976
 30
0
 10
411.236
 20
477.095
 30
0
 10
411.236
 20
477.209
 30
0
 10
411.236
 20
477.322
 30
0
 10
411.236
 20
477.428
 30
0
 10
411.236
 20
477.533
 30
0
 10
411.236
 20
477.63
 30
0
 10
411.236
 20
477.726
 30
0
  0
SPLINE
  5
A43
330
A02
100
AcDbEntity
  8
View002
100
AcDbSpline
210
0
220
0
230
1
 70
8
 71
2
 72
28
 73
25
 74
0
 40
0
 40
0
 40
0
 40
0.0560999
 40
0.0560999
 40
0.1122
 40
0.1122
 40
0.1683
 40
0.1683
 40
0.224399
 40
0.224399
 40
0.280499
 40
0.280499
 40
0.336599
 40
0.336599
 40
0.392699
 40
0.392699
 40
0.448799
 40
0.448799
 40
0.504899
 40
0.504899
 40
0.560999
 40
0.560999
 40
0.673198
 40
0.673198
 40
0.785398
 40
0.785398
 40
0.785398
 10
432.449
 20
486.708
 30
0
 10
432.447
 20
486.754
 30
0
 10
432.444
 20
486.799
 30
0
 10
432.438
 20
486.845
 30
0
 10
432.431
 20
486.891
 30
0
 10
432.42
 20
486.936
 30
0
 10
432.409
 20
486.981
 30
0
 10
432.393
 20
487.026
 30
0
 10
432.378
 20
487.071
 30
0
 10
432.358
 20
487.116
 30
0
 10
432.338
 20
487.16
 30
0
 10
432.314
 20
487.204
 30
0
 10
432.29
 20
487.247
 30
0
 10
432.262
 20
487.29
 30
0
 10
432.234
 20
487.333
 30
0
 10
432.201
 20
487.375
 30
0
 10
432.169
 20
487.416
 30
0
 10
432.132
 20
487.457
 30
0
 10
432.096
 20
487.498
 30
0
 10
432.056
 20
487.537
 30
0
 10
432.015
 20
487.577
 30
0
 10
431.929
 20
487.654
 30
0
 10
431.832
 20
487.726
 30
0
 10
431.731
 20
487.797
 30
0
 10
431.621
 20
487.863
 30
0
  0
SPLINE
  5
A44
330
A02
100
AcDbEntity
  8
View002
100
AcDbSpline
210
0
220
0
230
1
 70
8
 71
3
 72
20
 73
16
 74
0
 40
0.785398
 40
0.785398
 40
0.785398
 40
0.785398
 40
0.841498
 40
0.841498
 40
0.841498
 40
0.953698
 40
0.953698
 40
0.953698
 40
1.0659
 40
1.0659
 40
1.0659
 40
1.1781
 40
1.1781
 40
1.1781
 40
1.5708
 40
1.5708
 40
1.5708
 40
1.5708
 10
431.621
 20
487.863
 30
0
 10
431.582
 20
487.884
 30
0
 10
431.544
 20
487.905
 30
0
 10
431.505
 20
487.926
 30
0
 10
431.425
 20
487.966
 30
0
 10
431.343
 20
488.004
 30
0
 10
431.257
 20
488.04
 30
0
 10
431.17
 20
488.074
 30
0
 10
431.081
 20
488.107
 30
0
 10
430.989
 20
488.137
 30
0
 10
430.895
 20
488.166
 30
0
 10
430.8
 20
488.193
 30
0
 10
430.703
 20
488.217
 30
0
 10
430.36
 20
488.298
 30
0
 10
429.991
 20
488.34
 30
0
 10
429.621
 20
488.341
 30
0
  0
LINE
  5
A45
330
A02
100
AcDbEntity
  8
View002
100
AcDbLine
 10
416.806
 20
354.536
 30
0
 11
434.484
 21
344.33
 31
0
  0
LINE
  5
A46
330
A02
100
AcDbEntity
  8
View002
100
AcDbLine
 10
519.484
 20
295.255
 30
0
 11
434.484
 21
344.33
 31
0
  0
LINE
  5
A47
330
A02
100
AcDbEntity
  8
View002
100
AcDbLine
 10
489.984
 20
277.646
 30
0
 11
433.984
 21
309.978
 31
0
  0
LINE
  5
A48
330
A02
100
AcDbEntity
  8
View002
100
AcDbLine
 10
416.306
 20
320.184
 30
0
 11
433.984
 21
309.978
 31
0
  0
LINE
  5
A49
330
A02
100
AcDbEntity
  8
View002
100
AcDbLine
 10
434.484
 20
344.33
 30
0
 11
433.984
 21
343.464
 31
0
  0
LINE
  5
A4A
330
A02
100
AcDbEntity
  8
View002
100
AcDbLine
 10
416.306
 20
353.67
 30
0
 11
433.984
 21
343.464
 31
0
  0
LINE
  5
A4B
330
A02
100
AcDbEntity
  8
View002
100
AcDbLine
 10
433.984
 20
343.464
 30
0
 11
433.984
 21
309.978
 31
0
  0
LINE
  5
A4C
330
A02
100
AcDbEntity
  8
View002
100
AcDbLine
 10
298.806
 20
168.682
 30
0
 11
298.806
 21
189.095
 31
0
  0
LINE
  5
A4D
330
A02
100
AcDbEntity
  8
View002
100
AcDbLine
 10
298.806
 20
189.095
 30
0
 11
397.094
 21
245.841
 31
0
  0
LINE
  5
A4E
330
A02
100
AcDbEntity
  8
View002
100
AcDbLine
 10
432.449
 20
266.254
 30
0
 11
471.082
 21
288.559
 31
0
  0
LINE
  5
A4F
330
A02
100
AcDbEntity
  8
View002
100
AcDbLine
 10
501.082
 20
305.879
 30
0
 11
510.938
 21
311.569
 31
0
  0
LINE
  5
A50
330
A02
100
AcDbEntity
  8
View002
100
AcDbLine
 10
320.019
 20
156.435
 30
0
 11
320.019
 21
176.847
 31
0
  0
LINE
  5
A51
330
A02
100
AcDbEntity
  8
View002
100
AcDbLine
 10
320.019
 20
176.847
 30
0
 11
532.151
 21
299.322
 31
0
  0
LINE
  5
A52
330
A02
100
AcDbEntity
  8
View002
100
AcDbLine
 10
532.151
 20
278.91
 30
0
 11
532.151
 21
299.322
 31
0
  0
LINE
  5
A53
330
A02
100
AcDbEntity
  8
View002
100
AcDbLine
 10
342.646
 20
169.499
 30
0
 11
513.766
 21
268.295
 31
0
  0
LINE
  5
A54
330
A02
100
AcDbEntity
  8
View002
100
AcDbLine
 10
298.806
 20
168.682
 30
0
 11
320.019
 21
156.435
 31
0
  0
LINE
  5
A55
330
A02
100
AcDbEntity
  8
View002
100
AcDbLine
 10
298.806
 20
189.095
 30
0
 11
320.019
 21
176.847
 31
0
  0
LINE
  5
A56
330
A02
100
AcDbEntity
  8
View002
100
AcDbLine
 10
510.938
 20
311.569
 30
0
 11
532.151
 21
299.322
 31
0
  0
LINE
  5
A57
330
A02
100
AcDbEntity
  8
View002
100
AcDbLine
 10
68.9961
 20
282.584
 30
0
 11
68.9961
 21
302.996
 31
0
  0
LINE
  5
A58
330
A02
100
AcDbEntity
  8
View002
100
AcDbLine
 10
68.9961
 20
302.996
 30
0
 11
90.2093
 21
315.244
 31
0
  0
LINE
  5
A59
330
A02
100
AcDbEntity
  8
View002
100
AcDbLine
 10
426.085
 20
76.4184
 30
0
 11
426.085
 21
96.8308
 31
0
  0
LINE
  5
A5A
330
A02
100
AcDbEntity
  8
View002
100
AcDbLine
 10
426.085
 20
96.8308
 30
0
 11
447.298
 21
109.078
 31
0
  0
LINE
  5
A5B
330
A02
100
AcDbEntity
  8
View002
100
AcDbLine
 10
447.298
 20
88.6658
 30
0
 11
447.298
 21
109.078
 31
0
  0
LINE
  5
A5C
330
A02
100
AcDbEntity
  8
View002
100
AcDbLine
 10
426.085
 20
76.4184
 30
0
 11
447.298
 21
88.6658
 31
0
  0
LINE
  5
A5D
330
A02
100
AcDbEntity
  8
View002
100
AcDbLine
 10
68.9961
 20
282.584
 30
0
 11
426.085
 21
76.4184
 31
0
  0
LINE
  5
A5E
330
A02
100
AcDbEntity
  8
View002
100
AcDbLine
 10
68.9961
 20
302.996
 30
0
 11
426.085
 21
96.8308
 31
0
  0
LINE
  5
A5F
330
A02
100
AcDbEntity
  8
View002
100
AcDbLine
 10
90.2093
 20
315.244
 30
0
 11
145.364
 21
283.4
 31
0
  0
LINE
  5
A60
330
A02
100
AcDbEntity
  8
View002
100
AcDbLine
 10
166.577
 20
271.153
 30
0
 11
303.756
 21
191.953
 31
0
  0
LINE
  5
A61
330
A02
100
AcDbEntity
  8
View002
100
AcDbLine
 10
324.969
 20
179.705
 30
0
 11
447.298
 21
109.078
 31
0
  0
LINE
  5
A62
330
A02
100
AcDbEntity
  8
View002
100
AcDbLine
 10
42.8331
 20
286.258
 30
0
 11
42.8331
 21
294.423
 31
0
  0
LINE
  5
A63
330
A02
100
AcDbEntity
  8
View002
100
AcDbLine
 10
42.8331
 20
294.423
 30
0
 11
241.53
 21
409.141
 31
0
  0
LINE
  5
A64
330
A02
100
AcDbEntity
  8
View002
100
AcDbLine
 10
431.742
 20
61.7214
 30
0
 11
431.742
 21
69.8864
 31
0
  0
LINE
  5
A65
330
A02
100
AcDbEntity
  8
View002
100
AcDbLine
 10
431.742
 20
69.8864
 30
0
 11
654.48
 21
198.485
 31
0
  0
LINE
  5
A66
330
A02
100
AcDbEntity
  8
View002
100
AcDbLine
 10
654.48
 20
190.32
 30
0
 11
654.48
 21
198.485
 31
0
  0
LINE
  5
A67
330
A02
100
AcDbEntity
  8
View002
100
AcDbLine
 10
431.742
 20
61.7214
 30
0
 11
654.48
 21
190.32
 31
0
  0
LINE
  5
A68
330
A02
100
AcDbEntity
  8
View002
100
AcDbLine
 10
42.8331
 20
286.258
 30
0
 11
431.742
 21
61.7214
 31
0
  0
LINE
  5
A69
330
A02
100
AcDbEntity
  8
View002
100
AcDbLine
 10
42.8331
 20
294.423
 30
0
 11
431.742
 21
69.8864
 31
0
  0
LINE
  5
A6A
330
A02
100
AcDbEntity
  8
View002
100
AcDbLine
 10
638.924
 20
207.466
 30
0
 11
654.48
 21
198.485
 31
0
  0
LINE
  5
A6B
330
A02
100
AcDbEntity
  8
View002
100
AcDbLine
 10
617.711
 20
187.87
 30
0
 11
617.711
 21
208.283
 31
0
  0
LINE
  5
A6C
330
A02
100
AcDbEntity
  8
View002
100
AcDbLine
 10
617.711
 20
208.283
 30
0
 11
638.924
 21
220.53
 31
0
  0
LINE
  5
A6D
330
A02
100
AcDbEntity
  8
View002
100
AcDbLine
 10
638.924
 20
200.118
 30
0
 11
638.924
 21
220.53
 31
0
  0
LINE
  5
A6E
330
A02
100
AcDbEntity
  8
View002
100
AcDbLine
 10
617.711
 20
187.87
 30
0
 11
638.924
 21
200.118
 31
0
  0
LINE
  5
A6F
330
A02
100
AcDbEntity
  8
View002
100
AcDbLine
 10
276.885
 20
384.646
 30
0
 11
298.806
 21
371.99
 31
0
  0
LINE
  5
A70
330
A02
100
AcDbEntity
  8
View002
100
AcDbLine
 10
337.697
 20
349.536
 30
0
 11
347.295
 21
343.995
 31
0
  0
LINE
  5
A71
330
A02
100
AcDbEntity
  8
View002
100
AcDbLine
 10
368.473
 20
331.768
 30
0
 11
397.094
 21
315.244
 31
0
  0
LINE
  5
A72
330
A02
100
AcDbEntity
  8
View002
100
AcDbLine
 10
432.449
 20
294.831
 30
0
 11
457.198
 21
280.543
 31
0
  0
LINE
  5
A73
330
A02
100
AcDbEntity
  8
View002
100
AcDbLine
 10
496.089
 20
258.089
 30
0
 11
617.711
 21
187.87
 31
0
  0
LINE
  5
A74
330
A02
100
AcDbEntity
  8
View002
100
AcDbLine
 10
496.089
 20
278.501
 30
0
 11
617.711
 21
208.283
 31
0
  0
LINE
  5
A75
330
A02
100
AcDbEntity
  8
View002
100
AcDbLine
 10
532.151
 20
282.176
 30
0
 11
638.924
 21
220.53
 31
0
  0
LINE
  5
A76
330
A02
100
AcDbEntity
  8
View002
100
AcDbLine
 10
255.672
 20
414.856
 30
0
 11
255.672
 21
431.186
 31
0
  0
LINE
  5
A77
330
A02
100
AcDbEntity
  8
View002
100
AcDbLine
 10
255.672
 20
431.186
 30
0
 11
276.885
 21
443.434
 31
0
  0
LINE
  5
A78
330
A02
100
AcDbEntity
  8
View002
100
AcDbLine
 10
397.094
 20
333.207
 30
0
 11
397.094
 21
349.536
 31
0
  0
LINE
  5
A79
330
A02
100
AcDbEntity
  8
View002
100
AcDbLine
 10
255.672
 20
414.856
 30
0
 11
397.094
 21
333.207
 31
0
  0
LINE
  5
A7A
330
A02
100
AcDbEntity
  8
View002
100
AcDbLine
 10
255.672
 20
431.186
 30
0
 11
397.094
 21
349.536
 31
0
  0
LINE
  5
A7B
330
A02
100
AcDbEntity
  8
View002
100
AcDbLine
 10
276.885
 20
443.434
 30
0
 11
397.094
 21
374.031
 31
0
  0
LINE
  5
A7C
330
A02
100
AcDbEntity
  8
View002
100
AcDbLine
 10
394.972
 20
244.617
 30
0
 11
397.094
 21
245.841
 31
0
  0
LINE
  5
A7D
330
A02
100
AcDbEntity
  8
View002
100
AcDbLine
 10
253.551
 20
309.936
 30
0
 11
309.112
 21
277.858
 31
0
  0
LINE
  5
A7E
330
A02
100
AcDbEntity
  8
View002
100
AcDbLine
 10
330.289
 20
265.632
 30
0
 11
380.83
 21
236.452
 31
0
  0
LINE
  5
A7F
330
A02
100
AcDbEntity
  8
View002
100
AcDbLine
 10
253.551
 20
326.266
 30
0
 11
316.183
 21
290.106
 31
0
  0
LINE
  5
A80
330
A02
100
AcDbEntity
  8
View002
100
AcDbLine
 10
337.36
 20
277.879
 30
0
 11
394.972
 21
244.617
 31
0
  0
LINE
  5
A81
330
A02
100
AcDbEntity
  8
View002
100
AcDbLine
 10
276.885
 20
337.289
 30
0
 11
326.789
 21
308.477
 31
0
  0
LINE
  5
A82
330
A02
100
AcDbEntity
  8
View002
100
AcDbLine
 10
347.967
 20
296.25
 30
0
 11
397.094
 21
267.887
 31
0
  0
SPLINE
  5
A83
330
A02
100
AcDbEntity
  8
View002
100
AcDbSpline
210
0
220
0
230
1
 70
8
 71
3
 72
41
 73
37
 74
0
 40
0.159305
 40
0.159305
 40
0.159305
 40
0.159305
 40
0.198772
 40
0.198772
 40
0.198772
 40
0.238239
 40
0.238239
 40
0.238239
 40
0.297798
 40
0.297798
 40
0.297798
 40
0.357358
 40
0.357358
 40
0.357358
 40
0.497308
 40
0.497308
 40
0.497308
 40
0.642755
 40
0.642755
 40
0.642755
 40
0.702258
 40
0.702258
 40
0.702258
 40
0.761761
 40
0.761761
 40
0.761761
 40
0.821321
 40
0.821321
 40
0.821321
 40
0.880881
 40
0.880881
 40
0.880881
 40
0.94044
 40
0.94044
 40
0.94044
 40
1
 40
1
 40
1
 40
1
 10
432.449
 20
416.857
 30
0
 10
435.971
 20
417.751
 30
0
 10
439.459
 20
418.992
 30
0
 10
442.868
 20
420.511
 30
0
 10
446.279
 20
422.03
 30
0
 10
449.611
 20
423.827
 30
0
 10
452.847
 20
425.841
 30
0
 10
456.731
 20
428.261
 30
0
 10
460.474
 20
430.995
 30
0
 10
464.056
 20
433.972
 30
0
 10
467.638
 20
436.95
 30
0
 10
471.06
 20
440.171
 30
0
 10
474.311
 20
443.583
 30
0
 10
481.948
 20
451.605
 30
0
 10
488.647
 20
460.663
 30
0
 10
494.267
 20
470.334
 30
0
 10
500.101
 20
480.388
 30
0
 10
504.785
 20
491.128
 30
0
 10
507.987
 20
502.18
 30
0
 10
509.295
 20
506.701
 30
0
 10
510.351
 20
511.274
 30
0
 10
511.116
 20
515.862
 30
0
 10
511.88
 20
520.449
 30
0
 10
512.352
 20
525.053
 30
0
 10
512.479
 20
529.619
 30
0
 10
512.631
 20
535.176
 30
0
 10
512.275
 20
540.681
 30
0
 10
511.28
 20
545.971
 30
0
 10
510.285
 20
551.256
 30
0
 10
508.65
 20
556.325
 30
0
 10
506.264
 20
560.888
 30
0
 10
504.633
 20
564.009
 30
0
 10
502.651
 20
566.888
 30
0
 10
500.329
 20
569.402
 30
0
 10
498.008
 20
571.918
 30
0
 10
495.346
 20
574.068
 30
0
 10
492.417
 20
575.757
 30
0
  0
LINE
  5
A84
330
A02
100
AcDbEntity
  8
View002
100
AcDbLine
 10
242.359
 20
575.228
 30
0
 11
262.743
 21
586.997
 31
0
  0
LINE
  5
A85
330
A02
100
AcDbEntity
  8
View002
100
AcDbLine
 10
262.743
 20
586.997
 30
0
 11
276.057
 21
579.31
 31
0
  0
LINE
  5
A86
330
A02
100
AcDbEntity
  8
View002
100
AcDbLine
 10
397.922
 20
483.78
 30
0
 11
418.307
 21
495.549
 31
0
  0
LINE
  5
A87
330
A02
100
AcDbEntity
  8
View002
100
AcDbLine
 10
418.307
 20
495.549
 30
0
 11
431.621
 21
487.863
 31
0
  0
LINE
  5
A88
330
A02
100
AcDbEntity
  8
View002
100
AcDbLine
 10
366.567
 20
228.217
 30
0
 11
319.657
 21
255.3
 31
0
  0
LINE
  5
A89
330
A02
100
AcDbEntity
  8
View002
100
AcDbLine
 10
301.98
 20
265.506
 30
0
 11
234.752
 21
304.32
 31
0
  0
LINE
  5
A8A
330
A02
100
AcDbEntity
  8
View002
100
AcDbLine
 10
362.567
 20
225.907
 30
0
 11
317.657
 21
251.836
 31
0
  0
LINE
  5
A8B
330
A02
100
AcDbEntity
  8
View002
100
AcDbLine
 10
299.98
 20
262.042
 30
0
 11
232.752
 21
300.856
 31
0
  0
LINE
  5
A8C
330
A02
100
AcDbEntity
  8
View002
100
AcDbLine
 10
241.53
 20
574.073
 30
0
 11
255.672
 21
565.908
 31
0
  0
LINE
  5
A8D
330
A02
100
AcDbEntity
  8
View002
100
AcDbLine
 10
244.359
 20
575.706
 30
0
 11
262.743
 21
586.32
 31
0
  0
LINE
  5
A8E
330
A02
100
AcDbEntity
  8
View002
100
AcDbLine
 10
255.672
 20
565.908
 30
0
 11
276.885
 21
578.156
 31
0
  0
LINE
  5
A8F
330
A02
100
AcDbEntity
  8
View002
100
AcDbLine
 10
244.359
 20
575.706
 30
0
 11
255.672
 21
569.174
 31
0
  0
LINE
  5
A90
330
A02
100
AcDbEntity
  8
View002
100
AcDbLine
 10
255.672
 20
569.174
 30
0
 11
274.057
 21
579.789
 31
0
  0
LINE
  5
A91
330
A02
100
AcDbEntity
  8
View002
100
AcDbLine
 10
262.743
 20
586.32
 30
0
 11
274.057
 21
579.789
 31
0
  0
LINE
  5
A92
330
A02
100
AcDbEntity
  8
View002
100
AcDbLine
 10
397.094
 20
482.625
 30
0
 11
411.236
 21
474.46
 31
0
  0
LINE
  5
A93
330
A02
100
AcDbEntity
  8
View002
100
AcDbLine
 10
399.922
 20
484.258
 30
0
 11
418.307
 21
494.873
 31
0
  0
LINE
  5
A94
330
A02
100
AcDbEntity
  8
View002
100
AcDbLine
 10
411.236
 20
474.46
 30
0
 11
432.449
 21
486.708
 31
0
  0
LINE
  5
A95
330
A02
100
AcDbEntity
  8
View002
100
AcDbLine
 10
399.922
 20
484.258
 30
0
 11
411.236
 21
477.726
 31
0
  0
LINE
  5
A96
330
A02
100
AcDbEntity
  8
View002
100
AcDbLine
 10
411.236
 20
477.726
 30
0
 11
429.621
 21
488.341
 31
0
  0
LINE
  5
A97
330
A02
100
AcDbEntity
  8
View002
100
AcDbLine
 10
418.307
 20
494.873
 30
0
 11
429.621
 21
488.341
 31
0
  0
DIMENSION
  5
A98
330
A02
100
AcDbEntity
  8
Dimension014
100
AcDbDimension
  2
*Dimension014
 10
239.787
 20
172.16
 30
0
 11
237.287
 21
176.49
 31
0
 70
1
  1
449.07
  3
STANDARD
100
AcDbAlignedDimension
 13
42.8331
 23
286.258
 33
0
 14
431.742
 24
61.7214
 34
0
  0
DIMENSION
  5
AA2
330
A02
100
AcDbEntity
  8
Dimension015
100
AcDbDimension
  2
*Dimension015
 10
250.041
 20
198.083
 30
0
 11
247.541
 21
202.413
 31
0
 70
1
  1
412.33
  3
STANDARD
100
AcDbAlignedDimension
 13
68.9961
 23
302.996
 33
0
 14
426.085
 24
96.8308
 34
0
  0
DIMENSION
  5
AAC
330
A02
100
AcDbEntity
  8
Dimension016
100
AcDbDimension
  2
*Dimension016
 10
452.298
 20
101.372
 30
0
 11
447.298
 21
101.372
 31
0
 70
1
  1
20.41
  3
STANDARD
100
AcDbAlignedDimension
 13
447.298
 23
109.078
 33
0
 14
447.298
 24
88.6658
 34
0
  0
DIMENSION
  5
AB6
330
A02
100
AcDbEntity
  8
Dimension017
100
AcDbDimension
  2
*Dimension017
 10
540.611
 20
132.355
 30
0
 11
543.111
 21
136.686
 31
0
 70
1
  1
257.2
  3
STANDARD
100
AcDbAlignedDimension
 13
431.742
 23
69.8864
 33
0
 14
654.48
 24
198.485
 34
0
  0
DIMENSION
  5
AC0
330
A02
100
AcDbEntity
  8
Dimension018
100
AcDbDimension
  2
*Dimension018
 10
428.585
 20
244.915
 30
0
 11
426.085
 21
240.585
 31
0
 70
1
  1
244.95
  3
STANDARD
100
AcDbAlignedDimension
 13
532.151
 23
299.322
 33
0
 14
320.019
 24
176.847
 34
0
  0
DIMENSION
  5
ACA
330
A02
100
AcDbEntity
  8
Dimension019
100
AcDbDimension
  2
*Dimension019
 10
328.883
 20
388.531
 30
0
 11
326.383
 21
392.861
 31
0
 70
1
  1
163.3
  3
STANDARD
100
AcDbAlignedDimension
 13
255.672
 23
431.186
 33
0
 14
397.094
 24
349.536
 34
0
  0
DIMENSION
  5
AD4
330
A02
100
AcDbEntity
  8
Dimension020
100
AcDbDimension
  2
*Dimension020
 10
300.159
 20
261.551
 30
0
 11
297.659
 21
265.882
 31
0
 70
1
  1
149.9
  3
STANDARD
100
AcDbAlignedDimension
 13
232.752
 23
300.856
 33
0
 14
362.567
 24
225.907
 34
0
  0
DIMENSION
  5
ADE
330
A02
100
AcDbEntity
  8
Dimension021
100
AcDbDimension
  2
*Dimension021
 10
326.762
 20
283.611
 30
0
 11
324.262
 21
287.942
 31
0
 70
1
  1
163.3
  3
STANDARD
100
AcDbAlignedDimension
 13
253.551
 23
326.266
 33
0
 14
394.972
 24
244.617
 34
0
  0
DIMENSION
  5
AE8
330
A02
100
AcDbEntity
  8
Dimension022
100
AcDbDimension
  2
*Dimension022
 10
393.337
 20
411.645
 30
0
 11
397.667
 21
414.145
 31
0
 70
1
  1
379
  3
STANDARD
100
AcDbAlignedDimension
 13
302.917
 23
247.533
 33
0
 14
492.417
 24
575.757
 34
0
  0
DIMENSION
  5
AF2
330
A02
100
AcDbEntity
  8
Dimension023
100
AcDbDimension
  2
*Dimension023
 10
246.53
 20
454.915
 30
0
 11
241.53
 21
454.915
 31
0
 70
1
  1
243.32
  3
STANDARD
100
AcDbAlignedDimension
 13
241.53
 23
574.073
 33
0
 14
241.53
 24
330.757
 34
0
  0
ENDSEC
  0
SECTION
  2
OBJECTS
  0
DICTIONARY
  5
F000
330
0
100
AcDbDictionary
  3
ACAD_GROUP
350
F001
  0
DICTIONARY
  5
F001
330
F000
100
AcDbDictionary
  0
ENDSEC
  0
EOF